<svg width="599" height="323" viewBox="0 0 599 323" fill="none" xmlns="http://www.w3.org/2000/svg">
<g clip-path="url(#clip0)">
<path opacity="0.46" d="M54.8923 319.038V252.409H76.8663V302.948H82.4033V222.648L109.006 195.991V272.287H118.682V207.245H148.485V224.633H161.321V168.962H186.213V319.707L54.8923 319.038Z" fill="#091228"/>
<path opacity="0.46" d="M670.16 263.824H651.913V305.791H647.311V239.11L625.225 216.973V280.33H617.189V226.32H592.441V240.761H581.782V194.53H566.287V168.962H541.394V224.633H528.558V207.245H498.755V272.287H489.079V195.991L462.477 222.648V302.948H456.94V252.409H434.966V319.038L561.11 319.681V319.707L563.698 319.696L566.287 319.707V319.681L670.16 319.153V263.824Z" fill="#091228"/>
<g opacity="0.57">
<path opacity="0.57" d="M265.431 127.686H210.694V319.335H265.431V127.686Z" fill="url(#paint0_radial)"/>
<path opacity="0.57" d="M267.5 127.686H251.23V319.335H267.5V127.686Z" fill="url(#paint1_radial)"/>
<path opacity="0.57" d="M242.203 142.141H210.694V147.103H242.203V142.141Z" fill="url(#paint2_radial)"/>
<path opacity="0.57" d="M242.203 153.28H210.694V158.242H242.203V153.28Z" fill="url(#paint3_radial)"/>
<path opacity="0.57" d="M242.203 163.769H210.694V168.731H242.203V163.769Z" fill="url(#paint4_radial)"/>
<path opacity="0.57" d="M242.203 174.909H210.694V179.871H242.203V174.909Z" fill="url(#paint5_radial)"/>
<path opacity="0.57" d="M242.203 185.394H210.694V190.356H242.203V185.394Z" fill="url(#paint6_radial)"/>
<path opacity="0.57" d="M242.203 196.533H210.694V201.495H242.203V196.533Z" fill="url(#paint7_radial)"/>
<path opacity="0.57" d="M242.203 207.019H210.694V211.981H242.203V207.019Z" fill="url(#paint8_radial)"/>
<path opacity="0.57" d="M242.203 218.162H210.694V223.124H242.203V218.162Z" fill="url(#paint9_radial)"/>
<path opacity="0.57" d="M242.203 228.647H210.694V233.609H242.203V228.647Z" fill="url(#paint10_radial)"/>
<path opacity="0.57" d="M242.203 239.787H210.694V244.749H242.203V239.787Z" fill="url(#paint11_radial)"/>
<path opacity="0.57" d="M242.203 250.272H210.694V255.234H242.203V250.272Z" fill="url(#paint12_radial)"/>
<path opacity="0.57" d="M242.203 261.411H210.694V266.373H242.203V261.411Z" fill="url(#paint13_radial)"/>
<path opacity="0.57" d="M242.203 271.901H210.694V276.863H242.203V271.901Z" fill="url(#paint14_radial)"/>
<path opacity="0.57" d="M242.203 283.04H210.694V288.002H242.203V283.04Z" fill="url(#paint15_radial)"/>
<path opacity="0.57" d="M242.203 293.525H210.694V298.487H242.203V293.525Z" fill="url(#paint16_radial)"/>
<path opacity="0.57" d="M242.203 304.665H210.694V309.627H242.203V304.665Z" fill="url(#paint17_radial)"/>
<path opacity="0.57" d="M216.903 127.686L232.75 112.655H267.5V127.686H216.903Z" fill="url(#paint18_radial)"/>
<path opacity="0.57" d="M208.354 219.563H164.603V319.707H208.354V219.563Z" fill="url(#paint19_radial)"/>
<path opacity="0.57" d="M210.008 219.563H197.002V319.707H210.008V219.563Z" fill="url(#paint20_radial)"/>
<path opacity="0.57" d="M174.846 228.558H169.743V233.673H174.846V228.558Z" fill="url(#paint21_radial)"/>
<path opacity="0.57" d="M183.676 228.558H178.573V233.673H183.676V228.558Z" fill="url(#paint22_radial)"/>
<path opacity="0.57" d="M192.915 228.558H187.812V233.673H192.915V228.558Z" fill="url(#paint23_radial)"/>
<path opacity="0.57" d="M174.846 237.597H169.743V242.712H174.846V237.597Z" fill="url(#paint24_radial)"/>
<path opacity="0.57" d="M183.676 237.597H178.573V242.712H183.676V237.597Z" fill="url(#paint25_radial)"/>
<path opacity="0.57" d="M192.915 237.597H187.812V242.712H192.915V237.597Z" fill="url(#paint26_radial)"/>
<path opacity="0.57" d="M174.846 246.659H169.743V251.774H174.846V246.659Z" fill="url(#paint27_radial)"/>
<path opacity="0.57" d="M183.676 246.659H178.573V251.774H183.676V246.659Z" fill="url(#paint28_radial)"/>
<path opacity="0.57" d="M192.915 246.659H187.812V251.774H192.915V246.659Z" fill="url(#paint29_radial)"/>
<path opacity="0.57" d="M174.846 255.699H169.743V260.813H174.846V255.699Z" fill="url(#paint30_radial)"/>
<path opacity="0.57" d="M183.676 255.699H178.573V260.813H183.676V255.699Z" fill="url(#paint31_radial)"/>
<path opacity="0.57" d="M192.915 255.699H187.812V260.813H192.915V255.699Z" fill="url(#paint32_radial)"/>
<path opacity="0.57" d="M174.846 265.039H169.743V270.153H174.846V265.039Z" fill="url(#paint33_radial)"/>
<path opacity="0.57" d="M183.676 265.039H178.573V270.153H183.676V265.039Z" fill="url(#paint34_radial)"/>
<path opacity="0.57" d="M192.915 265.039H187.812V270.153H192.915V265.039Z" fill="url(#paint35_radial)"/>
<path opacity="0.57" d="M174.846 274.079H169.743V279.193H174.846V274.079Z" fill="url(#paint36_radial)"/>
<path opacity="0.57" d="M183.676 274.079H178.573V279.193H183.676V274.079Z" fill="url(#paint37_radial)"/>
<path opacity="0.57" d="M192.915 274.079H187.812V279.193H192.915V274.079Z" fill="url(#paint38_radial)"/>
<path opacity="0.57" d="M174.846 283.14H169.743V288.255H174.846V283.14Z" fill="url(#paint39_radial)"/>
<path opacity="0.57" d="M183.676 283.14H178.573V288.255H183.676V283.14Z" fill="url(#paint40_radial)"/>
<path opacity="0.57" d="M192.915 283.14H187.812V288.255H192.915V283.14Z" fill="url(#paint41_radial)"/>
<path opacity="0.57" d="M174.846 292.18H169.743V297.294H174.846V292.18Z" fill="url(#paint42_radial)"/>
<path opacity="0.57" d="M183.676 292.18H178.573V297.294H183.676V292.18Z" fill="url(#paint43_radial)"/>
<path opacity="0.57" d="M192.915 292.18H187.812V297.294H192.915V292.18Z" fill="url(#paint44_radial)"/>
<path opacity="0.57" d="M183.677 301.517H169.75V313.087H183.677V301.517Z" fill="url(#paint45_radial)"/>
<path opacity="0.57" d="M192.915 301.517H187.812V313.087H192.915V301.517Z" fill="url(#paint46_radial)"/>
</g>
<path d="M411.531 311.846C397.312 263.805 388.604 230.104 409.899 232.253C431.194 234.401 432.993 227.774 423.428 193.337C413.864 158.9 433.586 171.099 449.159 185.16C464.732 199.221 431.754 144.274 451.755 136.632C471.756 128.99 477.965 163.104 477.034 132.941C476.103 102.779 482.044 94.2859 495.547 100.768C509.051 107.25 505.561 113.692 514.224 78.2551C522.888 42.8184 547.135 60.5851 541.123 80.9684C535.112 101.352 496.137 139.974 515.756 136.279C535.375 132.585 555.205 149.337 515.344 168.575C475.483 187.814 549.806 180.562 535.612 197.853C521.419 215.144 470.369 210.561 482.523 224.837C494.676 239.114 523.377 213.07 533.599 232.271C543.82 251.473 466.471 272.023 451.878 293.228C437.284 314.433 415.633 325.71 411.531 311.846Z" fill="url(#paint47_linear)"/>
<g opacity="0.51">
<path opacity="0.51" d="M500.625 133.941C512.229 111.569 520.336 96.4491 520.336 96.4491C514.721 106.184 507.957 119.174 500.625 133.941Z" fill="white"/>
<path opacity="0.51" d="M451.292 239.538C462.889 213.72 476.4 184.156 489.187 157.443C497.205 154.187 521.757 154.176 521.757 154.176C512.292 152.362 492.458 155.209 490.088 155.562C493.682 148.065 497.216 140.81 500.625 133.941C496.916 141.066 492.877 148.924 488.62 157.268L488.112 157.956L488.327 157.841C483.783 166.761 479.014 176.191 474.189 185.87C474.189 185.87 474.278 168.958 466.913 160.558C466.913 160.558 474.734 175.7 471.819 190.638L471.856 190.564C467.157 200.031 462.444 209.669 457.871 219.184C456.106 214.456 450.146 201.343 436.798 195.953C436.798 195.953 454.199 208.294 455.497 224.153C438.916 258.969 424.678 291.644 420.947 308.24C420.947 308.24 433.019 280.289 449.345 243.864C465.006 236.832 496.397 243.232 496.397 243.232C480.95 236.902 453.317 239.367 451.292 239.538Z" fill="white"/>
</g>
<path d="M454.926 58.8567L457.863 65.8444L482.263 42.3092L454.926 58.8567Z" fill="url(#paint48_linear)"/>
<path d="M458.598 61.2467L482.263 42.3092L471.623 67.3126L458.598 61.2467Z" fill="url(#paint49_linear)"/>
<path d="M458.598 61.2466L457.863 65.8444L461.35 62.5289L458.598 61.2466Z" fill="url(#paint50_linear)"/>
<path d="M482.263 42.3092L454.926 58.8567L445.202 53.523L482.263 42.3092Z" fill="url(#paint51_linear)"/>
<path d="M405.856 0H290.479C276.787 0 265.687 11.1245 265.687 24.8473V297.45C265.687 311.173 276.787 322.298 290.479 322.298H405.856C419.549 322.298 430.649 311.173 430.649 297.45V24.8473C430.649 11.1245 419.549 0 405.856 0Z" fill="#37474F"/>
<path d="M401.425 5.72021H294.907C282.223 5.72021 271.94 16.026 271.94 28.7388V292.759C271.94 305.472 282.223 315.778 294.907 315.778H401.425C414.109 315.778 424.392 305.472 424.392 292.759V28.7388C424.392 16.026 414.109 5.72021 401.425 5.72021Z" fill="url(#paint52_radial)"/>
<path d="M265.913 43.3016H263.751V79.5337H265.913V43.3016Z" fill="#5B89C1"/>
<path d="M265.913 89.1232H263.751V114.509H265.913V89.1232Z" fill="#5B89C1"/>
<path d="M432.63 89.179H430.467V114.565H432.63V89.179Z" fill="#5B89C1"/>
<path d="M193.901 186.858C193.901 186.858 164.102 231.955 134.299 193.976L157.078 168.003L167.803 162.769L190.734 155.841C190.734 155.841 195.592 172.924 193.901 186.858Z" fill="url(#paint53_radial)"/>
<path d="M125.828 314.076C125.828 314.076 128.921 320.662 135.549 319.941C142.176 319.22 141.112 323.008 141.112 323.008H123.915L122.591 319.759L121.849 323.008H119.346C119.346 323.008 119.197 315.429 121.408 312.719C123.618 310.01 125.828 314.076 125.828 314.076Z" fill="url(#paint54_radial)"/>
<path d="M169.231 314.076C169.231 314.076 172.324 320.662 178.952 319.941C185.579 319.22 184.515 323.008 184.515 323.008H167.317L165.99 319.759L165.248 323.008H162.745C162.745 323.008 162.596 315.429 164.807 312.719C167.017 310.01 169.231 314.076 169.231 314.076Z" fill="url(#paint55_radial)"/>
<path d="M190.126 162.669L185.646 235.613L171.315 315.061H162.941C162.941 315.061 151.685 276.795 166.461 245.031L165.979 195.507L148.667 250.807L127.95 315.061H120.236C120.236 315.061 114.599 271.744 131.892 249.361C131.892 249.361 130.62 197.165 152.145 171.824C173.671 146.482 190.126 162.669 190.126 162.669Z" fill="url(#paint56_radial)"/>
<path opacity="0.06" d="M189.458 173.556L189.11 179.224L179.319 184.554L175.087 172.794L170.655 185.442L146.145 180.51L149.256 175.574L169.494 164.52L182.59 165.75L189.458 173.556Z" fill="black"/>
<path d="M260.372 120.501C239.195 125.679 218.95 117.241 204.89 108.466C199.519 105.108 194.416 101.336 189.629 97.1851C187.148 95.0256 185.746 93.6057 185.649 93.5128L187.018 103.745L187.708 108.904L189.599 123.028C189.903 123.378 190.215 123.712 190.53 124.047C191.779 125.357 193.132 126.563 194.576 127.652C205.702 136.034 220.663 136.253 233.692 133.971C249.38 131.243 262.249 124.913 262.249 124.913L260.372 120.501Z" fill="url(#paint57_radial)"/>
<path opacity="0.06" d="M233.692 133.997C219.005 136.554 201.864 135.952 190.53 124.054C190.215 123.727 189.903 123.389 189.599 123.04L187.708 108.916L189.113 105.593C189.206 105.823 201.753 137.089 233.692 133.997Z" fill="black"/>
<path d="M145.358 117.383C143.404 111.607 140.808 105.243 138.171 102.701C138.171 102.701 133.164 106.923 127.468 116.825C126.511 118.49 125.528 120.323 124.549 122.319C117.695 136.324 110.89 158.592 111.261 191.519H115.537C118.233 181.348 121.678 171.39 125.843 161.729C129.86 152.488 135.007 142.847 141.182 135.61C141.892 134.778 142.615 133.98 143.352 133.216C144.985 131.503 146.768 129.941 148.681 128.548C148.681 128.548 147.346 123.27 145.358 117.383Z" fill="url(#paint58_radial)"/>
<path d="M115.522 191.519C115.522 191.519 117.261 195.493 120.217 196.552C120.217 196.552 119.583 198.039 116.631 196.552L116.419 199.302C116.419 199.302 110.931 200.254 110.085 197.608L111.261 191.519H115.522Z" fill="url(#paint59_linear)"/>
<path opacity="0.06" d="M148.666 113.521V128.548C139.068 135.447 131.377 148.972 125.828 161.729C129.37 139.918 139.921 124.244 145.358 117.383C147.361 114.851 148.666 113.521 148.666 113.521Z" fill="black"/>
<path d="M265.753 115.223L273.564 110.254C273.564 110.254 276.097 110.518 273.879 112.421C271.661 114.324 267.708 116.546 267.708 116.546L274.792 113.64C274.792 113.64 275.359 115.543 271.825 116.546L268.398 118.776L275.255 116.175C275.077 116.771 274.716 117.297 274.223 117.677C273.731 118.057 273.132 118.273 272.511 118.293L269.028 120.356L274.569 119.189C274.298 119.689 273.892 120.103 273.397 120.384C272.903 120.664 272.34 120.8 271.773 120.776L265.231 122.947L265.753 115.223Z" fill="url(#paint60_linear)"/>
<path d="M190.734 137.625C190.734 151.273 190.126 173.195 190.126 173.195C190.126 173.195 181.054 178.072 180.517 178.25C179.979 178.429 175.973 168.055 175.973 168.055L171.315 180.778L146.838 177.169C146.838 177.169 153.039 166.977 154.114 158.718C156.477 140.55 138.167 102.705 138.167 102.705C145.158 98.0363 159.396 93.5017 159.396 93.5017L171.312 93.3679L185.642 93.5017C187.222 95.7579 188.335 100.11 189.106 105.585C189.87 110.967 190.3 117.435 190.523 124.047C190.686 128.604 190.738 133.231 190.734 137.625Z" fill="url(#paint61_radial)"/>
<path d="M159.403 76.2665L157.078 95.2746L168.808 96.3302L171.315 93.3567C171.315 93.3567 168.927 81.7043 170.136 74.1627C171.345 66.6212 160.341 65.4913 159.403 76.2665Z" fill="url(#paint62_linear)"/>
<path d="M160.924 68.7621L162.177 80.6115H171.315V60.3323C171.315 60.3323 159.67 56.9202 160.924 68.7621Z" fill="#FE9E85"/>
<path d="M161.291 72.2374C161.291 72.2374 162.889 67.0932 162.556 61.7818C162.556 61.7818 173.374 62.6069 174.583 59.875C175.792 57.1431 174.212 53.1029 171.315 54.4521C168.419 55.8014 170.151 58.3548 165.178 58.221C160.204 58.0872 160.831 60.9158 160.831 60.9158C159.977 61.1848 159.233 61.7231 158.709 62.4504C158.185 63.1778 157.909 64.0553 157.923 64.9523C157.923 68.186 159.407 76.2665 159.407 76.2665L161.291 72.2374Z" fill="url(#paint63_radial)"/>
<path d="M161.291 72.2374L160.879 67.2754C160.879 67.2754 159.767 66.8294 159.266 68.803C158.765 70.7767 160.182 72.7912 161.291 72.2374Z" fill="#FD988C"/>
<path d="M260.372 120.501C260.372 120.501 260.583 115.966 265.542 113.205C270.501 110.443 269.251 111.09 269.251 111.09C269.251 111.09 269.028 114.747 265.768 115.212C265.768 115.212 267.878 120.397 266.718 122.196C265.557 123.995 262.267 124.943 262.267 124.943L260.372 120.501Z" fill="#FE9B89"/>
<path d="M168.808 96.3303L164.198 102.701L157.078 95.2747L168.808 96.3303Z" fill="url(#paint64_radial)"/>
<path d="M168.808 96.3302L172.962 100.27V93.3641L171.315 93.3679L168.808 96.3302Z" fill="url(#paint65_radial)"/>
<path d="M168.975 96.0588L172.691 99.5787L171.215 104.336H168.271L165.979 100.199L168.975 96.0588Z" fill="#FFC909"/>
<path d="M156.195 94.5869C156.195 94.5869 161.016 100.575 162.941 110.35C164.866 120.126 177.62 176.685 134.299 193.98L153.321 150.325L138.171 102.705C138.171 102.705 141.531 98.3484 156.195 94.5869Z" fill="url(#paint66_radial)"/>
<path d="M172.962 93.3679C172.962 93.3679 195.585 160.156 193.901 186.858C193.901 186.858 196.36 161.814 191.305 144.282C191.305 144.282 192.303 101.207 185.661 93.5017L172.962 93.3679Z" fill="url(#paint67_radial)"/>
<path d="M171.215 104.336C171.215 104.336 180.687 121.308 175.855 137.602C171.022 153.897 140.188 174.552 140.188 174.552L129.411 172.939L132.378 164.226C132.378 164.226 168.575 143.204 171.204 130.83C174.234 116.58 168.26 104.336 168.26 104.336H171.215Z" fill="url(#paint68_radial)"/>
<path d="M12.324 184.729L81.6764 250.681C83.9832 241.53 79.8629 226.48 68.6404 212.769L68.3993 212.475C65.0555 208.436 61.313 204.746 57.2288 201.462C55.8195 200.325 54.3854 199.263 52.9267 198.277L52.6782 198.109C47.5641 194.705 42.0574 191.935 36.2784 189.858L36.0262 189.765C23.0792 185.052 12.324 184.729 12.324 184.729Z" fill="#B3F7E0"/>
<path opacity="0.5" d="M35.0693 206.342L35.3141 206.573L36.2932 189.847L36.041 189.754L35.0693 206.342Z" fill="#030303"/>
<path opacity="0.5" d="M51.3097 221.778L51.5544 222.013L52.9415 198.247L52.693 198.08L51.3097 221.778Z" fill="#030303"/>
<path opacity="0.5" d="M66.9975 236.698L67.2423 236.928L68.6553 212.739L68.4142 212.445L66.9975 236.698Z" fill="#030303"/>
<path opacity="0.5" d="M38.2366 235.616L38.5036 235.847C45.8357 242.21 53.6499 246.559 60.9078 249.053L61.4863 249.246C69.3599 251.848 76.5399 252.264 81.6876 250.666L12.324 184.729C12.324 184.729 12.9804 192.337 16.3627 202.347C16.3887 202.428 16.4184 202.51 16.4443 202.596C18.4571 208.532 21.1372 214.219 24.4328 219.548C24.4885 219.63 24.5367 219.712 24.5886 219.79C26.5874 222.972 28.8476 225.982 31.3458 228.788C33.5019 231.203 35.8031 233.483 38.2366 235.616Z" fill="url(#paint69_linear)"/>
<path opacity="0.3" d="M16.4444 202.596L29.588 201.109L29.3432 200.875L16.3628 202.328C16.3888 202.428 16.4185 202.51 16.4444 202.596Z" fill="white"/>
<path opacity="0.3" d="M24.5887 219.79L46.6257 217.326L46.3809 217.095L24.4329 219.548C24.4774 219.63 24.5368 219.712 24.5887 219.79Z" fill="white"/>
<path opacity="0.3" d="M38.2365 235.616L38.5035 235.847L63.196 233.085L62.9512 232.855L38.2365 235.616Z" fill="white"/>
<path opacity="0.3" d="M60.9115 249.053L61.4901 249.246L78.2311 247.388L77.9826 247.154L60.9115 249.053Z" fill="white"/>
<path d="M288.313 43.1752C284.976 56.1545 277.287 73.4528 259.757 82.1503L259.386 82.3398L259.015 82.1503C249.331 77.3481 236.514 66.6918 230.458 43.1752C228.262 34.6007 227.219 25.7705 227.357 16.9192L227.432 15.3321L228.696 16.4471C231.572 19.0499 235.325 20.4619 239.199 20.3982C249.176 20.3052 258.748 11.6115 258.855 11.526L259.419 11.0056L259.983 11.526C260.079 11.6115 269.648 20.3052 279.639 20.3982C283.514 20.4607 287.268 19.0488 290.145 16.4471L291.41 15.3321L291.481 16.9192C291.596 25.7735 290.531 34.6036 288.313 43.1752Z" fill="url(#paint70_radial)"/>
<path d="M291.41 16.9192L291.34 15.3321L290.075 16.4471C287.198 19.0488 283.443 20.4607 279.568 20.3982C269.592 20.3052 260.024 11.6115 259.912 11.526L259.349 11.0056L258.8 11.5223C258.707 11.6077 249.135 20.3015 239.144 20.3944C235.27 20.4582 231.516 19.0461 228.641 16.4434L227.376 15.3283L227.302 16.9154C227.163 25.7668 228.206 34.597 230.402 43.1714C236.47 66.6881 249.287 77.3444 258.959 82.1466L259.33 82.3361L259.701 82.1466C277.243 73.4491 284.92 56.1507 288.258 43.1714C290.47 34.6004 291.531 25.7716 291.41 16.9192ZM286.782 42.8592C280.922 65.5582 268.72 75.9728 259.363 80.7267C242.608 72.2225 235.212 55.4854 231.956 42.8927C229.934 34.9212 228.894 26.7313 228.859 18.5063C231.844 20.714 235.472 21.8741 239.181 21.8068C248.482 21.7139 257.101 14.9343 259.363 13.009C261.626 14.9418 270.23 21.7214 279.546 21.8143C283.254 21.8779 286.881 20.7182 289.867 18.5137C289.836 26.7248 288.799 34.901 286.782 42.8592Z" fill="url(#paint71_radial)"/>
<path d="M274.41 38.228C274.227 38.0713 273.995 37.9851 273.755 37.9851C273.515 37.9851 273.283 38.0713 273.1 38.228L259.378 50.5123L252.443 44.3051C252.261 44.1484 252.029 44.0622 251.788 44.0622C251.548 44.0622 251.316 44.1484 251.134 44.3051C251.049 44.3773 250.981 44.4671 250.935 44.5682C250.888 44.6692 250.864 44.7792 250.864 44.8905C250.864 45.0018 250.888 45.1118 250.935 45.2129C250.981 45.314 251.049 45.4037 251.134 45.4759L258.722 52.2741C258.905 52.4304 259.138 52.5163 259.378 52.5163C259.619 52.5163 259.852 52.4304 260.035 52.2741L274.41 39.3988C274.494 39.3266 274.562 39.2369 274.608 39.1358C274.655 39.0347 274.679 38.9248 274.679 38.8134C274.679 38.7021 274.655 38.5921 274.608 38.4911C274.562 38.39 274.494 38.3003 274.41 38.228Z" fill="url(#paint72_radial)"/>
<path opacity="0.09" d="M200.473 14.466C200.006 14.4659 199.539 14.5057 199.079 14.585C198.56 10.852 196.805 7.40191 194.095 4.78862C191.385 2.17534 187.878 0.550465 184.136 0.174887C180.394 -0.20069 176.635 0.694815 173.462 2.71763C170.288 4.74044 167.886 7.7732 166.639 11.329C166.331 11.303 166.016 11.2918 165.7 11.2918C162.992 11.292 160.369 12.2455 158.29 13.9859C156.211 15.7263 154.808 18.1431 154.326 20.8145C153.595 21.0653 152.927 21.4715 152.368 22.0053C151.808 22.539 151.371 23.1876 151.084 23.9067C150.798 24.6258 150.671 25.3983 150.711 26.1714C150.75 26.9445 150.956 27.6999 151.314 28.3857H206.8C207.854 27.1686 208.538 25.6734 208.768 24.0782C208.998 22.483 208.767 20.855 208.1 19.3882C207.433 17.9214 206.36 16.6776 205.008 15.8049C203.655 14.9322 202.081 14.4675 200.473 14.466Z" fill="url(#paint73_linear)"/>
<path opacity="0.09" d="M492.925 17.841C492.692 17.842 492.459 17.8619 492.228 17.9005C491.97 16.0336 491.093 14.308 489.738 13.0009C488.383 11.6938 486.629 10.8811 484.758 10.6932C482.887 10.5054 481.007 10.9534 479.42 11.9652C477.834 12.9771 476.633 14.4941 476.01 16.2725C475.854 16.2725 475.699 16.2725 475.539 16.2725C474.185 16.2726 472.874 16.7494 471.835 17.6197C470.796 18.4899 470.094 19.6983 469.854 21.0338C469.489 21.1599 469.156 21.3634 468.877 21.6304C468.598 21.8973 468.38 22.2214 468.237 22.5806C468.095 22.9398 468.031 23.3256 468.051 23.7116C468.07 24.0977 468.173 24.4749 468.352 24.8176H496.089C496.621 24.2095 496.967 23.4603 497.086 22.6599C497.204 21.8596 497.089 21.0421 496.755 20.3055C496.421 19.569 495.882 18.9446 495.203 18.5075C494.523 18.0703 493.733 17.8389 492.925 17.841Z" fill="url(#paint74_linear)"/>
<path opacity="0.09" d="M36.6307 132.25C36.2869 132.243 35.9431 132.267 35.6034 132.321C35.2236 129.571 33.9325 127.03 31.9376 125.105C29.9428 123.18 27.36 121.982 24.6044 121.706C21.8489 121.429 19.0805 122.089 16.7442 123.579C14.408 125.07 12.6396 127.304 11.7232 129.923C11.4969 129.923 11.2633 129.893 11.0334 129.893C9.03639 129.894 7.10315 130.598 5.57215 131.883C4.04115 133.168 3.00996 134.952 2.65914 136.922C2.12037 137.106 1.62766 137.405 1.21482 137.797C0.801981 138.19 0.478784 138.667 0.267403 139.197C0.0560218 139.727 -0.0385402 140.296 -0.00979562 140.865C0.018949 141.435 0.17032 141.992 0.433932 142.497H41.2851C42.062 141.602 42.5656 140.502 42.7358 139.328C42.906 138.154 42.7356 136.955 42.245 135.875C41.7544 134.796 40.9642 133.88 39.9688 133.238C38.9733 132.596 37.8146 132.254 36.6307 132.254V132.25Z" fill="url(#paint75_linear)"/>
</g>
<defs>
<radialGradient id="paint0_radial" cx="0" cy="0" r="1" gradientUnits="userSpaceOnUse" gradientTransform="translate(19.7301 66.573) scale(263.873 264.456)">
<stop stop-color="#5344B7"/>
<stop offset="0.05" stop-color="#3928B5"/>
<stop offset="1" stop-color="#0B1680"/>
</radialGradient>
<radialGradient id="paint1_radial" cx="0" cy="0" r="1" gradientUnits="userSpaceOnUse" gradientTransform="translate(-79403.6 59721.2) scale(4888.82 293693)">
<stop stop-color="#5344B7"/>
<stop offset="0.05" stop-color="#3928B5"/>
<stop offset="1" stop-color="#0B1680"/>
</radialGradient>
<radialGradient id="paint2_radial" cx="0" cy="0" r="1" gradientUnits="userSpaceOnUse" gradientTransform="translate(122.78 94.2156) scale(365.758 366.564)">
<stop stop-color="#9D00E2"/>
<stop offset="0.55" stop-color="#FF7948"/>
<stop offset="1" stop-color="#FFE79F"/>
</radialGradient>
<radialGradient id="paint3_radial" cx="0" cy="0" r="1" gradientUnits="userSpaceOnUse" gradientTransform="translate(-96345 1411.05) scale(31074.5 4893.59)">
<stop stop-color="#9D00E2"/>
<stop offset="0.55" stop-color="#FF7948"/>
<stop offset="1" stop-color="#FFE79F"/>
</radialGradient>
<radialGradient id="paint4_radial" cx="0" cy="0" r="1" gradientUnits="userSpaceOnUse" gradientTransform="translate(-96345 1421.56) scale(31074.8 4893.7)">
<stop stop-color="#9D00E2"/>
<stop offset="0.55" stop-color="#FF7948"/>
<stop offset="1" stop-color="#FFE79F"/>
</radialGradient>
<radialGradient id="paint5_radial" cx="0" cy="0" r="1" gradientUnits="userSpaceOnUse" gradientTransform="translate(-96345 1432.69) scale(31074.8 4893.69)">
<stop stop-color="#9D00E2"/>
<stop offset="0.55" stop-color="#FF7948"/>
<stop offset="1" stop-color="#FFE79F"/>
</radialGradient>
<radialGradient id="paint6_radial" cx="0" cy="0" r="1" gradientUnits="userSpaceOnUse" gradientTransform="translate(-96345 1443.16) scale(31074.8 4893.61)">
<stop stop-color="#9D00E2"/>
<stop offset="0.55" stop-color="#FF7948"/>
<stop offset="1" stop-color="#FFE79F"/>
</radialGradient>
<radialGradient id="paint7_radial" cx="0" cy="0" r="1" gradientUnits="userSpaceOnUse" gradientTransform="translate(-96345 1454.31) scale(31074.5 4893.59)">
<stop stop-color="#9D00E2"/>
<stop offset="0.55" stop-color="#FF7948"/>
<stop offset="1" stop-color="#FFE79F"/>
</radialGradient>
<radialGradient id="paint8_radial" cx="0" cy="0" r="1" gradientUnits="userSpaceOnUse" gradientTransform="translate(-96345 1464.8) scale(31074.5 4893.61)">
<stop stop-color="#9D00E2"/>
<stop offset="0.55" stop-color="#FF7948"/>
<stop offset="1" stop-color="#FFE79F"/>
</radialGradient>
<radialGradient id="paint9_radial" cx="0" cy="0" r="1" gradientUnits="userSpaceOnUse" gradientTransform="translate(-96345 1475.94) scale(31074.5 4893.61)">
<stop stop-color="#9D00E2"/>
<stop offset="0.55" stop-color="#FF7948"/>
<stop offset="1" stop-color="#FFE79F"/>
</radialGradient>
<radialGradient id="paint10_radial" cx="0" cy="0" r="1" gradientUnits="userSpaceOnUse" gradientTransform="translate(-96345 1486.42) scale(31074.5 4893.61)">
<stop stop-color="#9D00E2"/>
<stop offset="0.55" stop-color="#FF7948"/>
<stop offset="1" stop-color="#FFE79F"/>
</radialGradient>
<radialGradient id="paint11_radial" cx="0" cy="0" r="1" gradientUnits="userSpaceOnUse" gradientTransform="translate(-96345 1497.56) scale(31074.5 4893.61)">
<stop stop-color="#9D00E2"/>
<stop offset="0.55" stop-color="#FF7948"/>
<stop offset="1" stop-color="#FFE79F"/>
</radialGradient>
<radialGradient id="paint12_radial" cx="0" cy="0" r="1" gradientUnits="userSpaceOnUse" gradientTransform="translate(-96345 1508.04) scale(31074.8 4893.63)">
<stop stop-color="#9D00E2"/>
<stop offset="0.55" stop-color="#FF7948"/>
<stop offset="1" stop-color="#FFE79F"/>
</radialGradient>
<radialGradient id="paint13_radial" cx="0" cy="0" r="1" gradientUnits="userSpaceOnUse" gradientTransform="translate(-96345 1519.18) scale(31074.5 4893.58)">
<stop stop-color="#9D00E2"/>
<stop offset="0.55" stop-color="#FF7948"/>
<stop offset="1" stop-color="#FFE79F"/>
</radialGradient>
<radialGradient id="paint14_radial" cx="0" cy="0" r="1" gradientUnits="userSpaceOnUse" gradientTransform="translate(-96345 1529.68) scale(31074.5 4893.61)">
<stop stop-color="#9D00E2"/>
<stop offset="0.55" stop-color="#FF7948"/>
<stop offset="1" stop-color="#FFE79F"/>
</radialGradient>
<radialGradient id="paint15_radial" cx="0" cy="0" r="1" gradientUnits="userSpaceOnUse" gradientTransform="translate(-96345 1540.82) scale(31074.5 4893.61)">
<stop stop-color="#9D00E2"/>
<stop offset="0.55" stop-color="#FF7948"/>
<stop offset="1" stop-color="#FFE79F"/>
</radialGradient>
<radialGradient id="paint16_radial" cx="0" cy="0" r="1" gradientUnits="userSpaceOnUse" gradientTransform="translate(-96345 1551.3) scale(31074.5 4893.61)">
<stop stop-color="#9D00E2"/>
<stop offset="0.55" stop-color="#FF7948"/>
<stop offset="1" stop-color="#FFE79F"/>
</radialGradient>
<radialGradient id="paint17_radial" cx="0" cy="0" r="1" gradientUnits="userSpaceOnUse" gradientTransform="translate(-96345 1562.44) scale(31074.8 4893.66)">
<stop stop-color="#9D00E2"/>
<stop offset="0.55" stop-color="#FF7948"/>
<stop offset="1" stop-color="#FFE79F"/>
</radialGradient>
<radialGradient id="paint18_radial" cx="0" cy="0" r="1" gradientUnits="userSpaceOnUse" gradientTransform="translate(-149147 3569.49) scale(13230.8 3930.46)">
<stop stop-color="#5344B7"/>
<stop offset="0.05" stop-color="#3928B5"/>
<stop offset="1" stop-color="#0B1680"/>
</radialGradient>
<radialGradient id="paint19_radial" cx="0" cy="0" r="1" gradientUnits="userSpaceOnUse" gradientTransform="translate(-125364 52133.1) scale(24769.8 56696.4)">
<stop stop-color="#5344B7"/>
<stop offset="0.05" stop-color="#3928B5"/>
<stop offset="1" stop-color="#0B1680"/>
</radialGradient>
<radialGradient id="paint20_radial" cx="0" cy="0" r="1" gradientUnits="userSpaceOnUse" gradientTransform="translate(-39840.4 52133.1) scale(2208.87 56691.4)">
<stop stop-color="#5344B7"/>
<stop offset="0.05" stop-color="#3928B5"/>
<stop offset="1" stop-color="#0B1680"/>
</radialGradient>
<radialGradient id="paint21_radial" cx="0" cy="0" r="1" gradientUnits="userSpaceOnUse" gradientTransform="translate(-14471.9 2879.82) scale(2889.16 2895.52)">
<stop stop-color="#9D00E2"/>
<stop offset="0.55" stop-color="#FF7948"/>
<stop offset="1" stop-color="#FFE79F"/>
</radialGradient>
<radialGradient id="paint22_radial" cx="0" cy="0" r="1" gradientUnits="userSpaceOnUse" gradientTransform="translate(-14463 2879.82) scale(2889.14 2895.52)">
<stop stop-color="#9D00E2"/>
<stop offset="0.55" stop-color="#FF7948"/>
<stop offset="1" stop-color="#FFE79F"/>
</radialGradient>
<radialGradient id="paint23_radial" cx="0" cy="0" r="1" gradientUnits="userSpaceOnUse" gradientTransform="translate(-14453.8 2879.82) scale(2889.16 2895.52)">
<stop stop-color="#9D00E2"/>
<stop offset="0.55" stop-color="#FF7948"/>
<stop offset="1" stop-color="#FFE79F"/>
</radialGradient>
<radialGradient id="paint24_radial" cx="0" cy="0" r="1" gradientUnits="userSpaceOnUse" gradientTransform="translate(-14471.9 2888.86) scale(2889.16 2895.53)">
<stop stop-color="#9D00E2"/>
<stop offset="0.55" stop-color="#FF7948"/>
<stop offset="1" stop-color="#FFE79F"/>
</radialGradient>
<radialGradient id="paint25_radial" cx="0" cy="0" r="1" gradientUnits="userSpaceOnUse" gradientTransform="translate(-14463 2888.86) scale(2889.14 2895.53)">
<stop stop-color="#9D00E2"/>
<stop offset="0.55" stop-color="#FF7948"/>
<stop offset="1" stop-color="#FFE79F"/>
</radialGradient>
<radialGradient id="paint26_radial" cx="0" cy="0" r="1" gradientUnits="userSpaceOnUse" gradientTransform="translate(-14453.8 2888.86) scale(2889.16 2895.53)">
<stop stop-color="#9D00E2"/>
<stop offset="0.55" stop-color="#FF7948"/>
<stop offset="1" stop-color="#FFE79F"/>
</radialGradient>
<radialGradient id="paint27_radial" cx="0" cy="0" r="1" gradientUnits="userSpaceOnUse" gradientTransform="translate(-14471.9 2897.93) scale(2889.16 2895.53)">
<stop stop-color="#9D00E2"/>
<stop offset="0.55" stop-color="#FF7948"/>
<stop offset="1" stop-color="#FFE79F"/>
</radialGradient>
<radialGradient id="paint28_radial" cx="0" cy="0" r="1" gradientUnits="userSpaceOnUse" gradientTransform="translate(-14463 2897.93) scale(2889.14 2895.53)">
<stop stop-color="#9D00E2"/>
<stop offset="0.55" stop-color="#FF7948"/>
<stop offset="1" stop-color="#FFE79F"/>
</radialGradient>
<radialGradient id="paint29_radial" cx="0" cy="0" r="1" gradientUnits="userSpaceOnUse" gradientTransform="translate(-14453.8 2897.93) scale(2889.16 2895.53)">
<stop stop-color="#9D00E2"/>
<stop offset="0.55" stop-color="#FF7948"/>
<stop offset="1" stop-color="#FFE79F"/>
</radialGradient>
<radialGradient id="paint30_radial" cx="0" cy="0" r="1" gradientUnits="userSpaceOnUse" gradientTransform="translate(-14471.9 2906.95) scale(2889.16 2895.51)">
<stop stop-color="#9D00E2"/>
<stop offset="0.55" stop-color="#FF7948"/>
<stop offset="1" stop-color="#FFE79F"/>
</radialGradient>
<radialGradient id="paint31_radial" cx="0" cy="0" r="1" gradientUnits="userSpaceOnUse" gradientTransform="translate(-14463 2906.95) scale(2889.14 2895.51)">
<stop stop-color="#9D00E2"/>
<stop offset="0.55" stop-color="#FF7948"/>
<stop offset="1" stop-color="#FFE79F"/>
</radialGradient>
<radialGradient id="paint32_radial" cx="0" cy="0" r="1" gradientUnits="userSpaceOnUse" gradientTransform="translate(-14453.8 2906.95) scale(2889.16 2895.51)">
<stop stop-color="#9D00E2"/>
<stop offset="0.55" stop-color="#FF7948"/>
<stop offset="1" stop-color="#FFE79F"/>
</radialGradient>
<radialGradient id="paint33_radial" cx="0" cy="0" r="1" gradientUnits="userSpaceOnUse" gradientTransform="translate(-14471.9 2916.3) scale(2889.16 2895.52)">
<stop stop-color="#9D00E2"/>
<stop offset="0.55" stop-color="#FF7948"/>
<stop offset="1" stop-color="#FFE79F"/>
</radialGradient>
<radialGradient id="paint34_radial" cx="0" cy="0" r="1" gradientUnits="userSpaceOnUse" gradientTransform="translate(-14463 2916.3) scale(2889.14 2895.52)">
<stop stop-color="#9D00E2"/>
<stop offset="0.55" stop-color="#FF7948"/>
<stop offset="1" stop-color="#FFE79F"/>
</radialGradient>
<radialGradient id="paint35_radial" cx="0" cy="0" r="1" gradientUnits="userSpaceOnUse" gradientTransform="translate(-14453.8 2916.3) scale(2889.16 2895.52)">
<stop stop-color="#9D00E2"/>
<stop offset="0.55" stop-color="#FF7948"/>
<stop offset="1" stop-color="#FFE79F"/>
</radialGradient>
<radialGradient id="paint36_radial" cx="0" cy="0" r="1" gradientUnits="userSpaceOnUse" gradientTransform="translate(-14471.9 2925.34) scale(2889.16 2895.52)">
<stop stop-color="#9D00E2"/>
<stop offset="0.55" stop-color="#FF7948"/>
<stop offset="1" stop-color="#FFE79F"/>
</radialGradient>
<radialGradient id="paint37_radial" cx="0" cy="0" r="1" gradientUnits="userSpaceOnUse" gradientTransform="translate(-14463 2925.34) scale(2889.14 2895.52)">
<stop stop-color="#9D00E2"/>
<stop offset="0.55" stop-color="#FF7948"/>
<stop offset="1" stop-color="#FFE79F"/>
</radialGradient>
<radialGradient id="paint38_radial" cx="0" cy="0" r="1" gradientUnits="userSpaceOnUse" gradientTransform="translate(-14453.8 2925.34) scale(2889.16 2895.52)">
<stop stop-color="#9D00E2"/>
<stop offset="0.55" stop-color="#FF7948"/>
<stop offset="1" stop-color="#FFE79F"/>
</radialGradient>
<radialGradient id="paint39_radial" cx="0" cy="0" r="1" gradientUnits="userSpaceOnUse" gradientTransform="translate(-14471.9 2934.4) scale(2889.16 2895.52)">
<stop stop-color="#9D00E2"/>
<stop offset="0.55" stop-color="#FF7948"/>
<stop offset="1" stop-color="#FFE79F"/>
</radialGradient>
<radialGradient id="paint40_radial" cx="0" cy="0" r="1" gradientUnits="userSpaceOnUse" gradientTransform="translate(-14463 2934.4) scale(2889.14 2895.52)">
<stop stop-color="#9D00E2"/>
<stop offset="0.55" stop-color="#FF7948"/>
<stop offset="1" stop-color="#FFE79F"/>
</radialGradient>
<radialGradient id="paint41_radial" cx="0" cy="0" r="1" gradientUnits="userSpaceOnUse" gradientTransform="translate(-14453.8 2934.4) scale(2889.16 2895.52)">
<stop stop-color="#9D00E2"/>
<stop offset="0.55" stop-color="#FF7948"/>
<stop offset="1" stop-color="#FFE79F"/>
</radialGradient>
<radialGradient id="paint42_radial" cx="0" cy="0" r="1" gradientUnits="userSpaceOnUse" gradientTransform="translate(-14471.9 2943.44) scale(2889.16 2895.52)">
<stop stop-color="#9D00E2"/>
<stop offset="0.55" stop-color="#FF7948"/>
<stop offset="1" stop-color="#FFE79F"/>
</radialGradient>
<radialGradient id="paint43_radial" cx="0" cy="0" r="1" gradientUnits="userSpaceOnUse" gradientTransform="translate(-14463 2943.44) scale(2889.14 2895.52)">
<stop stop-color="#9D00E2"/>
<stop offset="0.55" stop-color="#FF7948"/>
<stop offset="1" stop-color="#FFE79F"/>
</radialGradient>
<radialGradient id="paint44_radial" cx="0" cy="0" r="1" gradientUnits="userSpaceOnUse" gradientTransform="translate(-14453.8 2943.44) scale(2889.16 2895.52)">
<stop stop-color="#9D00E2"/>
<stop offset="0.55" stop-color="#FF7948"/>
<stop offset="1" stop-color="#FFE79F"/>
</radialGradient>
<radialGradient id="paint45_radial" cx="0" cy="0" r="1" gradientUnits="userSpaceOnUse" gradientTransform="translate(-41392 11214.5) scale(4479.33 3721.7)">
<stop stop-color="#9D00E2"/>
<stop offset="0.55" stop-color="#FF7948"/>
<stop offset="1" stop-color="#FFE79F"/>
</radialGradient>
<radialGradient id="paint46_radial" cx="0" cy="0" r="1" gradientUnits="userSpaceOnUse" gradientTransform="translate(-14844.2 11148.4) scale(1592.9 3611.66)">
<stop stop-color="#9D00E2"/>
<stop offset="0.55" stop-color="#FF7948"/>
<stop offset="1" stop-color="#FFE79F"/>
</radialGradient>
<linearGradient id="paint47_linear" x1="399.302" y1="34.9401" x2="541.107" y2="318.957" gradientUnits="userSpaceOnUse">
<stop stop-color="#3EFFC0"/>
<stop offset="1" stop-color="#346AED"/>
</linearGradient>
<linearGradient id="paint48_linear" x1="482.263" y1="54.0768" x2="454.93" y2="54.0768" gradientUnits="userSpaceOnUse">
<stop stop-color="#FFC45C"/>
<stop offset="1" stop-color="#FF0055"/>
</linearGradient>
<linearGradient id="paint49_linear" x1="31202.9" y1="3729.56" x2="32713" y2="3729.56" gradientUnits="userSpaceOnUse">
<stop stop-color="#FFC45C"/>
<stop offset="1" stop-color="#FF0055"/>
</linearGradient>
<linearGradient id="paint50_linear" x1="5183.49" y1="847.281" x2="5216.29" y2="847.281" gradientUnits="userSpaceOnUse">
<stop stop-color="#FFC45C"/>
<stop offset="1" stop-color="#FF0055"/>
</linearGradient>
<linearGradient id="paint51_linear" x1="48592.5" y1="2294.26" x2="52295.6" y2="2294.26" gradientUnits="userSpaceOnUse">
<stop stop-color="#FFC45C"/>
<stop offset="1" stop-color="#FF0055"/>
</linearGradient>
<radialGradient id="paint52_radial" cx="0" cy="0" r="1" gradientUnits="userSpaceOnUse" gradientTransform="translate(103580 -28355.3) scale(160288 325992)">
<stop stop-color="#5344B7"/>
<stop offset="0.05" stop-color="#3928B5"/>
<stop offset="1" stop-color="#0B1680"/>
</radialGradient>
<radialGradient id="paint53_radial" cx="0" cy="0" r="1" gradientUnits="userSpaceOnUse" gradientTransform="translate(210.646 160.617) scale(54.9887 55.1101)">
<stop stop-color="#3E458C"/>
<stop offset="1" stop-color="#041A59"/>
</radialGradient>
<radialGradient id="paint54_radial" cx="0" cy="0" r="1" gradientUnits="userSpaceOnUse" gradientTransform="translate(-23813.6 9691.72) rotate(180) scale(1852.39 951.973)">
<stop stop-color="#3E458C"/>
<stop offset="1" stop-color="#041A59"/>
</radialGradient>
<radialGradient id="paint55_radial" cx="0" cy="0" r="1" gradientUnits="userSpaceOnUse" gradientTransform="translate(-21263.6 9567.3) rotate(180) scale(1852.7 951.973)">
<stop stop-color="#3E458C"/>
<stop offset="1" stop-color="#041A59"/>
</radialGradient>
<radialGradient id="paint56_radial" cx="0" cy="0" r="1" gradientUnits="userSpaceOnUse" gradientTransform="translate(-63833.9 73920.3) rotate(180) scale(19521.4 43442.2)">
<stop stop-color="#3E458C"/>
<stop offset="1" stop-color="#041A59"/>
</radialGradient>
<radialGradient id="paint57_radial" cx="0" cy="0" r="1" gradientUnits="userSpaceOnUse" gradientTransform="translate(54908.2 9299.35) scale(20396.1 11102.6)">
<stop stop-color="#3E458C"/>
<stop offset="1" stop-color="#041A59"/>
</radialGradient>
<radialGradient id="paint58_radial" cx="0" cy="0" r="1" gradientUnits="userSpaceOnUse" gradientTransform="translate(7143.44 19878.1) scale(12370.1 29349.2)">
<stop stop-color="#3E458C"/>
<stop offset="1" stop-color="#041A59"/>
</radialGradient>
<linearGradient id="paint59_linear" x1="91.4933" y1="178.625" x2="130.519" y2="208.114" gradientUnits="userSpaceOnUse">
<stop stop-color="#FFECC0"/>
<stop offset="0.54" stop-color="#FFA280"/>
<stop offset="1" stop-color="#EF62C9"/>
</linearGradient>
<linearGradient id="paint60_linear" x1="26241.3" y1="3824.01" x2="25687.3" y2="4062.63" gradientUnits="userSpaceOnUse">
<stop stop-color="#FD9A8A"/>
<stop offset="0.54" stop-color="#FFA280"/>
<stop offset="1" stop-color="#FE9C88"/>
</linearGradient>
<radialGradient id="paint61_radial" cx="0" cy="0" r="1" gradientUnits="userSpaceOnUse" gradientTransform="translate(216.035 80.8383) rotate(180) scale(195.904 196.336)">
<stop stop-color="#FFE3A6"/>
<stop offset="1" stop-color="#21DB89"/>
</radialGradient>
<linearGradient id="paint62_linear" x1="33571" y1="8807.98" x2="31160" y2="7517.02" gradientUnits="userSpaceOnUse">
<stop stop-color="#FFA182"/>
<stop offset="0.54" stop-color="#FFA280"/>
<stop offset="1" stop-color="#FD988C"/>
</linearGradient>
<radialGradient id="paint63_radial" cx="0" cy="0" r="1" gradientUnits="userSpaceOnUse" gradientTransform="translate(-15803.3 2517.5) rotate(180) scale(3619.59 4682.62)">
<stop stop-color="#3E458C"/>
<stop offset="1" stop-color="#041A59"/>
</radialGradient>
<radialGradient id="paint64_radial" cx="0" cy="0" r="1" gradientUnits="userSpaceOnUse" gradientTransform="translate(11200.2 1632.23) scale(3794.96 2402.49)">
<stop stop-color="#FFE3A6"/>
<stop offset="1" stop-color="#21DB89"/>
</radialGradient>
<radialGradient id="paint65_radial" cx="0" cy="0" r="1" gradientUnits="userSpaceOnUse" gradientTransform="translate(4218.32 1628.28) scale(746.093 1240.44)">
<stop stop-color="#FFE3A6"/>
<stop offset="1" stop-color="#21DB89"/>
</radialGradient>
<radialGradient id="paint66_radial" cx="0" cy="0" r="1" gradientUnits="userSpaceOnUse" gradientTransform="translate(14509 18101.6) scale(20188.6 62964.4)">
<stop stop-color="#3E458C"/>
<stop offset="1" stop-color="#041A59"/>
</radialGradient>
<radialGradient id="paint67_radial" cx="0" cy="0" r="1" gradientUnits="userSpaceOnUse" gradientTransform="translate(11511.7 17130.1) scale(12834 55711)">
<stop stop-color="#3E458C"/>
<stop offset="1" stop-color="#041A59"/>
</radialGradient>
<radialGradient id="paint68_radial" cx="0" cy="0" r="1" gradientUnits="userSpaceOnUse" gradientTransform="translate(60010.6 40051.3) scale(35176.8 51654)">
<stop stop-color="#C7AA40"/>
<stop offset="1" stop-color="#FFC909"/>
</radialGradient>
<linearGradient id="paint69_linear" x1="-39490.9" y1="236474" x2="-39105.6" y2="249290" gradientUnits="userSpaceOnUse">
<stop stop-color="#3EFFC0"/>
<stop offset="1" stop-color="#346AED"/>
</linearGradient>
<radialGradient id="paint70_radial" cx="0" cy="0" r="1" gradientUnits="userSpaceOnUse" gradientTransform="translate(441.3 161.846) scale(359.935 295.799)">
<stop stop-color="#5344B7"/>
<stop offset="0.05" stop-color="#2F1DB5"/>
<stop offset="1" stop-color="#0B1680"/>
</radialGradient>
<radialGradient id="paint71_radial" cx="0" cy="0" r="1" gradientUnits="userSpaceOnUse" gradientTransform="translate(340.365 123.007) scale(325.204 267.256)">
<stop stop-color="#CC9AE2"/>
<stop offset="0.55" stop-color="#42EBE5"/>
<stop offset="1" stop-color="#FFE79F"/>
</radialGradient>
<radialGradient id="paint72_radial" cx="0" cy="0" r="1" gradientUnits="userSpaceOnUse" gradientTransform="translate(15860.5 1433.99) scale(6057.77 3696.29)">
<stop stop-color="#CC9AE2"/>
<stop offset="0.55" stop-color="#42EBE5"/>
<stop offset="1" stop-color="#FFE79F"/>
</radialGradient>
<linearGradient id="paint73_linear" x1="27184.6" y1="3235.57" x2="28096.8" y2="-1285.72" gradientUnits="userSpaceOnUse">
<stop stop-color="#FAF6FF"/>
<stop offset="0.99" stop-color="white"/>
</linearGradient>
<linearGradient id="paint74_linear" x1="38023.1" y1="1224.27" x2="38251.6" y2="92.5288" gradientUnits="userSpaceOnUse">
<stop stop-color="#FAF6FF"/>
<stop offset="0.99" stop-color="white"/>
</linearGradient>
<linearGradient id="paint75_linear" x1="1844.02" y1="8699.21" x2="2339.32" y2="6246.45" gradientUnits="userSpaceOnUse">
<stop stop-color="#FAF6FF"/>
<stop offset="0.99" stop-color="white"/>
</linearGradient>
<clipPath id="clip0">
<rect width="689" height="323" fill="white"/>
</clipPath>
</defs>
</svg>
