<svg width="50" height="50" viewBox="0 0 50 50" fill="none" xmlns="http://www.w3.org/2000/svg">
<path d="M37.49 27.3046V18.8845C42.3884 18.5362 46.2673 14.4399 46.2673 9.45457C46.2673 4.24132 42.026 0 36.8128 0C31.5995 0 27.3582 4.24132 27.3582 9.45457C27.3582 10.525 27.5373 11.5542 27.8666 12.5144L21.8289 16.29C19.6108 13.356 16.0933 11.4564 12.1401 11.4564C5.44614 11.4564 0 16.9025 0 23.5967C0 30.2909 5.44614 35.737 12.1402 35.737C16.0659 35.737 19.5616 33.8635 21.7822 30.9644L27.6006 34.6029C27.442 35.2882 27.3582 36.0019 27.3582 36.7347C27.3582 41.948 31.5995 46.1893 36.8128 46.1893C42.026 46.1893 46.2673 41.948 46.2673 36.7347C46.2673 31.7492 42.3884 27.6531 37.49 27.3046ZM41.2855 16.2041C40.003 17.0568 38.465 17.5545 36.8128 17.5545C35.1605 17.5545 33.6226 17.0568 32.34 16.2041V16.0959C32.34 13.6296 34.3465 11.6231 36.8128 11.6231C39.279 11.6231 41.2855 13.6296 41.2855 16.0959V16.2041ZM34.2949 10.8413C33.5227 11.2128 32.8447 11.7497 32.3065 12.4058C31.7325 11.5332 31.4219 10.5117 31.4219 9.45457C31.4219 8.28055 31.7998 7.19358 32.4394 6.30744C32.3849 6.58539 32.3557 6.87237 32.3557 7.16613C32.3557 8.69007 33.1249 10.0372 34.2949 10.8413ZM33.7102 7.16613C33.7102 5.45544 35.1021 4.06361 36.8128 4.06361C38.5234 4.06361 39.9153 5.45544 39.9153 7.16613C39.9153 8.87691 38.5234 10.2686 36.8128 10.2686C35.1021 10.2686 33.7102 8.87691 33.7102 7.16613ZM39.3306 10.8413C40.5006 10.0372 41.2698 8.69007 41.2698 7.16613C41.2698 6.87255 41.2407 6.58566 41.1863 6.3078C41.8259 7.19385 42.2037 8.28064 42.2037 9.45457C42.2037 10.5117 41.8933 11.5335 41.3195 12.4062C40.7813 11.7501 40.103 11.213 39.3306 10.8413ZM36.8128 1.35453C41.2791 1.35453 44.9128 4.98821 44.9128 9.45457C44.9128 11.6748 44.0146 13.6891 42.5629 15.1537C42.476 14.6219 42.3169 14.1144 42.096 13.641C43.0412 12.4509 43.5583 10.9824 43.5583 9.45457C43.5583 5.73511 40.5323 2.70907 36.8128 2.70907C33.0934 2.70907 30.0673 5.73511 30.0673 9.45457C30.0673 10.9824 30.5845 12.4509 31.5297 13.641C31.3088 14.1144 31.1497 14.622 31.0628 15.1537C29.611 13.6891 28.7129 11.6748 28.7129 9.45457C28.7127 4.98821 32.3464 1.35453 36.8128 1.35453ZM17.0847 33.1803C15.6027 33.9481 13.9213 34.3823 12.1402 34.3823C10.3514 34.3823 8.66325 33.9441 7.17651 33.1701V30.8878C7.17651 30.4566 7.36678 30.0513 7.69855 29.7757L10.2428 27.6628C10.6648 28.2506 11.3535 28.6346 12.1307 28.6346C12.9078 28.6346 13.5965 28.2506 14.0185 27.6628L16.5627 29.7756C16.8945 30.0512 17.0847 30.4565 17.0847 30.8877V33.1803ZM15.2923 19.9018V21.6617C15.2923 23.3998 13.8783 24.8139 12.1402 24.8139C10.4022 24.8139 8.98816 23.3998 8.98816 21.6617V19.9018H15.2923ZM8.98816 18.5473V15.993L9.84982 16.2761C9.91812 16.2986 9.98942 16.3099 10.0612 16.3099H14.418C14.9002 16.3099 15.2924 16.7022 15.2924 17.1843V18.5473H8.98816ZM13.0992 26.0646V26.3115C13.0992 26.8456 12.6647 27.2801 12.1306 27.2801C11.5964 27.2801 11.162 26.8456 11.162 26.3115V26.0602C11.4771 26.1302 11.8042 26.1683 12.1402 26.1683C12.4694 26.1683 12.79 26.1319 13.0992 26.0646ZM18.4392 32.3465V30.8879C18.4392 30.7984 18.4341 30.7096 18.4257 30.6215C20.4292 28.8286 21.5713 26.2902 21.5713 23.5967C21.5713 23.4224 21.5653 23.2406 21.5522 23.0243C21.5296 22.651 21.2094 22.3662 20.8354 22.3891C20.4621 22.4117 20.1776 22.7326 20.2002 23.1059C20.2116 23.2943 20.2169 23.4502 20.2169 23.5967C20.2169 25.7248 19.3838 27.7404 17.9067 29.2458C17.7705 29.0581 17.6108 28.8854 17.4281 28.7337L14.4538 26.2637V25.5274C15.7664 24.7388 16.647 23.3012 16.647 21.6616V19.2244V17.1843C16.647 15.9553 15.647 14.9554 14.418 14.9554H10.1697L8.92134 14.5452C8.62334 14.4473 8.29356 14.4986 8.03953 14.6826C7.78542 14.8666 7.63363 15.1637 7.63363 15.4775V19.2245V21.6617C7.63363 23.2935 8.50532 24.7254 9.80752 25.5164V26.2638L6.83319 28.7337C6.6543 28.8823 6.49753 29.051 6.36316 29.2341C4.89358 27.7295 4.06361 25.715 4.06361 23.5967C4.06361 21.5804 4.81411 19.6481 6.17687 18.1559C6.42908 17.8797 6.40967 17.4513 6.13352 17.199C5.85738 16.9468 5.42898 16.9662 5.17668 17.2424C3.58546 18.985 2.70907 21.2415 2.70907 23.5967C2.70907 26.2768 3.84544 28.8142 5.8367 30.606C5.82731 30.6992 5.82198 30.7932 5.82198 30.8879V32.3324C3.11724 30.3707 1.35454 27.1859 1.35454 23.5967C1.35454 17.6494 6.19303 12.811 12.1402 12.811C18.0875 12.811 22.926 17.6495 22.926 23.5967C22.926 27.1944 21.1549 30.3859 18.4392 32.3465ZM22.5457 29.8443C23.6464 28.0179 24.2805 25.88 24.2805 23.5967C24.2805 21.3407 23.6612 19.2268 22.5847 17.415L28.4049 13.7754C29.8788 16.6319 32.7659 18.6449 36.1356 18.8846V27.3047C32.4398 27.5676 29.3243 29.9637 28.0174 33.2659L22.5457 29.8443ZM34.2949 38.1215C33.5225 38.4931 32.8443 39.0303 32.3061 39.6864C31.7323 38.8137 31.4219 37.7919 31.4219 36.7346C31.4219 35.5611 31.7994 34.4746 32.4387 33.5888C32.3843 33.8663 32.3558 34.153 32.3558 34.4463C32.3557 35.9702 33.1249 37.3173 34.2949 38.1215ZM33.7102 34.4463C33.7102 32.7356 35.1021 31.3437 36.8128 31.3437C38.5234 31.3437 39.9153 32.7356 39.9153 34.4463C39.9153 36.1571 38.5234 37.5488 36.8128 37.5488C35.1021 37.5488 33.7102 36.1571 33.7102 34.4463ZM41.2855 43.4843C40.003 44.337 38.465 44.8347 36.8128 44.8347C35.1605 44.8347 33.6226 44.337 32.34 43.4843V43.3761C32.34 40.9098 34.3465 38.9033 36.8128 38.9033C39.279 38.9033 41.2855 40.9098 41.2855 43.3761V43.4843ZM42.5628 42.4339C42.476 41.9025 42.317 41.3955 42.0964 40.9224C42.7299 40.1238 43.1768 39.1896 43.3974 38.1941C43.4783 37.8289 43.248 37.4673 42.8827 37.3863C42.5181 37.3056 42.1559 37.5358 42.0749 37.9011C41.9338 38.5377 41.6762 39.1428 41.3194 39.6864C40.7812 39.0302 40.103 38.4931 39.3306 38.1215C40.5006 37.3173 41.2698 35.9702 41.2698 34.4463C41.2698 34.1528 41.2407 33.866 41.1863 33.5883C41.5597 34.1058 41.8461 34.6946 42.0189 35.3373C42.116 35.6985 42.4878 35.9124 42.8487 35.8156C43.2099 35.7185 43.4241 35.347 43.327 34.9858C42.5364 32.044 39.8577 29.9893 36.8128 29.9893C33.0933 29.9893 30.0673 33.0153 30.0673 36.7348C30.0673 38.2627 30.5844 39.7311 31.5296 40.9213C31.3087 41.3947 31.1496 41.9023 31.0627 42.434C29.611 40.9694 28.7128 38.9551 28.7128 36.7348C28.7128 32.2684 32.3465 28.6348 36.8128 28.6348C41.2792 28.6348 44.9129 32.2684 44.9129 36.7348C44.9128 38.955 44.0146 40.9692 42.5628 42.4339Z" fill="url(#paint0_linear)"/>
<defs>
<linearGradient id="paint0_linear" x1="-1.92781" y1="-5.38876" x2="46.1678" y2="55.1214" gradientUnits="userSpaceOnUse">
<stop stop-color="#FFCC01"/>
<stop offset="1" stop-color="#FF9901"/>
</linearGradient>
</defs>
</svg>
