<svg width="50" height="50" viewBox="0 0 50 50" fill="none" xmlns="http://www.w3.org/2000/svg">
<path d="M23.0004 14.8079C22.7916 15.1512 22.3467 15.2583 22.0034 15.0496C21.6629 14.8409 21.553 14.3959 21.7617 14.0554C21.8249 13.9511 22.1077 13.4952 22.3878 13.0421C22.7888 12.394 23.2337 11.721 23.5962 11.0565C23.7144 10.8423 23.8709 10.5539 24.0741 10.3232V2.44411C21.8413 4.46536 16.8128 8.39538 10.4276 9.50211C10.2354 10.8176 9.84002 14.6102 10.7407 19.2486H16.0713C15.7967 18.9274 15.5111 18.6032 15.2117 18.2709C14.7943 17.8068 14.6762 17.4553 14.797 17.1476C15.0002 16.6396 15.5111 16.5325 15.9889 16.4336L19.7184 15.5411C20.1084 15.4477 20.501 15.6839 20.5944 16.0738C20.6905 16.4611 20.4543 16.8538 20.0644 16.9499C19.7815 17.0186 19.4959 17.09 19.213 17.1614C18.3809 17.3674 17.5515 17.5761 16.7001 17.7629C17.6448 18.8394 18.5538 20.0203 19.5205 21.0639C19.9215 21.4979 20.2346 21.8383 20.1686 22.6348L19.7924 27.298C20.6904 26.8971 21.6407 26.5318 22.5524 26.1556L23.5246 25.7574C23.6015 25.7245 23.7059 25.6778 23.802 25.6339C24.3897 25.3619 24.7687 25.1862 25.5981 25.5405C26.216 25.8069 26.9136 26.0897 27.6084 26.3727C28.3335 26.6692 29.0585 26.9631 29.822 27.2953C29.7561 26.551 29.6957 25.7189 29.6352 24.8869C29.5885 24.2717 29.5556 23.64 29.4842 23.0277C29.4045 22.3768 29.3524 21.9236 29.9456 21.2371C30.9453 20.0837 31.9174 18.9 32.9254 17.7576C31.4506 17.4609 29.9841 16.9996 28.4955 16.703C27.9133 16.5848 27.6415 16.5326 27.2487 15.8571C26.8588 15.187 26.4358 14.506 26.0102 13.8276C25.6092 13.1822 25.2055 12.5396 24.8099 11.8612C24.8099 11.8585 23.7499 13.5914 23.6181 13.8029C23.4837 14.0226 23.3491 14.2395 23.0004 14.8079ZM11.0622 20.7015C11.9602 24.3349 13.696 28.3583 16.9228 32.0602C17.1865 32.3596 17.1563 32.8182 16.8542 33.0819C16.5521 33.3455 16.0962 33.3126 15.8326 33.0132C15.352 32.4612 14.9016 31.9009 14.4842 31.338C14.2782 31.305 14.0722 31.2803 13.8662 31.2637C13.6026 31.239 13.3169 31.2281 13.0039 31.2281C11.4193 31.2281 9.93902 31.6235 8.64282 32.3128C7.26682 33.0433 6.09692 34.1007 5.22632 35.3585C5.09728 35.548 5.09457 35.4986 5.2208 35.6744C6.11882 36.935 7.29982 38.0033 8.68672 38.7393C9.97192 39.4204 11.4329 39.8158 13.0038 39.8158C14.4703 39.8158 15.849 39.4835 17.0738 38.8931C18.1312 38.3795 19.0759 37.6764 19.8641 36.8334C19.2763 36.372 18.7217 35.8996 18.1943 35.4218C17.8977 35.1498 17.8758 34.6912 18.1449 34.3974C18.414 34.1009 18.8726 34.0789 19.1693 34.348C20.0371 35.1362 20.9544 35.8722 21.9101 36.5533C22.5912 37.0394 23.3108 37.5117 24.0742 37.9677V27.0977L20.2431 28.6851C19.8641 28.8636 19.2598 29.1465 18.826 28.9624C18.1449 28.6714 18.263 27.8282 18.329 27.3614L18.7162 22.6047C18.7244 22.3713 18.6145 22.2148 18.458 22.0445C18.0598 21.6134 17.6836 21.1519 17.3046 20.7016H11.0622V20.7015ZM9.46652 20.199C9.45282 20.1524 9.44182 20.1056 9.43632 20.0535C9.12052 18.5704 8.93372 17.1643 8.83222 15.8763C8.15652 15.393 7.42062 15.003 6.64612 14.7146C5.80032 14.396 4.90779 14.1984 4.00702 14.1242C3.77897 14.105 3.81743 14.0747 3.72685 14.2752C3.0925 15.6649 2.76012 17.2 2.8041 18.7462C2.84256 20.0507 3.15014 21.3634 3.77355 22.6047C4.55351 22.4618 5.35265 22.4015 6.15182 22.429C7.57442 22.4785 9.00522 22.8107 10.3647 23.4534C9.99112 22.3438 9.69732 21.2536 9.46652 20.199ZM33.5517 19.2487H38.8602C39.761 14.6129 39.3656 10.8231 39.1734 9.5022C38.0968 9.31542 37.0587 9.04901 36.0646 8.72505C34.9111 8.34878 33.8208 7.89559 32.8075 7.40132C32.4477 7.22559 32.2993 6.79158 32.4725 6.43187C32.6482 6.07207 33.0849 5.92104 33.4447 6.09677C33.8237 6.28074 34.2137 6.45929 34.6118 6.6296C34.9771 5.84954 35.4384 5.11909 35.974 4.44899C36.6578 3.59211 37.4652 2.84238 38.3577 2.22721C38.7312 1.96631 39.0526 1.85646 39.3931 1.8674C39.7391 1.87835 40.022 2.00749 40.3351 2.23263C41.7796 3.25972 42.999 4.61087 43.8394 6.19549C44.6304 7.68391 45.089 9.37578 45.089 11.1965C45.089 11.7073 45.0532 12.2208 44.9818 12.7289C45.1466 12.7069 45.3141 12.6904 45.4816 12.6767C45.9348 12.6383 46.267 12.7042 46.5582 12.8854C46.852 13.0667 47.0305 13.322 47.1899 13.6736C47.9149 15.261 48.2966 17.0159 48.2445 18.7872C48.2033 20.1988 47.8902 21.6187 47.2641 22.9699C47.72 23.1181 48.1676 23.294 48.6015 23.5C49.0135 23.6949 49.2716 23.9201 49.4336 24.2222C49.5956 24.527 49.6231 24.8346 49.5874 25.2163C49.4172 26.9823 48.8569 28.7124 47.9066 30.2339C47.1185 31.4945 46.0611 32.6121 44.7401 33.4828C45.0368 33.8178 45.3113 34.1693 45.564 34.5374C45.8249 34.9107 45.9347 35.2322 45.9238 35.5754C45.9128 35.9215 45.7837 36.2016 45.5584 36.5146C44.5313 37.9593 43.1801 39.1786 41.5955 40.0217C40.107 40.8099 38.4153 41.2685 36.5945 41.2685C34.9082 41.2685 33.3154 40.8813 31.8983 40.1974C30.6267 39.585 29.5007 38.7337 28.5698 37.7065C27.5343 38.4479 26.4111 39.1593 25.1945 39.8321C24.9584 39.9859 24.648 39.9886 24.4118 39.8348C23.2447 39.1894 22.1159 38.4809 21.0311 37.7064C20.1002 38.7308 18.9742 39.5849 17.7026 40.1973C16.2855 40.8812 14.6927 41.2684 13.0037 41.2684C11.1856 41.2684 9.49392 40.8098 8.00542 40.0216C6.42082 39.1785 5.06957 37.9592 4.03977 36.5146C3.81734 36.2015 3.6882 35.9214 3.67725 35.5753C3.66631 35.2321 3.77616 34.9107 4.03434 34.5373C4.28971 34.1692 4.56436 33.8177 4.861 33.4827C3.54007 32.612 2.48266 31.4944 1.69447 30.2338C0.74429 28.7125 0.18405 26.9823 0.0138396 25.2164C-0.0219104 24.8348 0.00559954 24.5272 0.16758 24.2223C0.32966 23.9202 0.587739 23.695 0.999659 23.5001C1.43358 23.2941 1.88125 23.1183 2.33715 22.9699C1.71103 21.6188 1.39792 20.1989 1.35675 18.7873C1.30453 17.016 1.68623 15.2611 2.41136 13.6737C2.57072 13.3221 2.74917 13.0668 3.04028 12.8855C3.3314 12.7042 3.6664 12.6383 4.11959 12.6768C4.2871 12.6906 4.4546 12.7071 4.61938 12.729C4.54799 12.2209 4.51224 11.7074 4.51224 11.1965C4.51224 9.37588 4.97086 7.68401 5.75912 6.19559C6.60222 4.61097 7.82152 3.25972 9.26622 2.23273C9.57922 2.00758 9.86222 1.87845 10.2082 1.8675C10.5487 1.85655 10.8701 1.96641 11.2435 2.2273C12.1361 2.84247 12.9435 3.59221 13.6273 4.44909C14.1628 5.11919 14.6243 5.85245 14.9922 6.63241C20.298 4.37769 23.871 0.659254 24.2362 0.269125C24.3708 0.104337 24.574 0 24.7993 0C25.0272 0 25.2305 0.104337 25.3623 0.266413C25.6177 0.538344 27.5594 2.5623 30.6462 4.52872C30.984 4.74291 31.0828 5.19058 30.8658 5.5283C30.6516 5.86611 30.204 5.96502 29.869 5.74811C27.9795 4.54519 26.491 3.31756 25.527 2.4415V10.2905C25.733 10.5129 25.8813 10.7958 25.9885 10.9989C26.7162 12.3722 27.6857 13.7206 28.4767 15.0855C28.5618 15.2311 28.8062 15.2832 28.9628 15.3162L33.3239 16.357C33.8731 16.4613 34.6751 16.6647 34.7932 17.2551C34.9003 17.7879 34.4307 18.274 34.1478 18.5678C33.9416 18.7818 33.7439 19.0208 33.5517 19.2487ZM38.539 20.7015H32.3186C31.8956 21.1959 31.47 21.6929 31.0416 22.1846C30.8685 22.385 30.8904 22.58 30.9262 22.8574L31.2915 27.4025C31.3409 27.7897 31.4261 28.446 31.157 28.7702C30.7066 29.3221 29.9596 28.9596 29.5779 28.7729L25.527 27.0866V37.9648C33.6395 33.0984 37.1246 26.4194 38.539 20.7015ZM43.4577 13.0283C43.5071 12.784 43.5455 12.5367 43.5757 12.2841C43.6142 11.9325 43.6362 11.57 43.6362 11.1965C43.6362 9.62294 43.2407 8.16191 42.5569 6.87654C41.8209 5.49245 40.7554 4.30871 39.4948 3.41347C39.3163 3.28433 39.3685 3.28714 39.179 3.41899C38.399 3.95734 37.696 4.61087 37.1028 5.35237C36.6634 5.90166 36.279 6.5087 35.9658 7.15942C36.1471 7.22258 36.3312 7.28575 36.5123 7.3462C37.6219 7.706 38.7561 7.98065 39.9095 8.15096C40.2061 8.19213 40.4587 8.4228 40.5165 8.73319C40.5192 8.75237 40.9394 10.8752 40.8625 14.0995C41.3706 13.8084 41.9005 13.5611 42.4444 13.3552C42.7765 13.2316 43.1143 13.1217 43.4577 13.0283ZM13.6354 7.15952C13.3223 6.5087 12.9379 5.90176 12.4985 5.35247C11.9053 4.61097 11.2023 3.95743 10.4223 3.41909C10.2328 3.28733 10.2822 3.28443 10.1065 3.41356C8.84592 4.30881 7.78042 5.49255 7.04442 6.87664C6.36052 8.162 5.96512 9.62304 5.96512 11.1965C5.96512 11.8118 6.02272 12.4242 6.14352 13.0283C6.48422 13.1217 6.82472 13.2316 7.15702 13.3552C7.70072 13.5611 8.23082 13.8084 8.74162 14.0995C8.66752 11.1087 9.02172 9.06548 9.07662 8.77165C9.12062 8.45864 9.36502 8.19765 9.69182 8.15106C11.0758 7.94781 12.3942 7.59895 13.6354 7.15952ZM45.8277 22.6047C46.4511 21.3634 46.7587 20.0507 46.7971 18.7462C46.8411 17.2 46.5087 15.6648 45.8744 14.2752C45.7837 14.0748 45.8221 14.105 45.5942 14.1242C44.6934 14.1984 43.8009 14.396 42.9551 14.7146C42.1833 15.003 41.4474 15.3903 40.7717 15.8736C40.596 18.1147 40.1648 20.7207 39.2449 23.4507C40.6042 22.808 42.0296 22.4785 43.4467 22.429C44.2486 22.4015 45.0477 22.4618 45.8277 22.6047ZM43.6855 32.4365C44.9461 31.6621 45.9429 30.6377 46.6735 29.4677C47.5057 28.1357 47.9972 26.6225 48.1455 25.0819C48.1648 24.8622 48.1895 24.9088 47.9836 24.8127C46.594 24.1537 45.0533 23.8214 43.4989 23.8762C42.0296 23.9284 40.5494 24.3267 39.1762 25.1176C38.9125 25.2715 38.6791 25.4335 38.4264 25.601C37.8333 26.9906 37.1054 28.394 36.2101 29.7808C38.094 29.7094 39.9753 30.1461 41.6396 31.0303C42.3755 31.4204 43.0621 31.8927 43.6855 32.4365ZM11.1858 25.6093C11.0567 25.5268 10.9304 25.4307 10.7959 25.3456C9.38702 24.4447 7.78042 23.9367 6.10252 23.8762C4.54808 23.8214 3.00735 24.1537 1.61774 24.8127C1.41178 24.9088 1.43648 24.8622 1.45576 25.0819C1.60408 26.6225 2.09292 28.1357 2.92781 29.4677C3.65836 30.6376 4.65523 31.662 5.91582 32.4365C6.53922 31.8927 7.22582 31.4204 7.96182 31.0303C9.46132 30.2312 11.1722 29.7753 13.004 29.7753C13.1358 29.7753 13.2676 29.778 13.4022 29.7808C12.5094 28.3967 11.779 26.9961 11.1858 25.6093ZM29.7343 36.8334C30.5225 37.6764 31.47 38.3795 32.5274 38.8931C33.7522 39.4835 35.1309 39.8158 36.5946 39.8158C38.1683 39.8158 39.6293 39.4204 40.9145 38.7393C42.2987 38.0033 43.4824 36.935 44.3777 35.6744C44.5067 35.4987 44.504 35.548 44.3722 35.3585C43.5016 34.1008 42.3344 33.0433 40.9585 32.3128C39.6623 31.6235 38.182 31.2281 36.5947 31.2281C36.1003 31.2281 35.617 31.261 35.1282 31.338C33.6972 33.2521 31.9259 35.1115 29.7343 36.8334Z" fill="#F84837"/>
</svg>
