<svg width="50" height="50" viewBox="0 0 50 50" fill="none" xmlns="http://www.w3.org/2000/svg">
<g filter="url(#filter0_d)">
<path d="M35.6093 35.5959V35.3112C35.6096 33.8777 34.4434 32.7115 33.01 32.7115H28.7369V20.0036C30.3512 19.6834 31.5723 18.2568 31.5723 16.5499C31.5723 14.8428 30.3512 13.4162 28.7369 13.0961V0.685982C28.7369 0.307176 28.4298 0 28.0509 0C27.9783 0 27.9056 0.000811991 27.833 0.00171399L27.8217 0.001894C25.1375 0.039964 22.4907 0.773582 20.1676 2.12344C17.9165 3.43153 16.0007 5.29398 14.6275 7.50953C14.4279 7.83159 14.5271 8.25442 14.8492 8.45398C15.1711 8.65362 15.5941 8.55429 15.7936 8.23232C18.3281 4.14349 22.6277 1.61049 27.3649 1.3882V13.0962C25.7505 13.4164 24.5295 14.843 24.5295 16.5499C24.5295 18.257 25.7505 19.6836 27.3649 20.0037V32.7116H23.6405C23.1672 32.7092 22.7226 32.5243 22.3878 32.1895C22.0508 31.8526 21.8652 31.4044 21.8652 30.9276C21.8652 29.6889 21.2509 28.5507 20.2216 27.8825C16.0908 25.204 13.6307 20.6698 13.6408 15.7534C13.6446 13.8569 14.0164 12.0106 14.746 10.2659C14.8921 9.91644 14.7273 9.51454 14.3777 9.36838C14.0284 9.22223 13.6264 9.38714 13.4802 9.73664C12.6804 11.6489 12.2729 13.6723 12.2686 15.7505C12.2575 21.1349 14.9516 26.1005 19.4748 29.0335C20.1125 29.4474 20.4931 30.1555 20.4931 30.9276C20.4931 31.7709 20.8214 32.5635 21.4174 33.1597C21.4483 33.1905 21.4798 33.2201 21.5117 33.2495C20.8928 33.7251 20.4929 34.4721 20.4929 35.3112V35.5958C20.4929 36.3522 20.8178 37.0339 21.3351 37.5093C20.8179 37.9848 20.4929 38.6665 20.4929 39.4228V39.7074C20.4929 41.1407 21.6591 42.3069 23.0924 42.3069H23.5344C23.8663 44.5016 25.7652 46.1892 28.051 46.1892C30.3367 46.1892 32.2357 44.5015 32.5676 42.3069H33.0096C34.443 42.3069 35.6091 41.1407 35.6091 39.7074V39.4228C35.6091 38.6664 35.2843 37.9847 34.7669 37.5093C35.2845 37.034 35.6093 36.3522 35.6093 35.5959ZM28.737 14.5134C29.5867 14.8004 30.2004 15.6045 30.2004 16.5499C30.2004 17.4952 29.5867 18.2994 28.737 18.5864V14.5134ZM27.365 18.5862C26.5153 18.2994 25.9016 17.4952 25.9016 16.5498C25.9016 15.6043 26.5153 14.8003 27.365 14.5132V18.5862ZM28.0514 44.8172C26.5245 44.8172 25.2449 43.7406 24.9301 42.3069H31.1728C30.8579 43.7406 29.5785 44.8172 28.0514 44.8172ZM34.2377 35.5957C34.2377 36.2726 33.6871 36.8232 33.0101 36.8232H31.3933C31.0144 36.8232 30.7073 37.1304 30.7073 37.5092C30.7073 37.888 31.0144 38.1952 31.3933 38.1952H33.0101C33.687 38.1952 34.2377 38.7458 34.2377 39.4227V39.7073C34.2377 40.3842 33.6871 40.9349 33.0101 40.9349H23.0928C22.4159 40.9349 21.8652 40.3842 21.8652 39.7073V39.4227C21.8652 38.7458 22.4159 38.1952 23.0928 38.1952H29.1065C29.4854 38.1952 29.7925 37.888 29.7925 37.5092C29.7925 37.1304 29.4854 36.8232 29.1065 36.8232H23.0928C22.4159 36.8232 21.8652 36.2726 21.8652 35.5957V35.3111C21.8652 34.6342 22.4159 34.0835 23.0928 34.0835H23.6314C23.6376 34.0835 23.6437 34.084 23.6498 34.084H28.0511C28.054 34.084 28.0569 34.0836 28.0599 34.0835H33.0101C33.687 34.0835 34.2377 34.6342 34.2377 35.3111V35.5957Z" fill="#27BF74"/>
<path d="M43.2571 12.6218L39.5397 11.9533C39.1004 10.8562 38.5087 9.83294 37.7752 8.90246L39.0561 5.34436C39.1685 5.03195 39.0412 4.68391 38.7536 4.51792L33.1186 1.26456C32.8309 1.09847 32.4657 1.16234 32.2515 1.41602L29.5633 4.59884C29.319 4.88833 29.3554 5.321 29.6449 5.56556C29.9343 5.80995 30.3671 5.77351 30.6114 5.4841L32.9294 2.73954L37.5709 5.41924L36.3529 8.80251C36.2701 9.03264 36.316 9.28939 36.4733 9.47654C37.3061 10.4665 37.9517 11.5828 38.3923 12.7943C38.4758 13.0239 38.6751 13.1918 38.9155 13.235L42.4495 13.8707V19.2294L38.9153 19.8658C38.675 19.9092 38.4756 20.077 38.3922 20.3065C37.9521 21.5164 37.3064 22.6329 36.4731 23.6246C36.3157 23.8116 36.2699 24.0684 36.3528 24.2983L37.5707 27.6806L32.9292 30.3603L30.6114 27.6164C30.3669 27.327 29.9341 27.2906 29.6447 27.5351C29.3553 27.7796 29.3189 28.2124 29.5633 28.5018L32.2514 31.6838C32.3858 31.8428 32.5793 31.9272 32.7758 31.9272C32.8929 31.9272 33.011 31.8972 33.1184 31.8353L38.7535 28.5819C39.0411 28.4159 39.1684 28.0678 39.056 27.7555L37.775 24.1982C38.5088 23.2665 39.1007 22.2434 39.5396 21.1474L43.2571 20.4781C43.5838 20.4191 43.8216 20.1349 43.8216 19.803V13.2972C43.8217 12.9649 43.5839 12.6806 43.2571 12.6218Z" fill="#27BF74"/>
<path d="M30.3136 10.0703C29.956 9.94535 29.5648 10.1343 29.4399 10.492C29.3151 10.8497 29.5039 11.2409 29.8615 11.3656C32.0623 12.1337 33.5412 14.2174 33.5412 16.5506C33.5412 18.8837 32.0624 20.9673 29.8615 21.7356C29.5039 21.8605 29.315 22.2516 29.4399 22.6093C29.5386 22.8922 29.8039 23.0694 30.0876 23.0694C30.1625 23.0694 30.2388 23.057 30.3136 23.0309C33.0648 22.0706 34.9132 19.4665 34.9132 16.5506C34.9132 13.6347 33.0648 11.0304 30.3136 10.0703Z" fill="#27BF74"/>
<path d="M9.86762 12.2343L4.81991 11.2302C4.44787 11.1561 4.0872 11.3976 4.01331 11.7692C3.93943 12.1408 4.18066 12.5019 4.55234 12.5758L9.60004 13.5799C9.64524 13.5887 9.69026 13.5932 9.73455 13.5932C10.0552 13.5932 10.3417 13.3673 10.4067 13.0409C10.4805 12.6693 10.2392 12.3082 9.86762 12.2343Z" fill="#27BF74"/>
<path d="M14.4605 3.71898L10.5934 0.327501C10.3086 0.0777004 9.87508 0.106027 9.62527 0.390921C9.37556 0.675722 9.40389 1.10911 9.68879 1.359L13.5558 4.75057C13.6861 4.86478 13.8473 4.9208 14.0078 4.9208C14.1984 4.9208 14.3882 4.84177 14.5238 4.68715C14.7736 4.40216 14.7453 3.96869 14.4605 3.71898Z" fill="#27BF74"/>
<path d="M16.1873 30.0769C15.9025 29.8272 15.4691 29.8555 15.2192 30.1404L11.8275 34.0083C11.5777 34.2931 11.6062 34.7266 11.891 34.9764C12.0211 35.0905 12.1824 35.1466 12.3429 35.1466C12.5336 35.1466 12.7234 35.0676 12.859 34.913L16.2507 31.0451C16.5006 30.7601 16.4722 30.3266 16.1873 30.0769Z" fill="#27BF74"/>
<path d="M11.0119 22.3339C10.8902 21.9753 10.5007 21.7833 10.1417 21.9049L5.27127 23.5585C4.91258 23.6803 4.72052 24.0699 4.84222 24.4286C4.93929 24.7142 5.20596 24.8943 5.49175 24.8943C5.56483 24.8943 5.63916 24.8825 5.71233 24.8577L10.5828 23.204C10.9417 23.0823 11.1337 22.6927 11.0119 22.3339Z" fill="#27BF74"/>
</g>
<defs>
<filter id="filter0_d" x="0" y="0" width="47.8216" height="54.1892" filterUnits="userSpaceOnUse" color-interpolation-filters="sRGB">
<feFlood flood-opacity="0" result="BackgroundImageFix"/>
<feColorMatrix in="SourceAlpha" type="matrix" values="0 0 0 0 0 0 0 0 0 0 0 0 0 0 0 0 0 0 127 0" result="hardAlpha"/>
<feOffset dy="4"/>
<feGaussianBlur stdDeviation="2"/>
<feColorMatrix type="matrix" values="0 0 0 0 0.12549 0 0 0 0 0.133333 0 0 0 0 0.184314 0 0 0 1 0"/>
<feBlend mode="normal" in2="BackgroundImageFix" result="effect1_dropShadow"/>
<feBlend mode="normal" in="SourceGraphic" in2="effect1_dropShadow" result="shape"/>
</filter>
</defs>
</svg>
