<svg width="50" height="50" viewBox="0 0 50 50" fill="none" xmlns="http://www.w3.org/2000/svg">
<g filter="url(#filter0_d)">
<path d="M49.5894 22.4561H38.677V20.9141H41.6212C41.9955 20.9141 42.299 20.6106 42.299 20.2363C42.299 19.862 41.9955 19.5586 41.6212 19.5586H38.677V18.0165H40.7211C41.4826 18.0165 42.1986 17.72 42.737 17.1815L47.1944 12.7241C47.4848 12.8688 47.8068 12.9457 48.1408 12.9457C48.7088 12.9457 49.2428 12.7245 49.6445 12.3229C50.0462 11.9213 50.2674 11.3873 50.2674 10.8192C50.2674 10.2512 50.0462 9.71715 49.6445 9.31545C49.2429 8.91382 48.7088 8.6926 48.1408 8.6926C47.5727 8.6926 47.0388 8.91382 46.6371 9.31545C46.2354 9.71705 46.0142 10.2511 46.0142 10.8192C46.0142 11.1531 46.0912 11.4751 46.2359 11.7656L41.7784 16.223C41.4961 16.5054 41.1205 16.661 40.721 16.661H38.6769V15.1656C38.6769 13.1942 37.073 11.5903 35.1016 11.5903H33.6063V5.59043C34.4474 5.30677 35.055 4.5109 35.055 3.57525C35.055 2.40265 34.101 1.44876 32.9285 1.44876C31.756 1.44876 30.802 2.40275 30.802 3.57525C30.802 4.5109 31.4096 5.30667 32.2508 5.59043V11.5903H30.7088V8.64598C30.7088 8.27168 30.4053 7.96823 30.031 7.96823C29.6567 7.96823 29.3533 8.27168 29.3533 8.64598V11.5903H27.8112V0.677745C27.8112 0.303445 27.5077 0 27.1334 0C26.7591 0 26.4557 0.303445 26.4557 0.677745V11.5903H24.9137V8.64598C24.9137 8.27168 24.6102 7.96823 24.2359 7.96823C23.8616 7.96823 23.5582 8.27168 23.5582 8.64598V11.5903H22.0161V9.54626C22.0161 8.78469 21.7196 8.06872 21.1811 7.53031L16.7221 3.07137C17.116 2.27605 16.984 1.28437 16.3226 0.622895C15.4934 -0.206216 14.1443 -0.206126 13.3152 0.622895C12.4861 1.45201 12.4861 2.80108 13.3152 3.63028C13.7298 4.0448 14.2744 4.2521 14.8189 4.2521C15.1432 4.2521 15.4668 4.17683 15.7637 4.0298L20.2226 8.48883C20.5051 8.77122 20.6606 9.14676 20.6606 9.54626V11.5903H19.1653C18.863 11.5903 18.5623 11.6282 18.2717 11.7029C17.9093 11.7962 17.691 12.1657 17.7843 12.5283C17.8775 12.8908 18.2471 13.109 18.6096 13.0157C18.7899 12.9693 18.9768 12.9457 19.1652 12.9457H35.1016C36.3257 12.9457 37.3214 13.9416 37.3214 15.1655V31.1021C37.3214 31.2903 37.2979 31.4771 37.2516 31.6572C37.1585 32.0197 37.3768 32.3892 37.7393 32.4823C37.7958 32.4969 37.8526 32.5038 37.9085 32.5038C38.2104 32.5038 38.4858 32.3006 38.5644 31.9946C38.639 31.7044 38.6769 31.404 38.6769 31.102V29.6066H44.6767C44.9603 30.4477 45.7562 31.0553 46.6918 31.0553C47.8644 31.0553 48.8183 30.1014 48.8183 28.9288C48.8183 27.7562 47.8644 26.8023 46.6918 26.8023C45.7562 26.8023 44.9604 27.41 44.6767 28.2511H38.6769V26.709H41.6211C41.9954 26.709 42.2989 26.4055 42.2989 26.0312C42.2989 25.6569 41.9954 25.3535 41.6211 25.3535H38.6769V23.8116H49.5894C49.9637 23.8116 50.2672 23.5081 50.2672 23.1338C50.2672 22.7595 49.9637 22.4561 49.5894 22.4561ZM47.5955 10.2741C47.7412 10.1284 47.9347 10.0482 48.1407 10.0482C48.3466 10.0482 48.5402 10.1284 48.6859 10.2741C48.8315 10.4197 48.9117 10.6133 48.9117 10.8192C48.9117 11.0252 48.8315 11.2188 48.6859 11.3644C48.5402 11.5101 48.3466 11.5903 48.1407 11.5903C47.9347 11.5903 47.7412 11.5101 47.5955 11.3644C47.4498 11.2188 47.3697 11.0252 47.3697 10.8192C47.3697 10.6133 47.4498 10.4196 47.5955 10.2741ZM15.364 2.67186C15.0634 2.97233 14.5743 2.97241 14.2736 2.67178C13.9729 2.37113 13.9729 1.88196 14.2736 1.58141C14.4239 1.43104 14.6213 1.35595 14.8188 1.35595C15.0163 1.35595 15.2137 1.43113 15.364 1.58141C15.6647 1.88205 15.6647 2.37121 15.364 2.67186ZM32.9285 4.34625C32.5034 4.34625 32.1575 4.00033 32.1575 3.57525C32.1575 3.15017 32.5033 2.80424 32.9285 2.80424C33.3537 2.80424 33.6995 3.15017 33.6995 3.57525C33.6995 4.00033 33.3536 4.34625 32.9285 4.34625ZM46.6919 28.1579C47.1171 28.1579 47.4629 28.5038 47.4629 28.9289C47.4629 29.3541 47.117 29.6999 46.6919 29.6999C46.2669 29.6999 45.9209 29.354 45.9209 28.9289C45.9208 28.5038 46.2668 28.1579 46.6919 28.1579Z" fill="#4B68FF"/>
<path d="M40.9521 42.6376C40.2907 41.9761 39.2989 41.8441 38.5036 42.238L34.0447 37.7789C33.7622 37.4965 33.6067 37.121 33.6067 36.7216V34.6776H35.102C35.4043 34.6776 35.7049 34.6396 35.9954 34.5649C36.3579 34.4716 36.5761 34.1021 36.4828 33.7396C36.3896 33.3771 36.0203 33.1589 35.6575 33.2521C35.4773 33.2985 35.2905 33.322 35.102 33.322H19.1656C17.9416 33.322 16.9458 32.3261 16.9458 31.1022V15.1658C16.9458 14.9773 16.9693 14.7905 17.0157 14.6104C17.109 14.2479 16.8908 13.8784 16.5283 13.785C16.1658 13.6917 15.7963 13.9099 15.703 14.2724C15.6282 14.5628 15.5903 14.8634 15.5903 15.1658V16.6611H9.59042C9.30676 15.82 8.51091 15.2124 7.57525 15.2124C6.40266 15.2124 5.44875 16.1663 5.44875 17.3389C5.44875 18.5115 6.40275 19.4654 7.57525 19.4654C8.51091 19.4654 9.30667 18.8578 9.59042 18.0166H15.5902V19.5587H12.646C12.2717 19.5587 11.9683 19.8622 11.9683 20.2365C11.9683 20.6108 12.2717 20.9142 12.646 20.9142H15.5902V22.4562H4.67775C4.30345 22.4562 4 22.7597 4 23.134C4 23.5083 4.30345 23.8117 4.67775 23.8117H15.5902V25.3537H12.646C12.2717 25.3537 11.9683 25.6572 11.9683 26.0315C11.9683 26.4058 12.2717 26.7092 12.646 26.7092H15.5902V28.2513H13.5461C12.7846 28.2513 12.0687 28.5478 11.5303 29.0863L7.07282 33.5437C6.78238 33.3991 6.4604 33.3221 6.12641 33.3221C5.55837 33.3221 5.02439 33.5433 4.62271 33.9449C4.22121 34.3466 4 34.8806 4 35.4486C4 36.0165 4.22121 36.5506 4.62289 36.9523C5.02448 37.3539 5.55855 37.5751 6.12659 37.5751C6.69463 37.5751 7.22861 37.3539 7.63029 36.9523C8.03196 36.5506 8.25318 36.0166 8.25318 35.4486C8.25318 35.1146 8.17619 34.7926 8.03151 34.5022L12.489 30.0448C12.7713 29.7624 13.1469 29.6067 13.5464 29.6067H15.5905V31.1021C15.5905 33.0736 17.1944 34.6774 19.1658 34.6774H20.6611V40.6772C19.82 40.9608 19.2124 41.7567 19.2124 42.6923C19.2124 43.8649 20.1664 44.8188 21.3389 44.8188C22.5114 44.8188 23.4654 43.8648 23.4654 42.6923C23.4654 41.7567 22.8578 40.9609 22.0166 40.6772V34.6774H23.5586V37.6216C23.5586 37.9959 23.8621 38.2994 24.2364 38.2994C24.6107 38.2994 24.9141 37.9959 24.9141 37.6216V34.6774H26.4561V45.59C26.4561 45.9643 26.7595 46.2678 27.1338 46.2678C27.5081 46.2678 27.8116 45.9643 27.8116 45.59V34.6776H29.3536V37.6218C29.3536 37.9961 29.657 38.2995 30.0313 38.2995C30.4056 38.2995 30.7091 37.9961 30.7091 37.6218V34.6776H32.2511V36.7216C32.2511 37.4831 32.5477 38.199 33.0862 38.7375L37.5451 43.1964C37.1512 43.9917 37.2832 44.9834 37.9447 45.6449C38.3592 46.0595 38.9038 46.2667 39.4484 46.2667C39.9929 46.2667 40.5376 46.0595 40.9521 45.6449C41.7812 44.8158 41.7812 43.4667 40.9521 42.6376ZM7.57525 18.1099C7.15008 18.1099 6.80425 17.764 6.80425 17.3389C6.80425 16.9137 7.15017 16.5679 7.57525 16.5679C8.00034 16.5679 8.34626 16.9138 8.34626 17.3389C8.34635 17.7641 8.00043 18.1099 7.57525 18.1099ZM6.67168 35.9937C6.52601 36.1394 6.33244 36.2196 6.1265 36.2196C5.92055 36.2196 5.72699 36.1394 5.58132 35.9937C5.43565 35.8481 5.35549 35.6545 5.35549 35.4486C5.35549 35.2426 5.43565 35.0491 5.58132 34.9034C5.72699 34.7577 5.92055 34.6776 6.1265 34.6776C6.33244 34.6776 6.52601 34.7577 6.67168 34.9034C6.81735 35.0491 6.8975 35.2426 6.8975 35.4486C6.8975 35.6545 6.81735 35.8482 6.67168 35.9937ZM22.1097 42.6925C22.1097 43.1176 21.7639 43.4635 21.3387 43.4635C20.9135 43.4635 20.5677 43.1176 20.5677 42.6925C20.5677 42.2674 20.9136 41.9215 21.3387 41.9215C21.7638 41.9215 22.1097 42.2674 22.1097 42.6925ZM39.9937 44.6864C39.693 44.9871 39.2039 44.987 38.9032 44.6864C38.6026 44.3858 38.6026 43.8966 38.9032 43.5961C39.0536 43.4458 39.251 43.3706 39.4485 43.3706C39.6459 43.3706 39.8434 43.4458 39.9937 43.5961C40.2942 43.8966 40.2942 44.3858 39.9937 44.6864Z" fill="#4B68FF"/>
<path d="M34.3308 21.3232C34.3308 19.8737 33.2706 18.6459 31.8193 18.2469C31.8622 18.0697 31.8861 17.8875 31.8861 17.7012C31.8861 16.3289 30.668 15.2124 29.171 15.2124C28.36 15.2124 27.6316 15.5404 27.1337 16.0587C26.6358 15.5404 25.9072 15.2124 25.0964 15.2124C23.5993 15.2124 22.3813 16.3289 22.3813 17.7012C22.3813 17.8875 22.4052 18.0697 22.4481 18.2469C20.9967 18.6458 19.9366 19.8736 19.9366 21.3232C19.9366 22.0316 20.1872 22.6999 20.6504 23.2519C20.1975 23.8381 19.9366 24.5497 19.9366 25.3074C19.9364 26.4597 20.5521 27.5357 21.5663 28.2032C21.5663 28.2037 21.5663 28.2042 21.5663 28.2048C21.5663 29.7768 22.9671 31.0557 24.6889 31.0557C25.6784 31.0557 26.5612 30.6329 27.1337 29.9752C27.7062 30.6329 28.5889 31.0557 29.5785 31.0557C31.2355 31.0557 32.5945 29.871 32.6945 28.3807C33.7009 27.7968 34.3308 26.7739 34.3308 25.6695C34.3308 24.8571 33.9845 24.0821 33.3883 23.4963C33.9844 22.9106 34.3308 22.1355 34.3308 21.3232ZM31.9321 24.0956C32.5852 24.4403 32.9751 25.0287 32.9751 25.6695C32.9751 26.1472 32.753 26.6029 32.378 26.9437C32.0217 26.2839 31.3919 25.7587 30.5963 25.5088C30.2393 25.3966 29.8588 25.5952 29.7465 25.9522C29.6343 26.3093 29.8329 26.6898 30.19 26.8019C30.8809 27.0191 31.3452 27.5829 31.3452 28.2049C31.3452 29.0295 30.5525 29.7003 29.5781 29.7003C28.6038 29.7003 27.8111 29.0295 27.8111 28.2049V23.8585C27.8111 23.0339 28.6038 22.3631 29.5781 22.3631C29.9524 22.3631 30.2558 22.0597 30.2558 21.6854C30.2558 21.3111 29.9524 21.0076 29.5781 21.0076C28.9226 21.0076 28.3139 21.1934 27.8111 21.5098V20.6441C27.8111 20.2698 27.5076 19.9663 27.1333 19.9663C26.759 19.9663 26.4556 20.2698 26.4556 20.6441V24.4067C26.2275 24.2635 25.9774 24.1451 25.7068 24.06C25.3495 23.9478 24.9692 24.1464 24.8571 24.5034C24.7449 24.8605 24.9434 25.2409 25.3004 25.3532C25.9914 25.5703 26.4556 26.1341 26.4556 26.756V28.2048C26.4556 29.0294 25.6629 29.7002 24.6886 29.7002C23.7141 29.7002 22.9214 29.0294 22.9214 28.2048C22.9214 27.8514 23.0713 27.5078 23.3433 27.2374C23.6088 26.9735 23.61 26.5444 23.3462 26.2789C23.0823 26.0134 22.6532 26.0121 22.3877 26.276C22.2254 26.4375 22.0856 26.6139 21.9693 26.8014C21.5414 26.3965 21.2915 25.8639 21.2915 25.3072C21.2915 24.303 22.0796 23.4209 23.208 23.162C23.5728 23.0783 23.8007 22.7147 23.717 22.3499C23.6333 21.985 23.2696 21.7571 22.9049 21.8408C22.4506 21.945 22.0324 22.119 21.6616 22.3473C21.4211 22.0453 21.2916 21.6916 21.2916 21.323C21.2919 20.3036 22.2582 19.4737 23.4495 19.4658C23.4556 19.466 23.4617 19.4668 23.4676 19.4668C23.6223 19.4668 23.7778 19.4141 23.9052 19.3063C24.165 19.0864 24.2171 18.7131 24.0427 18.4324C24.0376 18.4241 24.0329 18.4156 24.0274 18.4075C24.0246 18.4035 24.0213 18.3996 24.0184 18.3955C24.0079 18.3808 23.9972 18.3663 23.9855 18.3524C23.9851 18.352 23.9849 18.3515 23.9845 18.3511C23.8715 18.2175 23.7365 17.9963 23.7365 17.7011C23.7365 17.0763 24.3465 16.5679 25.0961 16.5679C25.8457 16.5679 26.4557 17.0763 26.4557 17.7011C26.4557 18.0754 26.7591 18.3789 27.1334 18.3789C27.5077 18.3789 27.8112 18.0754 27.8112 17.7011C27.8112 17.0763 28.4211 16.5679 29.1707 16.5679C29.9203 16.5679 30.5303 17.0763 30.5303 17.7011C30.5303 17.8681 30.4866 18.0106 30.4286 18.1277C30.0431 18.1641 29.6703 18.2573 29.3163 18.4065C28.9714 18.5519 28.8097 18.9495 28.9551 19.2944C29.1005 19.6392 29.498 19.8011 29.843 19.6556C30.1359 19.532 30.4511 19.4685 30.7799 19.466C30.7864 19.4662 30.7928 19.4668 30.7993 19.4668C30.8054 19.4668 30.8113 19.466 30.8174 19.4658C32.0087 19.4736 32.9751 20.3036 32.9751 21.323C32.9751 21.9638 32.5852 22.5521 31.9321 22.8968C31.7098 23.0141 31.5707 23.2448 31.5707 23.4962C31.5707 23.7476 31.7098 23.9783 31.9321 24.0956Z" fill="#4B68FF"/>
</g>
<defs>
<filter id="filter0_d" x="0" y="0" width="54.2674" height="54.2678" filterUnits="userSpaceOnUse" color-interpolation-filters="sRGB">
<feFlood flood-opacity="0" result="BackgroundImageFix"/>
<feColorMatrix in="SourceAlpha" type="matrix" values="0 0 0 0 0 0 0 0 0 0 0 0 0 0 0 0 0 0 127 0" result="hardAlpha"/>
<feOffset dy="4"/>
<feGaussianBlur stdDeviation="2"/>
<feColorMatrix type="matrix" values="0 0 0 0 0.12549 0 0 0 0 0.133333 0 0 0 0 0.184314 0 0 0 1 0"/>
<feBlend mode="normal" in2="BackgroundImageFix" result="effect1_dropShadow"/>
<feBlend mode="normal" in="SourceGraphic" in2="effect1_dropShadow" result="shape"/>
</filter>
</defs>
</svg>
