<svg width="201" height="201" viewBox="0 0 201 201" fill="none" xmlns="http://www.w3.org/2000/svg">
<path d="M31.3278 118.831C31.3708 119.416 31.5507 119.982 31.8531 120.484C32.1555 120.986 32.5719 121.41 33.0685 121.722L81.8431 149.862C82.3826 150.135 82.9789 150.278 83.5838 150.278C84.1887 150.278 84.785 150.135 85.3245 149.862L152.056 111.33C152.582 111.052 153.023 110.636 153.33 110.127C153.637 109.618 153.799 109.034 153.799 108.439C153.799 107.845 153.637 107.261 153.33 106.752C153.023 106.243 152.582 105.827 152.056 105.549L103.286 77.4091C102.746 77.1354 102.15 76.9928 101.545 76.9928C100.94 76.9928 100.344 77.1354 99.8045 77.4091L33.0725 115.941C32.5752 116.252 32.158 116.675 31.8549 117.178C31.5518 117.68 31.3712 118.246 31.3278 118.831Z" fill="#37474F"/>
<path d="M83.5838 146.529V150.296C82.9788 150.312 82.3796 150.174 81.8431 149.894L33.0685 121.754C32.5586 121.485 32.129 121.086 31.8235 120.597C31.5181 120.108 31.3477 119.547 31.3297 118.971C31.3117 118.395 31.4468 117.824 31.7212 117.318C31.9956 116.811 32.3994 116.386 32.8916 116.086C32.1117 116.644 32.172 117.464 33.0685 117.983L81.8431 146.123C82.3792 146.405 82.9785 146.544 83.5838 146.529Z" fill="#263238"/>
<path d="M29.6957 116.001C29.2104 115.673 28.8096 115.234 28.526 114.721C28.2424 114.209 28.0839 113.636 28.0636 113.05V54.8449C28.0966 54.2409 28.2714 53.6533 28.5738 53.1294C28.8762 52.6056 29.2978 52.1604 29.8043 51.8299L96.5363 13.3022C97.0541 13.0279 97.6291 12.8792 98.215 12.868C98.8009 12.8568 99.3811 12.9835 99.909 13.2379C100.395 13.5672 100.796 14.0063 101.08 14.5197C101.364 15.033 101.524 15.6062 101.545 16.1926V74.3941C101.513 74.9982 101.338 75.5861 101.036 76.11C100.733 76.6339 100.311 77.079 99.8045 77.4091L33.0725 115.941C32.5542 116.216 31.9782 116.365 31.3914 116.375C30.8046 116.386 30.2236 116.258 29.6957 116.001Z" fill="#455A64"/>
<path d="M32.8635 116.045C32.3644 116.27 31.8221 116.383 31.2747 116.375C30.7273 116.368 30.1883 116.24 29.6957 116.001C29.2111 115.672 28.8108 115.233 28.5273 114.721C28.2437 114.208 28.0849 113.636 28.0636 113.05V54.8448C28.0834 54.2395 28.2592 53.6496 28.5742 53.1323L31.8384 55.0137C31.5258 55.532 31.3501 56.1213 31.3279 56.7262V114.936C31.3279 115.965 31.9992 116.427 32.8635 116.045Z" fill="#263238"/>
<path d="M31.3278 56.7303V114.936C31.3278 116.045 32.1077 116.496 33.0685 115.941L99.8005 77.4091C100.307 77.079 100.729 76.6339 101.032 76.11C101.334 75.5861 101.509 74.9982 101.541 74.3941V16.1926C101.541 15.0831 100.761 14.6328 99.8005 15.1876L33.0685 53.7153C32.5622 54.0461 32.1408 54.4913 31.8385 55.0151C31.5361 55.5388 31.3612 56.1264 31.3278 56.7303Z" fill="#37474F"/>
<path d="M33.0685 117.951L81.8432 146.091C82.3826 146.364 82.979 146.507 83.5838 146.507C84.1887 146.507 84.7851 146.364 85.3245 146.091L152.056 107.559C153.017 107.004 153.017 106.104 152.056 105.549L103.286 77.4091C102.746 77.1354 102.15 76.9928 101.545 76.9928C100.94 76.9928 100.344 77.1354 99.8045 77.4091L33.0725 115.941C32.1077 116.496 32.1077 117.384 33.0685 117.951Z" fill="#455A64"/>
<path d="M34.0052 56.9473L98.3252 19.8105C98.9041 19.4768 99.3704 19.7462 99.3704 20.4135V70.7962C99.3511 71.1587 99.2463 71.5116 99.0647 71.826C98.883 72.1404 98.6297 72.4074 98.3252 72.6052L34.0052 109.746C33.4263 110.08 32.96 109.81 32.96 109.143V58.7563C32.9793 58.3937 33.0841 58.0408 33.2657 57.7265C33.4473 57.4121 33.7007 57.1451 34.0052 56.9473Z" fill="white"/>
<path opacity="0.6" d="M34.0052 56.9473L98.3252 19.8105C98.9041 19.4768 99.3704 19.7462 99.3704 20.4135V70.7962C99.3511 71.1587 99.2463 71.5116 99.0647 71.826C98.883 72.1404 98.6297 72.4074 98.3252 72.6052L34.0052 109.746C33.4263 110.08 32.96 109.81 32.96 109.143V58.7563C32.9793 58.3937 33.0841 58.0408 33.2657 57.7265C33.4473 57.4121 33.7007 57.1451 34.0052 56.9473Z" fill="#36DBDF"/>
<path d="M66.0365 53.7594C67.749 52.7705 69.14 53.5745 69.14 55.5523C69.081 56.6284 68.7693 57.6755 68.2301 58.6086C67.6909 59.5417 66.9394 60.3346 66.0365 60.923C64.324 61.912 62.9371 61.112 62.9371 59.1341C62.995 58.0577 63.3058 57.0101 63.8443 56.0762C64.3828 55.1424 65.1338 54.3487 66.0365 53.7594Z" fill="#F0F0F0"/>
<path d="M72.1509 64.3401C72.1509 61.0919 69.8676 59.6487 67.0536 61.2728L65.2968 62.31C62.4828 63.918 60.1995 67.8857 60.1995 71.154V72.0303L72.1509 65.132V64.3401Z" fill="#F0F0F0"/>
<path d="M78.193 65.928C78.0804 65.6667 77.791 65.6023 77.4654 65.7873L56.5935 77.8472C56.3694 77.9947 56.1829 78.1926 56.0489 78.4251C55.9149 78.6575 55.8371 78.918 55.8217 79.1859V81.6381C55.8217 82.0401 56.0709 82.2612 56.4086 82.1687L56.4649 82.1486C56.5089 82.131 56.5518 82.1108 56.5935 82.0883L77.4654 70.0283C77.6904 69.8818 77.8776 69.6841 78.0117 69.4515C78.1458 69.2189 78.2231 68.9578 78.2372 68.6897V66.2496C78.241 66.1406 78.226 66.0318 78.193 65.928Z" fill="#F0F0F0"/>
<path d="M58.4789 78.1528C58.8809 77.9156 59.2146 78.1086 59.2146 78.5749C59.2016 78.8298 59.1281 79.078 59.0002 79.2989C58.8722 79.5198 58.6936 79.7071 58.4789 79.8452C58.0769 80.0784 57.7473 79.8894 57.7473 79.4191C57.7605 79.1652 57.8336 78.9181 57.9608 78.698C58.088 78.4778 58.2656 78.291 58.4789 78.1528Z" fill="#36DBDF"/>
<path d="M60.907 76.7498C61.309 76.5166 61.6387 76.7056 61.6387 77.1759C61.6255 77.4298 61.5523 77.677 61.4251 77.8971C61.298 78.1172 61.1204 78.304 60.907 78.4422C60.505 78.6794 60.1714 78.4865 60.1714 78.0402C60.1812 77.7818 60.2532 77.5296 60.3813 77.305C60.5094 77.0803 60.6897 76.8899 60.907 76.7498Z" fill="#36DBDF"/>
<path d="M63.3311 75.3509C63.7331 75.1177 64.0628 75.3066 64.0628 75.773C64.0502 76.0275 63.9773 76.2755 63.8501 76.4963C63.7229 76.7172 63.545 76.9047 63.3311 77.0433C62.9291 77.2764 62.5955 77.0875 62.5955 76.6212C62.6084 76.3663 62.6819 76.1181 62.8099 75.8972C62.9378 75.6763 63.1165 75.489 63.3311 75.3509Z" fill="#36DBDF"/>
<path d="M65.7551 73.968C66.1571 73.7308 66.4908 73.9238 66.4908 74.37C66.4778 74.6249 66.4043 74.8731 66.2764 75.094C66.1485 75.3149 65.9698 75.5022 65.7551 75.6403C65.3531 75.8735 65.0235 75.6845 65.0235 75.2383C65.036 74.9837 65.1089 74.7358 65.2361 74.5149C65.3633 74.2941 65.5412 74.1066 65.7551 73.968Z" fill="#36DBDF"/>
<path d="M68.1792 72.549C68.5812 72.3158 68.9149 72.5048 68.9149 72.9751C68.9003 73.2297 68.8261 73.4773 68.6983 73.6979C68.5705 73.9185 68.3927 74.1061 68.1792 74.2454C67.7772 74.4786 67.4476 74.2897 67.4476 73.8193C67.4617 73.5651 67.5353 73.3178 67.6623 73.0972C67.7894 72.8765 67.9664 72.6888 68.1792 72.549Z" fill="#36DBDF"/>
<path d="M70.6073 71.154C71.0093 70.9208 71.3389 71.1098 71.3389 71.556C71.3264 71.8105 71.2535 72.0585 71.1263 72.2794C70.9991 72.5002 70.8212 72.6877 70.6073 72.8263C70.2053 73.0595 69.8716 72.8705 69.8716 72.4243C69.8846 72.1694 69.9581 71.9212 70.086 71.7003C70.214 71.4794 70.3926 71.2921 70.6073 71.154Z" fill="#36DBDF"/>
<path d="M73.0314 69.751C73.4334 69.5178 73.763 69.7068 73.763 70.1731C73.7505 70.4277 73.6776 70.6756 73.5504 70.8965C73.4231 71.1174 73.2453 71.3048 73.0314 71.4434C72.6294 71.6766 72.2997 71.4876 72.2997 71.0213C72.3123 70.7667 72.3851 70.5188 72.5124 70.2979C72.6396 70.0771 72.8174 69.8896 73.0314 69.751Z" fill="#36DBDF"/>
<path d="M75.4554 68.34C75.8574 68.1069 76.1911 68.2958 76.1911 68.7661C76.1765 69.0207 76.1023 69.2683 75.9745 69.4889C75.8467 69.7096 75.6689 69.8971 75.4554 70.0365C75.0534 70.2696 74.7238 70.0807 74.7238 69.6103C74.7385 69.3563 74.8123 69.1092 74.9393 68.8887C75.0664 68.6681 75.243 68.4803 75.4554 68.34Z" fill="#36DBDF"/>
<path d="M38.7287 116.443L100.673 80.6653C100.943 80.5286 101.241 80.4574 101.543 80.4574C101.846 80.4574 102.144 80.5286 102.413 80.6653L105.581 82.4944C105.686 82.53 105.777 82.5977 105.842 82.6878C105.907 82.7779 105.941 82.886 105.941 82.9969C105.941 83.1078 105.907 83.2159 105.842 83.306C105.777 83.3962 105.686 83.4638 105.581 83.4994L43.629 119.273C43.3593 119.41 43.0611 119.481 42.7587 119.481C42.4563 119.481 42.1581 119.41 41.8884 119.273L38.7287 117.448C38.6237 117.413 38.5325 117.345 38.4679 117.255C38.4033 117.165 38.3685 117.057 38.3685 116.946C38.3685 116.835 38.4033 116.727 38.4679 116.637C38.5325 116.547 38.6237 116.479 38.7287 116.443Z" fill="#37474F"/>
<path d="M46.8933 121.159L108.837 85.3808C109.107 85.2441 109.405 85.1729 109.708 85.1729C110.01 85.1729 110.308 85.2441 110.578 85.3808L130.067 96.6368C130.172 96.6724 130.263 96.74 130.328 96.8302C130.393 96.9203 130.427 97.0284 130.427 97.1393C130.427 97.2502 130.393 97.3583 130.328 97.4484C130.263 97.5385 130.172 97.6061 130.067 97.6418L68.1953 133.363C67.9245 133.499 67.6258 133.57 67.3229 133.57C67.0201 133.57 66.7213 133.499 66.4506 133.363L46.8973 122.156C46.7931 122.121 46.7025 122.054 46.6381 121.965C46.5738 121.876 46.539 121.769 46.5385 121.659C46.5381 121.549 46.572 121.441 46.6357 121.352C46.6993 121.262 46.7894 121.195 46.8933 121.159Z" fill="#263238"/>
<path d="M102.422 101.485L104.363 100.363C104.444 100.315 104.44 100.235 104.363 100.186L102.108 98.892C102.06 98.8673 102.007 98.8544 101.953 98.8544C101.899 98.8544 101.846 98.8673 101.798 98.892L99.8568 100.014C99.7764 100.058 99.7804 100.138 99.8568 100.19L102.1 101.485C102.149 101.512 102.205 101.526 102.261 101.526C102.317 101.526 102.372 101.512 102.422 101.485ZM98.5945 97.0347L96.6569 98.1523C96.5724 98.2005 96.5765 98.2809 96.6569 98.3332L98.9 99.6276C98.9482 99.6514 99.0011 99.6637 99.0548 99.6637C99.1085 99.6637 99.1614 99.6514 99.2096 99.6276L101.151 98.506C101.232 98.4578 101.228 98.3774 101.151 98.3292L98.892 97.0428C98.8463 97.0188 98.7957 97.0056 98.7442 97.0042C98.6926 97.0028 98.6414 97.0133 98.5945 97.0347ZM92.3273 100.653L89.047 102.546C88.9626 102.594 88.9706 102.675 89.047 102.727L91.2861 104.021C91.3343 104.045 91.3872 104.058 91.4409 104.058C91.4946 104.058 91.5475 104.045 91.5957 104.021L94.88 102.128C94.9604 102.08 94.9564 101.999 94.88 101.951L92.6369 100.653C92.5887 100.629 92.5358 100.617 92.4821 100.617C92.4284 100.617 92.3754 100.629 92.3273 100.653ZM95.7604 98.6709L93.8187 99.7924C93.7383 99.8367 93.7424 99.9171 93.8187 99.9693L96.078 101.264C96.1261 101.288 96.1791 101.3 96.2327 101.3C96.2864 101.3 96.3394 101.288 96.3875 101.264L98.3252 100.142C98.4096 100.094 98.4056 100.014 98.3252 99.9653L96.078 98.6789C96.0298 98.6516 95.9756 98.6366 95.9202 98.6352C95.8648 98.6338 95.8099 98.6461 95.7604 98.6709ZM88.1505 103.065L86.2129 104.182C86.1285 104.231 86.1325 104.311 86.2129 104.363L88.4561 105.658C88.5039 105.682 88.557 105.695 88.6108 105.695C88.6647 105.695 88.7177 105.682 88.7656 105.658L90.7073 104.54C90.7877 104.492 90.7836 104.411 90.7073 104.359L88.4641 103.065C88.4154 103.04 88.3617 103.028 88.3073 103.028C88.2529 103.028 88.1992 103.04 88.1505 103.065ZM85.3164 104.701L83.3788 105.818C83.2944 105.867 83.2984 105.947 83.3788 105.999L85.626 107.294C85.6741 107.318 85.7271 107.33 85.7807 107.33C85.8344 107.33 85.8874 107.318 85.9355 107.294L87.8772 106.172C87.9576 106.124 87.9536 106.044 87.8772 105.995L85.626 104.709C85.5788 104.683 85.526 104.669 85.4722 104.667C85.4183 104.666 85.3649 104.677 85.3164 104.701ZM94.1363 109.967L96.078 108.845C96.1584 108.797 96.1544 108.717 96.078 108.669L93.8348 107.374C93.787 107.349 93.7339 107.337 93.68 107.337C93.6262 107.337 93.5731 107.349 93.5253 107.374L91.5876 108.496C91.5032 108.54 91.5113 108.62 91.5876 108.673L93.8268 109.967C93.8746 109.992 93.9277 110.005 93.9815 110.005C94.0354 110.005 94.0885 109.992 94.1363 109.967ZM91.3223 111.603L93.264 110.482C93.3444 110.433 93.3404 110.357 93.264 110.305L91.0208 109.01C90.973 108.986 90.9199 108.973 90.866 108.973C90.8122 108.973 90.7591 108.986 90.7113 109.01L88.7736 110.132C88.6892 110.18 88.6932 110.257 88.7736 110.309L91.0168 111.603C91.0615 111.624 91.1102 111.635 91.1595 111.635C91.2088 111.635 91.2575 111.624 91.3022 111.603H91.3223ZM88.4882 113.239L90.4299 112.118C90.5103 112.074 90.5063 111.993 90.4299 111.941L88.1867 110.646C88.1389 110.622 88.0858 110.609 88.0319 110.609C87.9781 110.609 87.925 110.622 87.8772 110.646L85.9074 111.756C85.823 111.804 85.827 111.885 85.9074 111.933L88.1505 113.227C88.1984 113.255 88.2524 113.271 88.3078 113.273C88.3632 113.275 88.4183 113.264 88.4681 113.239H88.4882ZM85.6742 114.875L87.6159 113.754C87.6963 113.71 87.6923 113.629 87.6159 113.577L85.3727 112.283C85.3246 112.259 85.2716 112.246 85.2179 112.246C85.1643 112.246 85.1113 112.259 85.0632 112.283L83.1215 113.404C83.0411 113.452 83.0451 113.533 83.1215 113.581L85.3647 114.875C85.406 114.893 85.4505 114.902 85.4953 114.902C85.5402 114.902 85.5846 114.893 85.626 114.875H85.6742ZM99.6276 103.121L101.565 101.999C101.65 101.951 101.646 101.875 101.565 101.823L99.294 100.528C99.2461 100.503 99.1931 100.491 99.1392 100.491C99.0854 100.491 99.0323 100.503 98.9844 100.528L97.0428 101.65C96.9624 101.698 96.9664 101.774 97.0428 101.827L99.294 103.113C99.3391 103.136 99.389 103.149 99.4398 103.151C99.4906 103.152 99.5411 103.142 99.5874 103.121H99.6276ZM97.0146 108.347L101.304 105.83C101.384 105.782 101.38 105.702 101.304 105.654L95.8408 102.51C95.7929 102.485 95.7399 102.472 95.686 102.472C95.6322 102.472 95.5791 102.485 95.5313 102.51L93.2961 103.8C93.2117 103.849 93.2157 103.929 93.2961 103.981L96.1825 105.646C96.2709 105.698 96.275 105.778 96.1825 105.822L94.3936 106.856C94.3092 106.904 94.3172 106.984 94.3936 107.036L96.6368 108.331C96.6885 108.359 96.7465 108.374 96.8056 108.374C96.8646 108.374 96.9227 108.359 96.9744 108.331L97.0146 108.347ZM82.5426 106.337L80.601 107.459C80.5206 107.503 80.5246 107.583 80.601 107.635L82.812 108.942C82.8601 108.966 82.9131 108.978 82.9667 108.978C83.0204 108.978 83.0734 108.966 83.1215 108.942L85.0592 107.82C85.1436 107.772 85.1395 107.692 85.0592 107.644L82.812 106.345C82.7623 106.316 82.7059 106.299 82.6482 106.298C82.5905 106.297 82.5334 106.31 82.4823 106.337H82.5426ZM79.7085 107.973L77.7669 109.095C77.6865 109.143 77.6905 109.219 77.7669 109.272L80.01 110.566C80.0579 110.591 80.111 110.604 80.1648 110.604C80.2186 110.604 80.2717 110.591 80.3196 110.566L82.2572 109.444C82.3416 109.396 82.3376 109.316 82.2572 109.268L80.014 107.973C79.9595 107.938 79.896 107.919 79.8311 107.919C79.7663 107.919 79.7028 107.938 79.6482 107.973H79.7085ZM65.542 126.324C65.5899 126.349 65.643 126.362 65.6968 126.362C65.7507 126.362 65.8037 126.349 65.8516 126.324L67.7933 125.203C67.8736 125.155 67.8696 125.074 67.7933 125.026L65.5501 123.732C65.5022 123.707 65.4492 123.694 65.3953 123.694C65.3415 123.694 65.2884 123.707 65.2405 123.732L63.3029 124.853C63.2185 124.897 63.2225 124.978 63.3029 125.03L65.542 126.324ZM57.0317 121.066L55.0297 122.208C54.9493 122.252 54.9534 122.333 55.0297 122.385L57.2729 123.679C57.321 123.703 57.374 123.715 57.4277 123.715C57.4814 123.715 57.5343 123.703 57.5825 123.679L59.5201 122.558C59.6045 122.509 59.6005 122.429 59.5201 122.381L57.2769 121.086C57.2312 121.059 57.1797 121.043 57.1266 121.04C57.0735 121.036 57.0203 121.045 56.9714 121.066H57.0317ZM61.5944 124.905C61.6423 124.93 61.6953 124.943 61.7492 124.943C61.803 124.943 61.8561 124.93 61.904 124.905L63.8416 123.784C63.926 123.736 63.918 123.655 63.8416 123.607L61.5984 122.312C61.5506 122.288 61.4975 122.275 61.4437 122.275C61.3898 122.275 61.3368 122.288 61.2889 122.312L59.3512 123.434C59.2708 123.482 59.2749 123.559 59.3512 123.611L61.5944 124.905ZM70.547 127.317L72.4886 126.196C72.569 126.148 72.565 126.067 72.4886 126.019L70.2455 124.724C70.1976 124.7 70.1445 124.687 70.0907 124.687C70.0368 124.687 69.9838 124.7 69.9359 124.724L67.938 125.826C67.8535 125.87 67.8576 125.951 67.938 126.003L70.1811 127.297C70.2269 127.324 70.2782 127.34 70.3311 127.345C70.384 127.349 70.4372 127.341 70.4866 127.321L70.547 127.317ZM67.4033 128.925C67.4512 128.95 67.5042 128.963 67.5581 128.963C67.6119 128.963 67.665 128.95 67.7129 128.925L69.6545 127.804C69.7349 127.756 69.7309 127.675 69.6545 127.627L67.4114 126.332C67.3635 126.308 67.3104 126.295 67.2566 126.295C67.2027 126.295 67.1497 126.308 67.1018 126.332L65.1601 127.454C65.0797 127.498 65.0838 127.579 65.1601 127.631L67.4033 128.925ZM59.8658 119.406L57.9241 120.524C57.8437 120.572 57.8478 120.652 57.9241 120.704L60.1673 121.999C60.2154 122.023 60.2684 122.035 60.3221 122.035C60.3758 122.035 60.4287 122.023 60.4769 121.999L62.4145 120.877C62.4989 120.829 62.4949 120.749 62.4145 120.7L60.1713 119.402C60.1137 119.372 60.049 119.359 59.9844 119.364C59.9198 119.369 59.8579 119.392 59.8055 119.43L59.8658 119.406ZM73.968 111.245L72.0263 112.367C71.9459 112.415 71.9499 112.496 72.0263 112.544L74.2695 113.838C74.3173 113.863 74.3704 113.876 74.4242 113.876C74.4781 113.876 74.5312 113.863 74.579 113.838L76.5166 112.717C76.6011 112.673 76.593 112.592 76.5166 112.54L74.2735 111.245C74.2261 111.222 74.1738 111.209 74.1207 111.209C74.0677 111.209 74.0154 111.222 73.968 111.245ZM62.6396 117.786L60.702 118.912C60.6175 118.96 60.6216 119.04 60.702 119.092L62.9451 120.387C62.993 120.412 63.0461 120.424 63.0999 120.424C63.1537 120.424 63.2068 120.412 63.2547 120.387L65.1963 119.269C65.2767 119.221 65.2727 119.141 65.1963 119.088L62.9491 117.786C62.901 117.762 62.8481 117.75 62.7944 117.75C62.7407 117.75 62.6877 117.762 62.6396 117.786ZM76.8141 109.601L74.8725 110.723C74.7921 110.771 74.7961 110.851 74.8725 110.9L77.1156 112.194C77.1635 112.219 77.2166 112.232 77.2704 112.232C77.3242 112.232 77.3773 112.219 77.4252 112.194L79.3628 111.073C79.4472 111.024 79.4392 110.948 79.3628 110.896L77.1196 109.601C77.0717 109.578 77.019 109.567 76.9659 109.569C76.9128 109.57 76.8608 109.584 76.8141 109.609V109.601ZM71.154 112.882L69.2163 114.003C69.1319 114.051 69.1399 114.132 69.2163 114.18L71.4595 115.474C71.5073 115.499 71.5604 115.512 71.6143 115.512C71.6681 115.512 71.7212 115.499 71.769 115.474L73.7067 114.357C73.7871 114.309 73.7831 114.228 73.7067 114.176L71.4635 112.882C71.4154 112.858 71.3624 112.845 71.3087 112.845C71.2551 112.845 71.2021 112.858 71.154 112.882ZM68.3199 114.522L66.3822 115.639C66.2978 115.688 66.3059 115.768 66.3822 115.816L68.6214 117.115C68.6695 117.138 68.7225 117.151 68.7761 117.151C68.8298 117.151 68.8828 117.138 68.9309 117.115L70.8726 115.997C70.953 115.949 70.949 115.868 70.8726 115.816L68.6294 114.522C68.58 114.495 68.5248 114.481 68.4686 114.481C68.4125 114.481 68.3572 114.495 68.3078 114.522H68.3199ZM65.5059 116.158L63.5682 117.275C63.4838 117.324 63.4878 117.404 63.5682 117.456L65.8114 118.751C65.8595 118.775 65.9125 118.787 65.9662 118.787C66.0198 118.787 66.0728 118.775 66.1209 118.751L68.0626 117.633C68.143 117.585 68.139 117.505 68.0626 117.452L65.7833 116.178C65.7351 116.154 65.6822 116.142 65.6285 116.142C65.5748 116.142 65.5218 116.154 65.4737 116.178L65.5059 116.158ZM79.9779 118.148L81.9155 117.03C81.9999 116.982 81.9919 116.902 81.9155 116.849L79.6724 115.555C79.6245 115.53 79.5714 115.517 79.5176 115.517C79.4637 115.517 79.4107 115.53 79.3628 115.555L77.4212 116.672C77.3407 116.721 77.3448 116.801 77.4212 116.853L79.6643 118.148C79.7114 118.17 79.7629 118.182 79.8151 118.182C79.8672 118.182 79.9187 118.17 79.9658 118.148H79.9779ZM104.874 93.4167L102.912 94.5383C102.832 94.5825 102.836 94.6629 102.912 94.7152L105.155 96.0096C105.203 96.0334 105.256 96.0457 105.31 96.0457C105.364 96.0457 105.417 96.0334 105.465 96.0096L107.402 94.888C107.487 94.8398 107.483 94.7594 107.402 94.7112L105.159 93.4167C105.113 93.394 105.062 93.3822 105.01 93.3822C104.959 93.3822 104.908 93.394 104.862 93.4167H104.874ZM101.441 95.3986L99.503 96.5161C99.4186 96.5644 99.4226 96.6448 99.503 96.697L101.746 97.9915C101.794 98.0162 101.847 98.029 101.901 98.029C101.955 98.029 102.008 98.0162 102.056 97.9915L103.997 96.8739C104.078 96.8257 104.074 96.7453 103.997 96.693L101.754 95.3986C101.704 95.3722 101.648 95.3584 101.591 95.3584C101.535 95.3584 101.479 95.3722 101.429 95.3986H101.441ZM107.708 91.7806L105.766 92.8981C105.686 92.9464 105.69 93.0268 105.766 93.079L108.009 94.3735C108.057 94.3972 108.11 94.4096 108.164 94.4096C108.218 94.4096 108.271 94.3972 108.319 94.3735L110.257 93.2519C110.341 93.2037 110.337 93.1233 110.257 93.075L108.013 91.7766C107.964 91.7521 107.909 91.7398 107.854 91.7404C107.799 91.7411 107.745 91.7549 107.696 91.7806H107.708ZM93.0228 106.932L94.9644 105.81C95.0448 105.762 95.0408 105.682 94.9644 105.634L92.7213 104.335C92.6731 104.311 92.6202 104.299 92.5665 104.299C92.5128 104.299 92.4599 104.311 92.4117 104.335L90.45 105.428C90.3696 105.477 90.3736 105.557 90.45 105.609L92.6931 106.904C92.7415 106.935 92.7969 106.954 92.8544 106.959C92.9119 106.964 92.9698 106.955 93.0228 106.932ZM110.839 90.1686C110.791 90.1448 110.738 90.1325 110.685 90.1325C110.631 90.1325 110.578 90.1448 110.53 90.1686L108.592 91.254C108.508 91.3022 108.512 91.3826 108.592 91.4349L110.835 92.7293C110.883 92.754 110.936 92.7669 110.99 92.7669C111.044 92.7669 111.097 92.754 111.145 92.7293L113.087 91.6117C113.167 91.5635 113.163 91.4831 113.087 91.4308L110.839 90.1686ZM82.812 116.512L84.7496 115.394C84.834 115.346 84.83 115.265 84.7496 115.213L82.5065 113.919C82.4583 113.895 82.4054 113.883 82.3517 113.883C82.298 113.883 82.245 113.895 82.1969 113.919L80.2553 115.04C80.1749 115.089 80.1789 115.169 80.2553 115.217L82.4984 116.516C82.5474 116.539 82.6012 116.551 82.6557 116.551C82.7101 116.55 82.7636 116.537 82.812 116.512ZM117.573 96.4438L119.511 95.3222C119.595 95.274 119.591 95.1936 119.511 95.1453L117.267 93.8509C117.22 93.8262 117.166 93.8133 117.113 93.8133C117.059 93.8133 117.006 93.8262 116.958 93.8509L115.016 94.9725C114.936 95.0167 114.94 95.0971 115.016 95.1493L117.259 96.4438C117.306 96.4671 117.358 96.4793 117.41 96.4793C117.462 96.4793 117.514 96.4671 117.561 96.4438H117.573ZM111.543 96.2307L113.481 95.1091C113.565 95.0609 113.561 94.9805 113.481 94.9323L111.237 93.6378C111.19 93.6131 111.136 93.6003 111.083 93.6003C111.029 93.6003 110.976 93.6131 110.928 93.6378L108.942 94.7514C108.862 94.7956 108.866 94.876 108.942 94.9282L111.185 96.2227C111.236 96.2536 111.294 96.2705 111.353 96.272C111.412 96.2734 111.471 96.2592 111.523 96.2307H111.543ZM114.063 91.9977C114.015 91.9739 113.962 91.9616 113.909 91.9616C113.855 91.9616 113.802 91.9739 113.754 91.9977L111.812 93.1152C111.732 93.1635 111.736 93.2439 111.812 93.2961L114.055 94.5906C114.104 94.6143 114.157 94.6267 114.21 94.6267C114.264 94.6267 114.317 94.6143 114.365 94.5906L116.307 93.469C116.387 93.4207 116.383 93.3403 116.307 93.2921L114.063 91.9977ZM114.658 91.656L120.106 94.7996C120.154 94.8234 120.207 94.8357 120.26 94.8357C120.314 94.8357 120.367 94.8234 120.415 94.7996L122.357 93.678C122.437 93.6298 122.433 93.5494 122.357 93.5011L116.91 90.3535C116.861 90.3297 116.809 90.3174 116.755 90.3174C116.701 90.3174 116.648 90.3297 116.6 90.3535L114.662 91.471C114.546 91.5233 114.57 91.6037 114.638 91.656H114.658ZM108.086 95.274L106.128 96.3875C106.048 96.4357 106.052 96.5121 106.128 96.5644L108.371 97.8588C108.419 97.8835 108.472 97.8964 108.526 97.8964C108.58 97.8964 108.633 97.8835 108.681 97.8588L110.618 96.7372C110.703 96.689 110.699 96.6126 110.618 96.5604L108.375 95.274C108.327 95.2493 108.274 95.2364 108.22 95.2364C108.167 95.2364 108.113 95.2493 108.066 95.274H108.086ZM86.7516 107.591L84.8099 108.713C84.7295 108.761 84.7335 108.837 84.8099 108.89L87.0531 110.184C87.1009 110.209 87.154 110.222 87.2078 110.222C87.2617 110.222 87.3148 110.209 87.3626 110.184L89.3003 109.063C89.3847 109.014 89.3766 108.938 89.3003 108.886L87.0611 107.591C87.0114 107.562 86.9551 107.546 86.8973 107.544C86.8396 107.543 86.7825 107.556 86.7315 107.583L86.7516 107.591ZM114.417 98.088C114.465 98.1126 114.518 98.1255 114.572 98.1255C114.626 98.1255 114.679 98.1126 114.727 98.088L116.664 96.9664C116.749 96.9181 116.745 96.8418 116.664 96.7895L114.421 95.4951C114.373 95.4704 114.32 95.4575 114.266 95.4575C114.213 95.4575 114.16 95.4704 114.112 95.4951L112.158 96.6006C112.078 96.6488 112.082 96.7252 112.158 96.7774L114.417 98.088ZM89.5656 105.947L87.636 107.069C87.5556 107.113 87.5596 107.193 87.636 107.246L89.8791 108.54C89.927 108.565 89.9801 108.578 90.0339 108.578C90.0877 108.578 90.1408 108.565 90.1887 108.54L92.1263 107.418C92.2107 107.37 92.2067 107.29 92.1263 107.242L89.8832 105.947C89.8343 105.921 89.7797 105.907 89.7244 105.907C89.669 105.907 89.6145 105.921 89.5656 105.947ZM68.3159 124.688C68.364 124.712 68.4169 124.724 68.4706 124.724C68.5243 124.724 68.5773 124.712 68.6254 124.688L70.567 123.567C70.6474 123.518 70.6434 123.438 70.567 123.39L68.3239 122.095C68.276 122.071 68.223 122.058 68.1691 122.058C68.1153 122.058 68.0622 122.071 68.0144 122.095L66.0767 123.217C65.9923 123.261 65.9963 123.342 66.0767 123.394L68.3159 124.688ZM64.0546 120.668L62.113 121.806C62.0326 121.85 62.0366 121.931 62.113 121.983L64.3561 123.277C64.4043 123.301 64.4572 123.313 64.5109 123.313C64.5646 123.313 64.6176 123.301 64.6657 123.277L66.6033 122.156C66.6877 122.107 66.6797 122.027 66.6033 121.979L64.3642 120.684C64.317 120.658 64.2642 120.644 64.2104 120.643C64.1565 120.641 64.1031 120.653 64.0546 120.676V120.668ZM71.4595 123.052L73.4011 121.931C73.4816 121.882 73.4775 121.802 73.4011 121.754L71.154 120.463C71.1058 120.44 71.0529 120.427 70.9992 120.427C70.9455 120.427 70.8926 120.44 70.8444 120.463L68.9068 121.581C68.8224 121.629 68.8304 121.709 68.9068 121.762L71.154 123.052C71.201 123.077 71.2529 123.09 71.3058 123.091C71.3587 123.093 71.4113 123.082 71.4595 123.06V123.052ZM74.2976 121.412L76.2353 120.294C76.3157 120.246 76.3116 120.166 76.2353 120.114L73.968 118.827C73.9198 118.803 73.8669 118.791 73.8132 118.791C73.7595 118.791 73.7066 118.803 73.6584 118.827L71.7208 119.945C71.6364 119.993 71.6444 120.073 71.7208 120.126L73.964 121.42C74.0162 121.447 74.0744 121.459 74.1329 121.456C74.1914 121.453 74.2482 121.435 74.2976 121.404V121.412ZM77.1317 119.776L79.0694 118.658C79.1538 118.61 79.1457 118.53 79.0694 118.477L76.8262 117.183C76.7788 117.159 76.7265 117.147 76.6734 117.147C76.6204 117.147 76.5681 117.159 76.5207 117.183L74.579 118.301C74.4986 118.349 74.5026 118.429 74.579 118.481L76.8222 119.796C76.8703 119.82 76.9233 119.832 76.9769 119.832C77.0306 119.832 77.0836 119.82 77.1317 119.796V119.776ZM66.8888 119.032L64.9471 120.15C64.8667 120.198 64.8707 120.278 64.9471 120.331L67.1903 121.625C67.2384 121.649 67.2913 121.661 67.345 121.661C67.3987 121.661 67.4517 121.649 67.4998 121.625L69.4374 120.503C69.5218 120.455 69.5178 120.375 69.4374 120.327L67.1943 119.028C67.1458 119.007 67.093 118.997 67.0401 118.999C66.9872 119.001 66.9354 119.015 66.8888 119.04V119.032ZM69.7229 117.396L67.7812 118.514C67.7008 118.562 67.7048 118.642 67.7812 118.694L70.0244 119.989C70.0722 120.014 70.1253 120.026 70.1791 120.026C70.233 120.026 70.286 120.014 70.3339 119.989L72.2715 118.871C72.356 118.823 72.3519 118.743 72.2715 118.69L70.0284 117.396C69.9802 117.374 69.9276 117.364 69.8747 117.365C69.8218 117.366 69.7698 117.38 69.7229 117.404V117.396ZM81.0592 110.847L79.1216 111.969C79.0372 112.017 79.0452 112.098 79.1216 112.146L81.3648 113.44C81.4119 113.465 81.4643 113.478 81.5175 113.478C81.5707 113.478 81.6231 113.465 81.6703 113.44L83.612 112.319C83.6924 112.275 83.6883 112.194 83.612 112.142L81.3688 110.847C81.32 110.825 81.2668 110.814 81.2131 110.815C81.1594 110.817 81.1068 110.83 81.0592 110.855V110.847ZM78.2453 112.484L76.3076 113.605C76.2232 113.653 76.2312 113.734 76.3076 113.782L78.5468 115.081C78.5949 115.104 78.6478 115.117 78.7015 115.117C78.7552 115.117 78.8082 115.104 78.8563 115.081L80.798 113.963C80.8784 113.915 80.8743 113.834 80.798 113.782L78.5548 112.488C78.5038 112.461 78.447 112.448 78.3895 112.448C78.332 112.449 78.2755 112.464 78.2252 112.492L78.2453 112.484ZM83.9175 109.211L81.9758 110.333C81.8954 110.381 81.8994 110.462 81.9758 110.51L84.219 111.804C84.2668 111.829 84.3199 111.842 84.3737 111.842C84.4276 111.842 84.4807 111.829 84.5285 111.804L86.4662 110.683C86.5506 110.638 86.5425 110.558 86.4662 110.506L84.223 109.211C84.1727 109.184 84.1162 109.171 84.0591 109.172C84.002 109.174 83.9463 109.19 83.8974 109.219L83.9175 109.211ZM72.557 115.776L70.6193 116.894C70.5349 116.942 70.5389 117.022 70.6193 117.074L72.8625 118.369C72.9106 118.393 72.9636 118.405 73.0172 118.405C73.0709 118.405 73.1239 118.393 73.172 118.369L75.1137 117.251C75.1941 117.203 75.1901 117.123 75.1137 117.07L72.8665 115.776C72.8184 115.752 72.7654 115.74 72.7117 115.74C72.658 115.74 72.6051 115.752 72.557 115.776ZM75.371 114.14L73.4333 115.257C73.3489 115.306 73.3529 115.386 73.4333 115.438L75.6765 116.733C75.7246 116.756 75.7776 116.769 75.8312 116.769C75.8849 116.769 75.9379 116.756 75.986 116.733L77.9277 115.615C78.0081 115.567 78.0041 115.487 77.9277 115.434L75.6845 114.14C75.6394 114.116 75.5895 114.104 75.5387 114.102C75.4879 114.101 75.4374 114.111 75.391 114.132L75.371 114.14ZM73.3006 125.693L75.2423 124.572C75.3227 124.523 75.3187 124.443 75.2423 124.395L72.9991 123.096C72.951 123.073 72.8981 123.06 72.8444 123.06C72.7907 123.06 72.7377 123.073 72.6896 123.096L70.752 124.218C70.6676 124.266 70.6716 124.347 70.752 124.399L72.9911 125.693C73.0425 125.719 73.0994 125.732 73.1569 125.731C73.2144 125.729 73.2707 125.714 73.3208 125.685L73.3006 125.693ZM56.682 124.005L54.4428 122.71C54.395 122.686 54.3419 122.673 54.2881 122.673C54.2342 122.673 54.1811 122.686 54.1333 122.71L52.1956 123.816C52.1152 123.86 52.1193 123.941 52.1956 123.993L54.4388 125.287C54.4867 125.312 54.5397 125.325 54.5936 125.325C54.6474 125.325 54.7005 125.312 54.7484 125.287L56.686 124.166C56.7825 124.134 56.7744 124.053 56.682 124.005ZM60.9311 125.251L58.692 123.957C58.6441 123.932 58.591 123.919 58.5372 123.919C58.4834 123.919 58.4303 123.932 58.3824 123.957L55.3996 125.681C55.3192 125.729 55.3232 125.806 55.3996 125.858L57.6427 127.153C57.6906 127.177 57.7437 127.19 57.7975 127.19C57.8514 127.19 57.9044 127.177 57.9523 127.153L60.9351 125.428C61.0276 125.38 61.0236 125.303 60.9351 125.251H60.9311ZM53.2449 121.5L51.0057 120.198C50.9576 120.174 50.9046 120.162 50.851 120.162C50.7973 120.162 50.7443 120.174 50.6962 120.198L48.3083 121.577C48.2239 121.625 48.2319 121.705 48.3083 121.758L50.5474 123.052C50.5956 123.076 50.6485 123.088 50.7022 123.088C50.7559 123.088 50.8089 123.076 50.857 123.052L53.2449 121.673C53.3413 121.633 53.3373 121.553 53.2489 121.5H53.2449ZM55.074 120.443C55.1218 120.468 55.1749 120.481 55.2287 120.481C55.2826 120.481 55.3357 120.468 55.3835 120.443L57.3211 119.322C57.4056 119.273 57.3975 119.197 57.3211 119.145L55.074 117.858C55.0261 117.834 54.973 117.821 54.9192 117.821C54.8654 117.821 54.8123 117.834 54.7644 117.858L52.8228 118.992C52.7424 119.04 52.7464 119.117 52.8228 119.169L55.074 120.443ZM64.8828 126.67L62.6396 125.376C62.5918 125.351 62.5387 125.338 62.4848 125.338C62.431 125.338 62.3779 125.351 62.3301 125.376L58.5995 127.53C58.5191 127.579 58.5231 127.659 58.5995 127.707L60.8427 129.002C60.8905 129.026 60.9436 129.039 60.9974 129.039C61.0513 129.039 61.1044 129.026 61.1522 129.002L64.8787 126.847C64.9792 126.799 64.9752 126.722 64.8868 126.67H64.8828ZM66.744 129.295L64.5009 128.001C64.453 127.976 64.3999 127.963 64.3461 127.963C64.2923 127.963 64.2392 127.976 64.1913 128.001L61.8035 129.38C61.7231 129.428 61.7271 129.508 61.8035 129.557L64.0466 130.855C64.0947 130.879 64.1477 130.891 64.2014 130.891C64.2551 130.891 64.308 130.879 64.3561 130.855L66.74 129.476C66.8405 129.444 66.8365 129.347 66.732 129.295H66.744ZM76.1468 108.275C76.1947 108.299 76.2477 108.312 76.3016 108.312C76.3554 108.312 76.4085 108.299 76.4564 108.275L78.398 107.153C78.4784 107.109 78.4744 107.028 78.398 106.976L76.1549 105.682C76.107 105.657 76.0539 105.644 76.0001 105.644C75.9462 105.644 75.8932 105.657 75.8453 105.682L73.9077 106.803C73.8233 106.852 73.8313 106.932 73.9077 106.98L76.1468 108.275ZM70.4786 111.551C70.5267 111.575 70.5797 111.587 70.6334 111.587C70.6871 111.587 70.74 111.575 70.7881 111.551L72.7298 110.433C72.8102 110.385 72.8062 110.305 72.7298 110.252L70.4866 108.958C70.4385 108.934 70.3856 108.922 70.3319 108.922C70.2782 108.922 70.2253 108.934 70.1771 108.958L68.2395 110.08C68.1551 110.128 68.1591 110.208 68.2395 110.257L70.4786 111.551ZM57.9081 118.807C57.9559 118.832 58.009 118.845 58.0628 118.845C58.1167 118.845 58.1698 118.832 58.2176 118.807L60.1552 117.685C60.2397 117.637 60.2357 117.557 60.1552 117.509L57.9121 116.214C57.8642 116.189 57.8112 116.177 57.7573 116.177C57.7035 116.177 57.6504 116.189 57.6025 116.214L55.6609 117.336C55.5805 117.38 55.5845 117.46 55.6609 117.513L57.9081 118.807ZM73.3127 109.911C73.3606 109.935 73.4136 109.948 73.4675 109.948C73.5213 109.948 73.5744 109.935 73.6223 109.911L75.5639 108.789C75.6443 108.745 75.6403 108.665 75.5639 108.612L73.3127 107.334C73.2646 107.31 73.2116 107.298 73.1579 107.298C73.1043 107.298 73.0513 107.31 73.0032 107.334L71.0655 108.456C70.9811 108.504 70.9851 108.584 71.0655 108.632L73.3127 109.911ZM67.6445 113.187C67.6926 113.211 67.7456 113.223 67.7993 113.223C67.853 113.223 67.9059 113.211 67.954 113.187L69.8957 112.07C69.9761 112.021 69.9721 111.941 69.8957 111.889L67.6525 110.594C67.6047 110.57 67.5516 110.557 67.4978 110.557C67.4439 110.557 67.3909 110.57 67.343 110.594L65.4014 111.712C65.321 111.76 65.325 111.84 65.4014 111.893L67.6445 113.187ZM68.2998 129.504C68.2519 129.48 68.1988 129.467 68.145 129.467C68.0912 129.467 68.0381 129.48 67.9902 129.504L65.0074 131.225C64.927 131.273 64.931 131.353 65.0074 131.406L67.2505 132.7C67.2987 132.724 67.3516 132.736 67.4053 132.736C67.459 132.736 67.512 132.724 67.5601 132.7L70.5429 130.98C70.6233 130.931 70.6193 130.851 70.5429 130.799L68.2998 129.504ZM63.5803 115.535C63.6281 115.559 63.6812 115.572 63.7351 115.572C63.7889 115.572 63.842 115.559 63.8898 115.535L65.8315 114.417C65.9119 114.369 65.9079 114.289 65.8315 114.236L63.5763 112.962C63.5281 112.938 63.4752 112.926 63.4215 112.926C63.3678 112.926 63.3149 112.938 63.2667 112.962L61.3291 114.08C61.2447 114.128 61.2487 114.208 61.3291 114.26L63.5803 115.535ZM60.7663 117.171C60.8144 117.195 60.8674 117.207 60.9211 117.207C60.9747 117.207 61.0277 117.195 61.0758 117.171L63.0135 116.049C63.0979 116.001 63.0939 115.921 63.0135 115.872L60.7422 114.57C60.6943 114.545 60.6412 114.532 60.5874 114.532C60.5336 114.532 60.4805 114.545 60.4326 114.57L58.491 115.688C58.4106 115.736 58.4146 115.816 58.491 115.868L60.7663 117.171ZM120.841 99.1854C120.793 99.1617 120.74 99.1493 120.686 99.1493C120.633 99.1493 120.58 99.1617 120.532 99.1854L115.756 101.943C115.675 101.991 115.68 102.072 115.756 102.124L117.999 103.418C118.047 103.442 118.1 103.455 118.154 103.455C118.207 103.455 118.26 103.442 118.309 103.418L123.08 100.661C123.165 100.617 123.161 100.536 123.08 100.484L120.841 99.1854ZM114.574 102.803C114.526 102.779 114.473 102.766 114.419 102.766C114.365 102.766 114.312 102.779 114.264 102.803L112.327 103.925C112.242 103.973 112.246 104.054 112.327 104.102L114.57 105.396C114.618 105.421 114.671 105.434 114.725 105.434C114.779 105.434 114.832 105.421 114.88 105.396L116.821 104.275C116.902 104.231 116.898 104.15 116.821 104.098L114.574 102.803ZM76.175 124.045L78.1166 122.928C78.197 122.879 78.193 122.799 78.1166 122.747L75.8735 121.452C75.8253 121.428 75.7724 121.416 75.7187 121.416C75.665 121.416 75.612 121.428 75.5639 121.452L73.6263 122.57C73.5418 122.618 73.5499 122.698 73.6263 122.751L75.8694 124.045C75.914 124.067 75.9627 124.078 76.0121 124.078C76.0615 124.078 76.1103 124.067 76.1549 124.045H76.175ZM108.906 106.076C108.858 106.051 108.805 106.038 108.751 106.038C108.697 106.038 108.644 106.051 108.596 106.076L106.655 107.193C106.574 107.242 106.578 107.322 106.655 107.374L108.898 108.669C108.946 108.692 108.999 108.705 109.053 108.705C109.106 108.705 109.159 108.692 109.207 108.669L111.145 107.551C111.229 107.503 111.225 107.422 111.145 107.37L108.906 106.076ZM123.675 97.5493C123.627 97.5246 123.574 97.5117 123.521 97.5117C123.467 97.5117 123.414 97.5246 123.366 97.5493L121.404 98.6628C121.324 98.7111 121.328 98.7915 121.404 98.8397L123.647 100.134C123.695 100.159 123.748 100.172 123.802 100.172C123.856 100.172 123.909 100.159 123.957 100.134L125.894 99.0126C125.979 98.9683 125.975 98.8879 125.894 98.8357L123.675 97.5493ZM128.753 97.2076L123.285 94.068C123.237 94.0433 123.184 94.0304 123.131 94.0304C123.077 94.0304 123.024 94.0433 122.976 94.068L121.038 95.1895C120.954 95.2338 120.958 95.3142 121.038 95.3664L126.493 98.49C126.541 98.5146 126.594 98.5275 126.648 98.5275C126.702 98.5275 126.755 98.5146 126.803 98.49L128.745 97.3684C128.825 97.3362 128.821 97.2598 128.732 97.2076H128.753ZM98.3131 112.19C98.265 112.166 98.212 112.154 98.1583 112.154C98.1046 112.154 98.0517 112.166 98.0036 112.19L95.6157 113.569C95.5313 113.613 95.5393 113.694 95.6157 113.746L97.8588 115.04C97.9067 115.065 97.9598 115.078 98.0136 115.078C98.0675 115.078 98.1205 115.065 98.1684 115.04L100.552 113.661C100.637 113.613 100.633 113.533 100.552 113.485L98.3131 112.19ZM105.473 108.058C105.425 108.034 105.372 108.021 105.318 108.021C105.264 108.021 105.211 108.034 105.163 108.058L102.18 109.782C102.096 109.83 102.104 109.911 102.18 109.959L104.424 111.253C104.471 111.278 104.524 111.291 104.578 111.291C104.632 111.291 104.685 111.278 104.733 111.253L107.716 109.529C107.796 109.485 107.792 109.404 107.716 109.352L105.473 108.058ZM91.7484 115.981C91.7006 115.956 91.6475 115.943 91.5937 115.943C91.5398 115.943 91.4868 115.956 91.4389 115.981L75.4554 125.191C75.371 125.239 75.379 125.319 75.4554 125.372L77.6945 126.666C77.7426 126.69 77.7956 126.702 77.8493 126.702C77.903 126.702 77.9559 126.69 78.004 126.666L93.9675 117.452C94.0519 117.404 94.0479 117.324 93.9675 117.271L91.7484 115.981ZM74.8885 125.713C74.8404 125.69 74.7875 125.677 74.7338 125.677C74.6801 125.677 74.6271 125.69 74.579 125.713L72.1911 127.092C72.1107 127.136 72.1148 127.217 72.1911 127.269L74.4343 128.564C74.4822 128.588 74.5352 128.601 74.5891 128.601C74.6429 128.601 74.696 128.588 74.7438 128.564L77.1317 127.185C77.2121 127.136 77.2081 127.056 77.1317 127.008L74.8885 125.713ZM95.0288 114.088C94.9809 114.063 94.9278 114.05 94.874 114.05C94.8201 114.05 94.7671 114.063 94.7192 114.088L92.3354 115.466C92.2509 115.515 92.255 115.595 92.3354 115.643L94.5785 116.942C94.6267 116.966 94.6796 116.978 94.7333 116.978C94.787 116.978 94.8399 116.966 94.8881 116.942L97.2759 115.563C97.3563 115.515 97.3523 115.438 97.2759 115.386L95.0288 114.088ZM71.6082 127.611C71.5604 127.586 71.5073 127.573 71.4535 127.573C71.3996 127.573 71.3465 127.586 71.2987 127.611L68.9108 128.99C68.8264 129.038 68.8344 129.118 68.9108 129.167L71.154 130.465C71.2014 130.489 71.2537 130.501 71.3067 130.501C71.3598 130.501 71.4121 130.489 71.4595 130.465L73.8474 129.086C73.9318 129.038 73.9278 128.962 73.8474 128.909L71.6082 127.611ZM101.593 110.297C101.545 110.273 101.492 110.261 101.439 110.261C101.385 110.261 101.332 110.273 101.284 110.297L98.892 111.668C98.8116 111.716 98.8156 111.796 98.892 111.848L101.135 113.143C101.183 113.168 101.236 113.18 101.29 113.18C101.344 113.18 101.397 113.168 101.445 113.143L103.833 111.768C103.913 111.72 103.909 111.639 103.833 111.587L101.593 110.297ZM111.74 104.44C111.692 104.416 111.639 104.403 111.585 104.403C111.531 104.403 111.478 104.416 111.43 104.44L109.489 105.561C109.408 105.609 109.412 105.69 109.489 105.738L111.732 107.036C111.78 107.06 111.833 107.073 111.887 107.073C111.94 107.073 111.993 107.06 112.041 107.036L113.979 105.919C114.063 105.871 114.059 105.79 113.979 105.738L111.74 104.44ZM117.951 99.9291L119.888 98.8075C119.973 98.7633 119.969 98.6829 119.888 98.6307L117.645 97.3362C117.597 97.3115 117.544 97.2987 117.491 97.2987C117.437 97.2987 117.384 97.3115 117.336 97.3362L115.374 98.4498C115.294 98.498 115.298 98.5784 115.374 98.6266L117.617 99.9211C117.665 99.9477 117.718 99.9623 117.773 99.9637C117.828 99.9651 117.882 99.9533 117.931 99.9291H117.951ZM105.276 99.8487L107.217 98.7271C107.298 98.6789 107.294 98.5985 107.217 98.5503L104.974 97.2558C104.926 97.2311 104.873 97.2183 104.819 97.2183C104.766 97.2183 104.713 97.2311 104.665 97.2558L102.727 98.3734C102.643 98.4216 102.647 98.502 102.727 98.5543L104.97 99.8487C105.015 99.8688 105.064 99.8792 105.113 99.8792C105.162 99.8792 105.211 99.8688 105.256 99.8487H105.276ZM98.8437 110.956L104.512 107.68C104.592 107.635 104.588 107.555 104.512 107.503L102.269 106.208C102.221 106.184 102.168 106.171 102.114 106.171C102.06 106.171 102.007 106.184 101.959 106.208L96.291 109.481C96.2066 109.529 96.2147 109.609 96.291 109.662L98.5342 110.956C98.5816 110.978 98.6332 110.989 98.6854 110.988C98.7376 110.987 98.7889 110.975 98.8357 110.952L98.8437 110.956ZM114.795 101.557C114.843 101.582 114.896 101.595 114.95 101.595C115.004 101.595 115.057 101.582 115.105 101.557L117.042 100.44C117.127 100.391 117.119 100.311 117.042 100.259L114.803 98.9643C114.755 98.9406 114.702 98.9282 114.648 98.9282C114.595 98.9282 114.542 98.9406 114.494 98.9643L112.532 100.098C112.451 100.146 112.455 100.227 112.532 100.275L114.795 101.557ZM111.901 99.7161L113.838 98.5945C113.923 98.5503 113.919 98.4699 113.838 98.4176L111.599 97.1232C111.551 97.0985 111.498 97.0856 111.444 97.0856C111.391 97.0856 111.338 97.0985 111.29 97.1232L109.344 98.2367C109.264 98.2849 109.268 98.3653 109.344 98.4136L111.587 99.708C111.634 99.7333 111.686 99.7472 111.739 99.7486C111.792 99.75 111.845 99.7388 111.893 99.7161H111.901ZM96.0056 112.58L97.9473 111.458C98.0277 111.41 98.0237 111.33 97.9473 111.282L95.676 109.999C95.6281 109.975 95.5751 109.962 95.5212 109.962C95.4674 109.962 95.4143 109.975 95.3664 109.999L93.4288 111.121C93.3444 111.165 93.3524 111.245 93.4288 111.298L95.6679 112.592C95.7186 112.619 95.7753 112.633 95.8328 112.633C95.8903 112.633 95.9469 112.619 95.9976 112.592L96.0056 112.58ZM108.54 105.175C108.588 105.2 108.641 105.213 108.695 105.213C108.749 105.213 108.802 105.2 108.85 105.175L110.787 104.054C110.872 104.009 110.868 103.929 110.787 103.877L108.544 102.582C108.496 102.558 108.443 102.545 108.389 102.545C108.335 102.545 108.282 102.558 108.234 102.582L106.265 103.716C106.184 103.764 106.188 103.845 106.265 103.893L108.54 105.175ZM81.8472 120.773L83.7848 119.655C83.8692 119.607 83.8612 119.527 83.7848 119.474L81.5135 118.188C81.4657 118.163 81.4126 118.15 81.3587 118.15C81.3049 118.15 81.2518 118.163 81.204 118.188L79.2623 119.306C79.1819 119.354 79.1859 119.434 79.2623 119.486L81.5055 120.781C81.5558 120.805 81.6113 120.817 81.6673 120.816C81.7232 120.815 81.778 120.8 81.8271 120.773H81.8472ZM84.6612 119.137L86.5988 118.019C86.6832 117.971 86.6792 117.89 86.5988 117.838L84.3557 116.544C84.3075 116.52 84.2546 116.508 84.2009 116.508C84.1472 116.508 84.0942 116.52 84.0461 116.544L82.1045 117.665C82.0241 117.714 82.0281 117.794 82.1045 117.842L84.3476 119.137C84.396 119.162 84.4498 119.175 84.5044 119.175C84.559 119.175 84.6128 119.162 84.6612 119.137ZM78.993 122.409L80.9306 121.291C81.015 121.243 81.007 121.163 80.9306 121.111L78.6875 119.816C78.6393 119.792 78.5864 119.78 78.5327 119.78C78.479 119.78 78.426 119.792 78.3779 119.816L76.4403 120.934C76.3599 120.982 76.3639 121.062 76.4403 121.115L78.6834 122.409C78.7316 122.433 78.7845 122.445 78.8382 122.445C78.8919 122.445 78.9448 122.433 78.993 122.409ZM90.3294 115.864L92.271 114.743C92.3514 114.695 92.3474 114.618 92.271 114.566L90.0279 113.272C89.98 113.247 89.9269 113.234 89.8731 113.234C89.8193 113.234 89.7662 113.247 89.7183 113.272L87.7807 114.393C87.6963 114.441 87.7003 114.518 87.7807 114.57L90.0239 115.864C90.0712 115.888 90.1235 115.901 90.1766 115.901C90.2297 115.901 90.282 115.888 90.3294 115.864ZM87.5154 117.501L89.453 116.379C89.5374 116.335 89.5334 116.254 89.453 116.202L87.2099 114.908C87.162 114.883 87.1089 114.87 87.0551 114.87C87.0012 114.87 86.9482 114.883 86.9003 114.908L84.9587 116.029C84.8783 116.077 84.8823 116.158 84.9587 116.206L87.2018 117.501C87.2476 117.523 87.2977 117.534 87.3485 117.534C87.3994 117.534 87.4495 117.523 87.4953 117.501H87.5154ZM93.1836 114.228L95.1252 113.107C95.2056 113.058 95.2016 112.978 95.1252 112.93L92.862 111.635C92.8141 111.611 92.7611 111.598 92.7072 111.598C92.6534 111.598 92.6003 111.611 92.5524 111.635L90.6148 112.757C90.5304 112.801 90.5344 112.882 90.6148 112.934L92.858 114.228C92.9053 114.252 92.9576 114.265 93.0107 114.265C93.0638 114.265 93.1161 114.252 93.1635 114.228H93.1836ZM106.128 90.0158C106.176 90.0405 106.229 90.0534 106.283 90.0534C106.337 90.0534 106.39 90.0405 106.438 90.0158L108.379 88.8942C108.46 88.846 108.456 88.7696 108.379 88.7173L107.78 88.3716C107.732 88.3469 107.679 88.3341 107.625 88.3341C107.572 88.3341 107.519 88.3469 107.471 88.3716L105.533 89.4892C105.453 89.5374 105.457 89.6178 105.533 89.6701L106.128 90.0158ZM92.1826 99.0206C92.2307 99.0444 92.2837 99.0567 92.3374 99.0567C92.391 99.0567 92.444 99.0444 92.4921 99.0206L94.4298 97.903C94.5142 97.8548 94.5102 97.7744 94.4298 97.7221L92.1906 96.4277C92.1428 96.403 92.0897 96.3902 92.0359 96.3902C91.982 96.3902 91.929 96.403 91.8811 96.4277L89.9394 97.5453C89.859 97.5935 89.8631 97.6739 89.9394 97.7262L92.1826 99.0206ZM97.8508 95.7443C97.8987 95.769 97.9517 95.7819 98.0056 95.7819C98.0594 95.7819 98.1125 95.769 98.1603 95.7443L100.098 94.6308C100.182 94.5865 100.178 94.5061 100.098 94.4539L97.8548 93.1594C97.8067 93.1357 97.7537 93.1233 97.7 93.1233C97.6464 93.1233 97.5934 93.1357 97.5453 93.1594L95.6036 94.281C95.5232 94.3293 95.5272 94.4097 95.6036 94.4579L97.8508 95.7443ZM88.7214 101.019C88.7695 101.042 88.8225 101.055 88.8761 101.055C88.9298 101.055 88.9828 101.042 89.0309 101.019L90.9686 99.901C91.053 99.8527 91.0449 99.7723 90.9686 99.7201L88.7294 98.4256C88.6813 98.4019 88.6283 98.3895 88.5746 98.3895C88.521 98.3895 88.468 98.4019 88.4199 98.4256L86.4782 99.5432C86.3978 99.5914 86.4018 99.6719 86.4782 99.7241L88.7214 101.019ZM95.0167 97.4005C95.0648 97.4243 95.1178 97.4367 95.1715 97.4367C95.2251 97.4367 95.2781 97.4243 95.3262 97.4005L97.2639 96.283C97.3483 96.2347 97.3443 96.1543 97.2639 96.1021L95.0207 94.8076C94.9726 94.7839 94.9196 94.7715 94.8659 94.7715C94.8123 94.7715 94.7593 94.7839 94.7112 94.8076L92.7695 95.9292C92.6891 95.9775 92.6931 96.0579 92.7695 96.1061L95.0167 97.4005ZM83.0532 104.307C83.1006 104.331 83.1529 104.343 83.2059 104.343C83.259 104.343 83.3113 104.331 83.3587 104.307L85.3004 103.185C85.3808 103.137 85.3767 103.057 85.3004 103.008L83.0492 101.706C83.001 101.682 82.9481 101.67 82.8944 101.67C82.8407 101.67 82.7878 101.682 82.7396 101.706L80.802 102.815C80.7176 102.864 80.7256 102.944 80.802 102.996L83.0532 104.307ZM85.8672 102.671C85.915 102.695 85.9681 102.708 86.0219 102.708C86.0758 102.708 86.1289 102.695 86.1767 102.671L88.1144 101.553C88.1988 101.505 88.1907 101.425 88.1144 101.372L85.8712 100.078C85.8238 100.054 85.7715 100.042 85.7184 100.042C85.6654 100.042 85.6131 100.054 85.5657 100.078L83.624 101.195C83.5436 101.244 83.5476 101.324 83.624 101.376L85.8672 102.671ZM100.44 93.3042C100.488 93.3288 100.541 93.3417 100.594 93.3417C100.648 93.3417 100.701 93.3288 100.749 93.3042L102.687 92.1826C102.771 92.1384 102.767 92.058 102.687 92.0057L102.108 91.656C102.06 91.6322 102.007 91.6199 101.953 91.6199C101.9 91.6199 101.847 91.6322 101.798 91.656L99.8608 92.7735C99.7764 92.8218 99.7804 92.9022 99.8608 92.9544L100.44 93.3042ZM108.942 88.3957C108.99 88.4204 109.043 88.4333 109.097 88.4333C109.151 88.4333 109.204 88.4204 109.252 88.3957L111.193 87.2742C111.274 87.2259 111.27 87.1455 111.193 87.0973L110.598 86.7516C110.55 86.7278 110.497 86.7155 110.443 86.7155C110.39 86.7155 110.337 86.7278 110.289 86.7516L108.347 87.8731C108.267 87.9214 108.271 88.0018 108.347 88.05L108.942 88.3957ZM113.653 91.1173C113.702 91.141 113.755 91.1534 113.808 91.1534C113.862 91.1534 113.915 91.141 113.963 91.1173L115.905 89.9997C115.985 89.9515 115.981 89.8711 115.905 89.8188L113.661 88.5244C113.613 88.5006 113.56 88.4883 113.507 88.4883C113.453 88.4883 113.4 88.5006 113.352 88.5244L111.426 89.646C111.342 89.6942 111.346 89.7746 111.426 89.8269L113.653 91.1173ZM120.741 98.3091L122.678 97.1875C122.763 97.1392 122.759 97.0629 122.678 97.0106L120.435 95.7162C120.387 95.6915 120.334 95.6786 120.28 95.6786C120.227 95.6786 120.173 95.6915 120.126 95.7162L118.188 96.8136C118.108 96.8619 118.112 96.9382 118.188 96.9905L120.431 98.2849C120.481 98.3151 120.538 98.3317 120.597 98.3331C120.655 98.3345 120.713 98.3207 120.765 98.293L120.741 98.3091ZM103.314 91.656C103.362 91.6806 103.415 91.6935 103.469 91.6935C103.523 91.6935 103.576 91.6806 103.624 91.656L105.561 90.5344C105.646 90.4902 105.642 90.4098 105.561 90.3575L104.962 90.0118C104.914 89.988 104.861 89.9757 104.807 89.9757C104.754 89.9757 104.701 89.988 104.653 90.0118L102.715 91.1293C102.631 91.1776 102.639 91.258 102.715 91.3102L103.314 91.656ZM80.2191 105.927C80.2669 105.952 80.32 105.965 80.3738 105.965C80.4277 105.965 80.4808 105.952 80.5286 105.927L82.4703 104.805C82.5507 104.757 82.5466 104.677 82.4703 104.629L80.2271 103.334C80.1793 103.309 80.1262 103.297 80.0723 103.297C80.0185 103.297 79.9654 103.309 79.9176 103.334L77.988 104.456C77.9036 104.5 77.9116 104.58 77.988 104.633L80.2191 105.927Z" fill="#455A64"/>
<path d="M92.7896 122.944L111.929 111.893C112.253 111.728 112.611 111.642 112.974 111.642C113.337 111.642 113.695 111.728 114.019 111.893L124.994 118.228C125.573 118.562 125.573 119.1 124.994 119.434L105.855 130.485C105.531 130.65 105.173 130.735 104.809 130.735C104.446 130.735 104.088 130.65 103.764 130.485L92.7896 124.15C92.2148 123.816 92.2148 123.273 92.7896 122.944Z" fill="#263238"/>
<path d="M127.989 69.8034H127.965L124.696 67.922C124.507 67.8376 124.23 67.922 123.892 68.1713C120.853 70.4948 116.765 71.2184 113.44 70.1571C113.226 69.9564 113.022 69.7444 112.829 69.522L112.769 69.4536C112.673 69.3425 112.559 69.2487 112.431 69.1763L112.375 69.1441L109.103 67.2668C108.729 67.0899 108.391 67.2668 108.166 67.8215C105.006 75.6726 98.2729 83.6282 93.7826 85.6181C93.443 85.7704 93.1411 85.9955 92.8982 86.2773C92.5754 86.6278 92.3974 87.0874 92.3997 87.5637L93.0469 105.191C93.0469 110.285 95.1976 115.664 99.5834 118.281L102.968 120.234L103.029 120.266C104.859 121.294 106.928 121.82 109.026 121.79C109.497 121.79 109.975 121.77 110.47 121.722C111.431 121.564 112.323 121.118 113.026 120.443C122.839 110.309 127.611 96.5927 127.611 89.0029L128.238 70.5431C128.262 70.1451 128.166 69.8999 127.989 69.8034Z" fill="#36DBDF"/>
<path d="M128.238 70.543L127.591 88.9827C127.591 96.5725 122.819 110.289 113.006 120.423C112.303 121.098 111.411 121.543 110.449 121.702C109.955 121.75 109.477 121.77 109.006 121.77C106.908 121.799 104.838 121.274 103.008 120.246L102.948 120.214L102.832 120.142C98.4457 117.525 96.295 112.146 96.295 107.053L95.676 89.4249C95.6736 88.9486 95.8517 88.489 96.1744 88.1385C96.4174 87.8567 96.7193 87.6316 97.0588 87.4793C101.549 85.4693 108.283 77.5338 111.442 69.6827C111.668 69.128 112.009 68.9471 112.383 69.1239L112.439 69.1561C112.567 69.2286 112.681 69.3224 112.777 69.4335L112.837 69.5018C116.19 73.4052 122.783 73.4012 127.185 70.0325C127.518 69.7792 127.796 69.6988 127.989 69.7832H128.013C128.166 69.8998 128.262 70.145 128.238 70.543Z" fill="#36DBDF"/>
<path opacity="0.4" d="M127.969 69.7791C127.78 69.6947 127.502 69.7791 127.165 70.0284C123.02 73.2002 116.93 73.3891 113.436 70.1329C116.777 71.1982 120.857 70.4746 123.888 68.147C124.222 67.8938 124.499 67.8134 124.692 67.8978L127.969 69.7791Z" fill="white"/>
<path opacity="0.4" d="M112.363 69.1199C111.989 68.9431 111.647 69.1199 111.422 69.6787C108.263 77.5298 101.529 85.4853 97.0388 87.4752C96.6992 87.6276 96.3973 87.8526 96.1544 88.1345C96.07 88.2306 95.9947 88.3342 95.9293 88.4441L92.665 86.5587C92.7301 86.4509 92.804 86.3487 92.8861 86.2532C92.9312 86.2006 92.9796 86.151 93.0308 86.1044L93.0871 86.0481L93.1434 85.9959C93.3291 85.8306 93.5393 85.695 93.7665 85.5939C98.2568 83.604 104.99 75.6484 108.15 67.7973C108.375 67.2426 108.713 67.0657 109.087 67.2426L112.363 69.1199Z" fill="white"/>
<path d="M93.0349 86.097C93.0518 86.0773 93.0709 86.0596 93.0917 86.0442L93.0349 86.101C93.0349 86.101 93.0308 86.097 93.0349 86.097Z" fill="#36DBDF"/>
<path opacity="0.15" d="M93.0917 86.0281L93.0348 86.0849C93.0515 86.0638 93.0706 86.0448 93.0917 86.0281Z" fill="black"/>
<path opacity="0.15" d="M103.016 120.242L102.956 120.214L99.5714 118.256C95.1855 115.639 93.0348 110.261 93.0348 105.167L92.3876 87.5396C92.3806 87.1923 92.4772 86.8509 92.665 86.5587L95.9292 88.4441C95.7443 88.7358 95.6492 89.0756 95.6559 89.421L96.3031 107.049C96.3031 112.142 98.4538 117.501 102.84 120.138L102.956 120.21L103.016 120.242Z" fill="black"/>
<path d="M114.57 104.026L109.344 107.041L110.148 97.5895C109.525 97.2599 109.123 96.4478 109.123 95.278C109.123 93.1997 110.389 90.7796 111.937 89.8792C113.485 88.9787 114.751 89.9354 114.751 92.0138C114.72 93.2472 114.368 94.4511 113.73 95.5072L114.57 104.026Z" fill="#455A64"/>
<path d="M114.562 104.026L109.83 101.292L109.34 107.041L114.562 104.026Z" fill="#37474F"/>
<path d="M111.953 89.8792C110.928 90.4701 110.039 91.7083 109.541 93.0751L113.766 95.5072C114.404 94.4511 114.756 93.2472 114.787 92.0138C114.775 89.9354 113.513 88.9787 111.953 89.8792Z" fill="#37474F"/>
<path d="M46.5998 158.927V160.495C46.5998 162.344 47.8058 164.189 50.25 165.6C53.9243 167.719 59.3191 168.237 63.8416 167.156L68.0385 169.568L71.2545 168.836L73.4534 170.11L73.574 172.768L74.78 173.455L77.7588 173.716L79.8975 174.922V176.422L82.5869 177.97H89.4209L91.869 176.559V174.975L70.0244 163.948C70.9511 163.04 71.4924 161.811 71.5359 160.515V158.907C71.2062 157.371 69.9279 156.579 67.8897 155.401C63.0215 152.587 55.1343 152.587 50.2661 155.401C48.0631 156.688 46.8209 157.275 46.5998 158.927ZM53.2891 157.09C54.0628 156.697 54.918 156.493 55.7855 156.493C56.653 156.493 57.5083 156.697 58.2819 157.09C59.6608 157.894 59.6608 159.176 58.2819 159.972C57.5083 160.364 56.653 160.569 55.7855 160.569C54.918 160.569 54.0628 160.364 53.2891 159.972C51.9102 159.192 51.9102 157.886 53.2891 157.09Z" fill="#36DBDF"/>
<path opacity="0.1" d="M46.5998 158.927V160.495C46.5998 162.344 47.8058 164.189 50.25 165.6C53.9243 167.719 59.3191 168.237 63.8416 167.156L68.0385 169.568L71.2545 168.836L73.4534 170.11L73.574 172.768L74.78 173.455L77.7588 173.716L79.8975 174.922V176.422L82.5869 177.97H89.4209L91.869 176.559V174.975L70.0244 163.948C70.9511 163.04 71.4924 161.811 71.5359 160.515V158.907C71.2062 157.371 69.9279 156.579 67.8897 155.401C63.0215 152.587 55.1343 152.587 50.2661 155.401C48.0631 156.688 46.8209 157.275 46.5998 158.927ZM53.2891 157.09C54.0628 156.697 54.918 156.493 55.7855 156.493C56.653 156.493 57.5083 156.697 58.2819 157.09C59.6608 157.894 59.6608 159.176 58.2819 159.972C57.5083 160.364 56.653 160.569 55.7855 160.569C54.918 160.569 54.0628 160.364 53.2891 159.972C51.9102 159.192 51.9102 157.886 53.2891 157.09Z" fill="black"/>
<path d="M50.2514 164.016C53.9257 166.139 59.3205 166.657 63.843 165.572L68.0399 167.984L71.2559 167.256L73.4549 168.526L73.5755 171.188L74.7815 171.871L77.7603 172.132L80.0838 173.427L79.8989 174.826L82.5883 176.378H89.4223L91.8705 174.967L70.0258 162.352C72.5986 159.622 71.8911 156.137 67.8912 153.829C63.023 151.015 55.1357 151.015 50.2675 153.829C45.3993 156.643 45.3832 161.202 50.2514 164.016ZM53.2905 155.506C54.0642 155.113 54.9195 154.909 55.787 154.909C56.6544 154.909 57.5097 155.113 58.2834 155.506C59.6622 156.31 59.6622 157.592 58.2834 158.388C57.5097 158.78 56.6544 158.985 55.787 158.985C54.9195 158.985 54.0642 158.78 53.2905 158.388C51.9117 157.584 51.9117 156.298 53.2905 155.502V155.506Z" fill="#36DBDF"/>
<path opacity="0.3" d="M59.0618 164.74C55.9704 164.74 53.0881 164.056 50.9414 162.818C49.06 161.733 47.9787 160.314 47.9787 158.927C47.9787 157.54 49.06 156.113 50.9414 155.031C53.0881 153.793 55.9704 153.11 59.0618 153.11C62.1532 153.11 65.0355 153.793 67.1822 155.031C69.0636 156.121 70.1449 157.536 70.1449 158.927C70.1449 160.318 69.0636 161.741 67.1822 162.818C65.0355 164.056 62.1532 164.74 59.0618 164.74ZM59.0618 153.665C56.0669 153.665 53.281 154.32 51.2148 155.51C49.5103 156.495 48.5334 157.741 48.5334 158.927C48.5334 160.113 49.5103 161.339 51.2148 162.34C53.281 163.546 56.0669 164.189 59.0618 164.189C62.0567 164.189 64.8426 163.53 66.9088 162.34C68.6133 161.355 69.5902 160.109 69.5902 158.927C69.5902 157.745 68.6133 156.515 66.9088 155.51C64.8426 154.32 62.0567 153.665 59.0618 153.665Z" fill="black"/>
<path opacity="0.1" d="M54.5755 165.624V167.232C57.6309 167.896 60.7957 167.874 63.8416 167.168V165.584C60.7937 166.281 57.6293 166.294 54.5755 165.624Z" fill="black"/>
<path opacity="0.1" d="M68.0385 167.992V169.58L71.2625 168.848V167.264L68.0385 167.992Z" fill="black"/>
<path opacity="0.1" d="M73.4615 168.535V170.122L73.582 172.78V171.196L73.4615 168.535Z" fill="black"/>
<path opacity="0.1" d="M74.768 171.879V173.467L77.7468 173.728V172.14L74.768 171.879Z" fill="black"/>
<path opacity="0.1" d="M89.4048 176.386H82.5748V177.974H89.4048V176.386Z" fill="black"/>
<path opacity="0.15" d="M91.853 174.971V176.558L89.4048 177.969V176.386L90.4741 175.767V176.45L91.0691 176.108V175.417L91.853 174.971Z" fill="black"/>
<path d="M91.0691 175.417L90.4741 175.767V176.45L91.0691 176.108V175.417Z" fill="#36DBDF"/>
<path opacity="0.15" d="M91.069 175.417V176.108L68.6656 163.172L69.2565 162.826L91.069 175.417Z" fill="black"/>
<path opacity="0.15" d="M69.2565 162.826V163.518L68.6656 163.172L69.2565 162.826Z" fill="black"/>
</svg>
