<svg width="423" height="380" viewBox="0 0 423 380" fill="none" xmlns="http://www.w3.org/2000/svg">
<path opacity="0.19" d="M403.037 86.1543H416.276L423 73.6861L416.381 61.4425L423 49.199L416.276 36.7307H403.037L396.523 24.7118L403.142 12.4682L396.418 0H382.969L376.35 12.2436H363.427L356.808 0H343.359L336.74 12.2436H323.817L317.197 0H303.749L297.13 12.2436H284.206L277.587 0H264.139L257.519 12.2436H244.596L237.977 0H224.528L217.909 12.2436H205.091L198.472 0H185.023L178.404 12.2436H165.481L158.861 0H145.413L138.794 12.2436H125.87L119.251 0H105.803L99.1833 12.2436H86.2601L79.6408 0H66.1922L59.573 12.2436H46.6498L40.0306 0H26.582L19.9627 12.2436H6.72432L0 24.7118L6.72432 37.18H19.9627L26.4769 49.199L19.8577 61.4425L26.4769 73.6861L19.9627 85.705H6.72432L0 98.1732L6.72432 110.641H19.9627L26.4769 122.66L19.8577 134.904L26.4769 147.148L19.9627 159.166H6.72432L0 171.635L6.72432 184.103H19.9627L26.4769 196.122L19.8577 208.365L26.4769 220.609L19.9627 232.628H6.72432L0 245.096L6.72432 257.564H19.9627L26.4769 269.583L19.8577 281.827L26.4769 294.07L19.9627 306.089H6.72432L0 318.557L6.72432 331.026H19.9627L26.4769 343.045L19.8577 355.288L26.582 367.756H39.8204L46.4396 380H59.8882L66.5075 367.756H79.4307L86.0499 380H99.4985L106.118 367.756H119.041L125.66 380H139.109L145.728 367.756H158.651L165.27 380H178.719L185.338 367.756H198.262L204.881 380H218.329L224.949 367.756H237.872L244.491 380H257.94L264.559 367.756H277.482L284.101 380H297.55L304.169 367.756H317.092L323.712 380H337.16L343.779 367.756H356.703L363.322 380H376.77L383.39 367.756H396.313L402.932 380H416.276L423 367.532L416.381 355.288L423 343.045L416.276 330.576H403.037L396.523 318.557L403.037 306.539H416.276L423 294.07L416.381 281.827L423 269.583L416.276 256.778H403.037L396.523 244.759L403.037 232.74H416.276L423 220.272L416.381 208.028L423 195.785L416.276 183.317H403.037L396.523 171.298L403.037 159.279H416.276L423 146.811L416.381 134.567L423 122.323L416.276 109.855H403.037L396.523 97.8362L403.037 86.1543ZM396.103 97.9486H383.18L376.77 86.042L383.285 74.023H396.208L402.722 86.042L396.103 97.9486ZM396.103 122.773L402.617 134.792L396.103 146.811H383.18L376.665 134.792L383.18 122.773H396.103ZM396.103 196.122L402.617 208.141L396.103 220.16H383.18L376.665 208.141L383.18 196.122H396.103ZM396.103 269.471L402.617 281.49L396.103 293.509H383.18L376.665 281.49L383.18 269.471H396.103ZM396.103 342.708L402.617 354.727L396.103 366.746H383.18L376.665 354.727L383.18 342.708H396.103ZM363.427 354.502L356.913 342.483L363.427 330.464H376.35L382.864 342.483L376.35 354.502H363.427ZM323.817 354.502L317.302 342.483L323.817 330.464H336.74L343.254 342.483L336.74 354.502H323.817ZM284.311 354.502L277.797 342.483L284.311 330.464H297.235L303.749 342.483L297.235 354.502H284.311ZM244.701 354.502L238.187 342.483L244.701 330.464H257.624L264.139 342.483L257.624 354.502H244.701ZM205.091 354.502L198.577 342.483L205.091 330.464H218.014L224.528 342.483L218.014 354.502H205.091ZM165.481 354.502L158.966 342.483L165.481 330.464H178.404L184.918 342.483L178.404 354.502H165.481ZM125.87 354.502L119.356 342.483L125.87 330.464H138.794L145.308 342.483L138.794 354.502H125.87ZM86.3651 354.502L79.851 342.483L86.3651 330.464H99.2884L105.803 342.483L99.2884 354.502H86.3651ZM46.7548 354.502L40.2407 342.483L46.7548 330.464H59.6781L66.1922 342.483L59.6781 354.502H46.7548ZM79.4307 25.0488L85.9449 37.0677L79.5358 48.9743H66.6125L60.0984 36.9554L66.5075 25.0488H79.4307ZM119.041 25.0488L125.555 37.0677L119.146 48.9743H106.223L99.7087 36.9554L106.118 25.0488H119.041ZM158.546 25.0488L165.06 37.0677L158.651 48.9743H145.728L139.214 36.9554L145.623 25.0488H158.546ZM198.156 25.0488L204.671 37.0677L198.262 48.9743H185.338L178.824 36.9554L185.233 25.0488H198.156ZM237.767 25.0488L244.281 37.0677L237.872 48.9743H224.949L218.434 36.9554L224.843 25.0488H237.767ZM277.377 25.0488L283.891 37.0677L277.482 48.9743H264.559L258.045 36.9554L264.454 25.0488H277.377ZM316.987 25.0488L323.501 37.0677L317.092 48.9743H304.169L297.655 36.9554L304.064 25.0488H316.987ZM356.492 25.0488L363.007 37.0677L356.598 48.9743H343.674L337.16 36.9554L343.569 25.0488H356.492ZM396.103 49.5359L402.617 61.5549L396.103 73.5738H383.18L376.665 61.5549L383.18 49.5359H396.103ZM343.674 342.258L337.16 330.239L343.569 318.333H356.492L363.007 330.352L356.598 342.258H343.674ZM304.064 342.258L297.55 330.239L303.959 318.333H316.882L323.396 330.352L316.987 342.258H304.064ZM264.454 342.258L257.94 330.239L264.349 318.333H277.272L283.786 330.352L277.377 342.258H264.454ZM224.843 342.258L218.329 330.239L224.738 318.333H237.662L244.176 330.352L237.767 342.258H224.843ZM185.338 342.258L178.824 330.239L185.233 318.333H198.156L204.671 330.352L198.262 342.258H185.338ZM145.728 342.258L139.214 330.239L145.623 318.333H158.546L165.06 330.352L158.651 342.258H145.728ZM106.118 342.258L99.6036 330.239L106.013 318.333H118.936L125.45 330.352L119.041 342.258H106.118ZM66.5075 342.258L59.9933 330.239L66.4024 318.333H79.3256L85.8398 330.352L79.4307 342.258H66.5075ZM79.4307 49.5359L85.9449 61.5549L79.4307 73.5738H66.5075L59.9933 61.5549L66.5075 49.5359H79.4307ZM119.041 49.5359L125.555 61.5549L119.041 73.5738H106.118L99.6036 61.5549L106.118 49.5359H119.041ZM158.651 49.5359L165.165 61.5549L158.651 73.5738H145.728L139.214 61.5549L145.728 49.5359H158.651ZM198.156 49.5359L204.671 61.5549L198.156 73.5738H185.233L178.719 61.5549L185.233 49.5359H198.156ZM237.767 49.5359L244.281 61.5549L237.767 73.5738H224.843L218.329 61.5549L224.843 49.5359H237.767ZM277.377 49.5359L283.891 61.5549L277.377 73.5738H264.454L257.94 61.5549L264.454 49.5359H277.377ZM316.987 49.5359L323.501 61.5549L316.987 73.5738H304.064L297.55 61.5549L304.064 49.5359H316.987ZM356.598 49.5359L363.112 61.5549L356.598 73.5738H343.674L337.16 61.5549L343.674 49.5359H356.598ZM363.427 305.64L356.913 293.621L363.427 281.602H376.35L382.864 293.621L376.35 305.64H363.427ZM343.674 317.771L337.265 305.865L343.779 293.846H356.703L363.112 305.752L356.598 317.771H343.674ZM304.064 317.771L297.655 305.865L304.169 293.846H317.092L323.501 305.752L316.987 317.771H304.064ZM264.454 317.771L258.045 305.865L264.559 293.846H277.482L283.891 305.752L277.377 317.771H264.454ZM224.843 317.771L218.434 305.865L224.949 293.846H237.872L244.281 305.752L237.767 317.771H224.843ZM185.233 317.771L178.824 305.865L185.338 293.846H198.262L204.671 305.752L198.156 317.771H185.233ZM145.728 317.771L139.319 305.865L145.833 293.846H158.756L165.165 305.752L158.651 317.771H145.728ZM106.118 317.771L99.7087 305.865L106.223 293.846H119.146L125.555 305.752L119.041 317.771H106.118ZM66.5075 317.771L60.0984 305.865L66.6125 293.846H79.5358L85.9449 305.752L79.4307 317.771H66.5075ZM46.7548 305.64L40.2407 293.621L46.7548 281.602H59.6781L66.1922 293.621L59.6781 305.64H46.7548ZM59.6781 61.7795L66.1922 73.7984L59.6781 85.8173H46.7548L40.2407 73.7984L46.7548 61.7795H59.6781ZM79.4307 73.9108L85.8398 85.8173L79.3256 97.8362H66.4024L59.9933 85.9296L66.5075 73.9108H79.4307ZM99.2884 61.7795L105.803 73.7984L99.2884 85.8173H86.3651L79.851 73.7984L86.3651 61.7795H99.2884ZM119.041 73.9108L125.45 85.8173L118.936 97.8362H106.013L99.6036 85.9296L106.118 73.9108H119.041ZM138.794 61.7795L145.308 73.7984L138.794 85.8173H125.87L119.356 73.7984L125.87 61.7795H138.794ZM158.651 73.9108L165.06 85.8173L158.546 97.8362H145.623L139.214 85.9296L145.728 73.9108H158.651ZM178.404 61.7795L184.918 73.7984L178.404 85.8173H165.481L158.966 73.7984L165.481 61.7795H178.404ZM198.156 73.9108L204.566 85.8173L198.051 97.8362H185.128L178.719 85.9296L185.233 73.9108H198.156ZM218.014 61.7795L224.528 73.7984L218.014 85.8173H205.091L198.577 73.7984L205.091 61.7795H218.014ZM237.767 73.9108L244.176 85.8173L237.662 97.8362H224.738L218.329 85.9296L224.843 73.9108H237.767ZM257.624 61.7795L264.139 73.7984L257.624 85.8173H244.701L238.187 73.7984L244.701 61.7795H257.624ZM277.377 73.9108L283.786 85.8173L277.272 97.8362H264.349L257.94 85.9296L264.454 73.9108H277.377ZM297.13 61.7795L303.644 73.7984L297.13 85.8173H284.206L277.692 73.7984L284.206 61.7795H297.13ZM316.987 73.9108L323.396 85.8173L316.882 97.8362H303.959L297.55 85.9296L304.064 73.9108H316.987ZM336.74 61.7795L343.254 73.7984L336.74 85.8173H323.817L317.302 73.7984L323.817 61.7795H336.74ZM356.598 73.9108L363.007 85.8173L356.492 97.8362H343.569L337.16 85.9296L343.674 73.9108H356.598ZM376.35 61.7795L382.864 73.7984L376.35 85.8173H363.427L356.913 73.7984L363.427 61.7795H376.35ZM343.674 293.396L337.16 281.377L343.674 269.359H356.598L363.112 281.377L356.598 293.396H343.674ZM323.817 281.153L317.302 269.134L323.817 257.115H336.74L343.254 269.134L336.74 281.153H323.817ZM304.064 293.396L297.55 281.377L304.064 269.359H316.987L323.501 281.377L316.987 293.396H304.064ZM284.311 281.153L277.797 269.134L284.311 257.115H297.235L303.749 269.134L297.235 281.153H284.311ZM264.454 293.396L257.94 281.377L264.454 269.359H277.377L283.891 281.377L277.377 293.396H264.454ZM244.701 281.153L238.187 269.134L244.701 257.115H257.624L264.139 269.134L257.624 281.153H244.701ZM224.843 293.396L218.329 281.377L224.843 269.359H237.767L244.281 281.377L237.767 293.396H224.843ZM205.091 281.153L198.577 269.134L205.091 257.115H218.014L224.528 269.134L218.014 281.153H205.091ZM185.338 293.396L178.824 281.377L185.338 269.359H198.262L204.776 281.377L198.262 293.396H185.338ZM165.481 281.153L158.966 269.134L165.481 257.115H178.404L184.918 269.134L178.404 281.153H165.481ZM145.728 293.396L139.214 281.377L145.728 269.359H158.651L165.165 281.377L158.651 293.396H145.728ZM125.87 281.153L119.356 269.134L125.87 257.115H138.794L145.308 269.134L138.794 281.153H125.87ZM106.118 293.396L99.6036 281.377L106.118 269.359H119.041L125.555 281.377L119.041 293.396H106.118ZM86.3651 281.153L79.851 269.134L86.3651 257.115H99.2884L105.803 269.134L99.2884 281.153H86.3651ZM66.5075 293.396L59.9933 281.377L66.5075 269.359H79.4307L85.9449 281.377L79.4307 293.396H66.5075ZM79.4307 98.3979L85.9449 110.417L79.5358 122.323H66.6125L60.0984 110.304L66.5075 98.3979H79.4307ZM119.041 98.3979L125.555 110.417L119.146 122.323H106.223L99.7087 110.304L106.118 98.3979H119.041ZM158.546 98.3979L165.06 110.417L158.651 122.323H145.728L139.214 110.304L145.623 98.3979H158.546ZM198.156 98.3979L204.671 110.417L198.262 122.323H185.338L178.824 110.304L185.233 98.3979H198.156ZM237.767 98.3979L244.281 110.417L237.872 122.323H224.949L218.434 110.304L224.843 98.3979H237.767ZM277.377 98.3979L283.891 110.417L277.482 122.323H264.559L258.045 110.304L264.454 98.3979H277.377ZM316.987 98.3979L323.501 110.417L317.092 122.323H304.169L297.655 110.304L304.064 98.3979H316.987ZM356.492 98.3979L363.007 110.417L356.598 122.323H343.674L337.16 110.304L343.569 98.3979H356.492ZM356.598 268.909H343.674L337.16 256.89L343.569 244.984H356.492L363.007 257.003L356.598 268.909ZM304.064 268.909L297.55 256.89L303.959 244.984H316.882L323.396 257.003L316.987 268.909H304.064ZM264.454 268.909L257.94 256.89L264.349 244.984H277.272L283.786 257.003L277.377 268.909H264.454ZM224.843 268.909L218.329 256.89L224.738 244.984H237.662L244.176 257.003L237.767 268.909H224.843ZM185.338 268.909L178.824 256.89L185.233 244.984H198.156L204.671 257.003L198.262 268.909H185.338ZM145.728 268.909L139.214 256.89L145.623 244.984H158.546L165.06 257.003L158.651 268.909H145.728ZM106.118 268.909L99.6036 256.89L106.013 244.984H118.936L125.45 257.003L119.041 268.909H106.118ZM66.5075 268.909L59.9933 256.89L66.4024 244.984H79.3256L85.8398 257.003L79.4307 268.909H66.5075ZM79.4307 122.773L85.9449 134.792L79.4307 146.811H66.5075L59.9933 134.792L66.5075 122.773H79.4307ZM119.041 122.773L125.555 134.792L119.041 146.811H106.118L99.6036 134.792L106.118 122.773H119.041ZM158.651 122.773L165.165 134.792L158.651 146.811H145.728L139.214 134.792L145.728 122.773H158.651ZM198.156 122.773L204.671 134.792L198.156 146.811H185.233L178.719 134.792L185.233 122.773H198.156ZM237.767 122.773L244.281 134.792L237.767 146.811H224.843L218.329 134.792L224.843 122.773H237.767ZM277.377 122.773L283.891 134.792L277.377 146.811H264.454L257.94 134.792L264.454 122.773H277.377ZM316.987 122.773L323.501 134.792L316.987 146.811H304.064L297.55 134.792L304.064 122.773H316.987ZM356.598 122.773L363.112 134.792L356.598 146.811H343.674L337.16 134.792L343.674 122.773H356.598ZM356.598 196.122L363.112 208.141L356.598 220.16H343.674L337.16 208.141L343.674 196.122H356.598ZM304.064 244.534L297.655 232.628L304.169 220.609H317.092L323.501 232.516L316.987 244.534H304.064ZM264.454 244.534L258.045 232.628L264.559 220.609H277.482L283.891 232.516L277.377 244.534H264.454ZM224.843 244.534L218.434 232.628L224.949 220.609H237.872L244.281 232.516L237.767 244.534H224.843ZM185.233 244.534L178.824 232.628L185.338 220.609H198.262L204.671 232.516L198.156 244.534H185.233ZM145.728 244.534L139.319 232.628L145.833 220.609H158.756L165.165 232.516L158.651 244.534H145.728ZM106.118 244.534L99.7087 232.628L106.223 220.609H119.146L125.555 232.516L119.041 244.534H106.118ZM66.5075 220.047L59.9933 208.028L66.5075 196.009H79.4307L85.9449 208.028L79.4307 220.047H66.5075ZM99.2884 135.016L105.803 147.035L99.2884 159.054H86.3651L79.851 147.035L86.3651 135.016H99.2884ZM119.041 147.26L125.45 159.166L118.936 171.185H106.013L99.6036 159.279L106.118 147.26H119.041ZM138.794 135.016L145.308 147.035L138.794 159.054H125.87L119.356 147.035L125.87 135.016H138.794ZM158.651 147.26L165.06 159.166L158.546 171.185H145.623L139.214 159.279L145.728 147.26H158.651ZM178.404 135.016L184.918 147.035L178.404 159.054H165.481L158.966 147.035L165.481 135.016H178.404ZM198.156 147.26L204.566 159.166L198.051 171.185H185.128L178.719 159.279L185.233 147.26H198.156ZM218.014 135.016L224.528 147.035L218.014 159.054H205.091L198.577 147.035L205.091 135.016H218.014ZM237.767 147.26L244.176 159.166L237.662 171.185H224.738L218.329 159.279L224.843 147.26H237.767ZM257.624 135.016L264.139 147.035L257.624 159.054H244.701L238.187 147.035L244.701 135.016H257.624ZM277.377 147.26L283.786 159.166L277.272 171.185H264.349L257.94 159.279L264.454 147.26H277.377ZM297.13 135.016L303.644 147.035L297.13 159.054H284.206L277.692 147.035L284.206 135.016H297.13ZM316.987 147.26L323.396 159.166L316.882 171.185H303.959L297.55 159.279L304.064 147.26H316.987ZM336.74 135.016L343.254 147.035L336.74 159.054H323.817L317.302 147.035L323.817 135.016H336.74ZM323.817 207.916L317.302 195.897L323.817 183.878H336.74L343.254 195.897L336.74 207.916H323.817ZM304.064 220.047L297.55 208.028L304.064 196.009H316.987L323.501 208.028L316.987 220.047H304.064ZM284.311 207.916L277.797 195.897L284.311 183.878H297.235L303.749 195.897L297.235 207.916H284.311ZM264.454 220.047L257.94 208.028L264.454 196.009H277.377L283.891 208.028L277.377 220.047H264.454ZM244.701 207.916L238.187 195.897L244.701 183.878H257.624L264.139 195.897L257.624 207.916H244.701ZM224.843 220.047L218.329 208.028L224.843 196.009H237.767L244.281 208.028L237.767 220.047H224.843ZM205.091 207.916L198.577 195.897L205.091 183.878H218.014L224.528 195.897L218.014 207.916H205.091ZM185.338 220.047L178.824 208.028L185.338 196.009H198.262L204.776 208.028L198.262 220.047H185.338ZM165.481 207.916L158.966 195.897L165.481 183.878H178.404L184.918 195.897L178.404 207.916H165.481ZM145.728 220.047L139.214 208.028L145.728 196.009H158.651L165.165 208.028L158.651 220.047H145.728ZM125.87 207.916L119.356 195.897L125.87 183.878H138.794L145.308 195.897L138.794 207.916H125.87ZM106.118 220.047L99.6036 208.028L106.118 196.009H119.041L125.555 208.028L119.041 220.047H106.118ZM86.3651 207.916L79.851 195.897L86.3651 183.878H99.2884L105.803 195.897L99.2884 207.916H86.3651ZM119.041 171.747L125.555 183.766L119.146 195.672H106.223L99.7087 183.654L106.118 171.747H119.041ZM158.546 171.747L165.06 183.766L158.651 195.672H145.728L139.214 183.654L145.623 171.747H158.546ZM198.156 171.747L204.671 183.766L198.262 195.672H185.338L178.824 183.654L185.233 171.747H198.156ZM237.767 171.747L244.281 183.766L237.872 195.672H224.949L218.434 183.654L224.843 171.747H237.767ZM277.377 171.747L283.891 183.766L277.482 195.672H264.559L258.045 183.654L264.454 171.747H277.377ZM316.987 171.747L323.501 183.766L317.092 195.672H304.169L297.655 183.654L304.064 171.747H316.987ZM336.74 159.503L343.254 171.522L336.74 183.541H323.817L317.302 171.522L323.817 159.503H336.74ZM297.13 159.503L303.644 171.522L297.13 183.541H284.206L277.692 171.522L284.206 159.503H297.13ZM257.519 159.503L264.033 171.522L257.519 183.541H244.596L238.082 171.522L244.596 159.503H257.519ZM218.014 159.503L224.528 171.522L218.014 183.541H205.091L198.577 171.522L205.091 159.503H218.014ZM178.404 159.503L184.918 171.522L178.404 183.541H165.481L158.966 171.522L165.481 159.503H178.404ZM138.794 159.503L145.308 171.522L138.794 183.541H125.87L119.356 171.522L125.87 159.503H138.794ZM99.1833 159.503L105.697 171.522L99.1833 183.541H86.2601L79.7459 171.522L86.2601 159.503H99.1833ZM86.3651 232.291L79.851 220.272L86.3651 208.253H99.2884L105.803 220.272L99.2884 232.291H86.3651ZM125.87 232.291L119.356 220.272L125.87 208.253H138.794L145.308 220.272L138.794 232.291H125.87ZM165.481 232.291L158.966 220.272L165.481 208.253H178.404L184.918 220.272L178.404 232.291H165.481ZM205.091 232.291L198.577 220.272L205.091 208.253H218.014L224.528 220.272L218.014 232.291H205.091ZM244.701 232.291L238.187 220.272L244.701 208.253H257.624L264.139 220.272L257.624 232.291H244.701ZM284.311 232.291L277.797 220.272L284.311 208.253H297.235L303.749 220.272L297.235 232.291H284.311ZM323.817 232.291L317.302 220.272L323.817 208.253H336.74L343.254 220.272L336.74 232.291H323.817ZM336.74 110.641L343.254 122.66L336.74 134.679H323.817L317.302 122.66L323.817 110.641H336.74ZM297.13 110.641L303.644 122.66L297.13 134.679H284.206L277.692 122.66L284.206 110.641H297.13ZM257.624 110.641L264.139 122.66L257.624 134.679H244.701L238.187 122.66L244.701 110.641H257.624ZM218.014 110.641L224.528 122.66L218.014 134.679H205.091L198.577 122.66L205.091 110.641H218.014ZM178.404 110.641L184.918 122.66L178.404 134.679H165.481L158.966 122.66L165.481 110.641H178.404ZM138.794 110.641L145.308 122.66L138.794 134.679H125.87L119.356 122.66L125.87 110.641H138.794ZM99.2884 110.641L105.803 122.66L99.2884 134.679H86.3651L79.851 122.66L86.3651 110.641H99.2884ZM66.5075 147.26H79.4307L85.8398 159.166L79.3256 171.185H66.4024L59.9933 159.279L66.5075 147.26ZM66.5075 171.747H79.4307L85.9449 183.766L79.5358 195.672H66.6125L60.0984 183.654L66.5075 171.747ZM66.5075 220.609H79.4307L85.8398 232.516L79.3256 244.534H66.4024L59.9933 232.628L66.5075 220.609ZM86.2601 256.778L79.7459 244.759L86.2601 232.74H99.1833L105.697 244.759L99.1833 256.778H86.2601ZM125.87 256.778L119.356 244.759L125.87 232.74H138.794L145.308 244.759L138.794 256.778H125.87ZM165.481 256.778L158.966 244.759L165.481 232.74H178.404L184.918 244.759L178.404 256.778H165.481ZM205.091 256.778L198.577 244.759L205.091 232.74H218.014L224.528 244.759L218.014 256.778H205.091ZM244.701 256.778L238.187 244.759L244.701 232.74H257.624L264.139 244.759L257.624 256.778H244.701ZM284.206 256.778L277.692 244.759L284.206 232.74H297.13L303.644 244.759L297.13 256.778H284.206ZM323.817 256.778L317.302 244.759L323.817 232.74H336.74L343.254 244.759L336.74 256.778H323.817ZM356.492 244.534H343.569L337.16 232.628L343.674 220.609H356.598L363.007 232.516L356.492 244.534ZM356.598 195.672H343.674L337.16 183.654L343.569 171.747H356.492L363.007 183.766L356.598 195.672ZM356.492 171.185H343.569L337.16 159.279L343.674 147.26H356.598L363.007 159.166L356.492 171.185ZM336.74 86.1543L343.254 98.1732L336.74 110.192H323.817L317.302 98.1732L323.817 86.1543H336.74ZM297.13 86.1543L303.644 98.1732L297.13 110.192H284.206L277.692 98.1732L284.206 86.1543H297.13ZM257.519 86.1543L264.033 98.1732L257.519 110.192H244.596L238.082 98.1732L244.596 86.1543H257.519ZM218.014 86.1543L224.528 98.1732L218.014 110.192H205.091L198.577 98.1732L205.091 86.1543H218.014ZM178.404 86.1543L184.918 98.1732L178.404 110.192H165.481L158.966 98.1732L165.481 86.1543H178.404ZM138.794 86.1543L145.308 98.1732L138.794 110.192H125.87L119.356 98.1732L125.87 86.1543H138.794ZM99.1833 86.1543L105.697 98.1732L99.1833 110.192H86.2601L79.7459 98.1732L86.2601 86.1543H99.1833ZM59.6781 86.1543L66.1922 98.1732L59.6781 110.192H46.7548L40.2407 98.1732L46.7548 86.1543H59.6781ZM59.6781 110.641L66.1922 122.66L59.6781 134.679H46.7548L40.2407 122.66L46.7548 110.641H59.6781ZM59.6781 135.016L66.1922 147.035L59.6781 159.054H46.7548L40.2407 147.035L46.7548 135.016H59.6781ZM59.6781 159.503L66.1922 171.522L59.6781 183.541H46.7548L40.2407 171.522L46.7548 159.503H59.6781ZM59.6781 183.878L66.1922 195.897L59.6781 207.916H46.7548L40.2407 195.897L46.7548 183.878H59.6781ZM59.6781 208.365L66.1922 220.384L59.6781 232.403H46.7548L40.2407 220.384L46.7548 208.365H59.6781ZM59.6781 232.74L66.1922 244.759L59.6781 256.778H46.7548L40.2407 244.759L46.7548 232.74H59.6781ZM59.6781 257.227L66.1922 269.246L59.6781 281.265H46.7548L40.2407 269.246L46.7548 257.227H59.6781ZM86.3651 305.64L79.851 293.621L86.3651 281.602H99.2884L105.803 293.621L99.2884 305.64H86.3651ZM125.87 305.64L119.356 293.621L125.87 281.602H138.794L145.308 293.621L138.794 305.64H125.87ZM165.481 305.64L158.966 293.621L165.481 281.602H178.404L184.918 293.621L178.404 305.64H165.481ZM205.091 305.64L198.577 293.621L205.091 281.602H218.014L224.528 293.621L218.014 305.64H205.091ZM244.701 305.64L238.187 293.621L244.701 281.602H257.624L264.139 293.621L257.624 305.64H244.701ZM284.311 305.64L277.797 293.621L284.311 281.602H297.235L303.749 293.621L297.235 305.64H284.311ZM323.817 305.64L317.302 293.621L323.817 281.602H336.74L343.254 293.621L336.74 305.64H323.817ZM376.35 281.153H363.427L356.913 269.134L363.427 257.115H376.35L382.864 269.134L376.35 281.153ZM363.427 256.778L356.913 244.759L363.427 232.74H376.35L382.864 244.759L376.35 256.778H363.427ZM363.427 232.291L356.913 220.272L363.427 208.253H376.35L382.864 220.272L376.35 232.291H363.427ZM376.35 207.916H363.427L356.913 195.897L363.427 183.878H376.35L382.864 195.897L376.35 207.916ZM363.427 183.429L356.913 171.41L363.427 159.391H376.35L382.864 171.41L376.35 183.429H363.427ZM363.427 158.942L356.913 146.923L363.427 134.904H376.35L382.864 146.923L376.35 158.942H363.427ZM376.35 134.567H363.427L356.913 122.548L363.427 110.529H376.35L382.864 122.548L376.35 134.567ZM363.427 110.08L356.913 98.0609L363.427 86.042H376.35L382.864 98.0609L376.35 110.08H363.427ZM376.35 37.2924L382.864 49.3113L376.35 61.3302H363.427L356.913 49.3113L363.427 37.2924H376.35ZM336.74 37.2924L343.254 49.3113L336.74 61.3302H323.817L317.302 49.3113L323.817 37.2924H336.74ZM297.13 37.2924L303.644 49.3113L297.13 61.3302H284.206L277.692 49.3113L284.206 37.2924H297.13ZM257.624 37.2924L264.139 49.3113L257.624 61.3302H244.701L238.187 49.3113L244.701 37.2924H257.624ZM218.014 37.2924L224.528 49.3113L218.014 61.3302H205.091L198.577 49.3113L205.091 37.2924H218.014ZM178.404 37.2924L184.918 49.3113L178.404 61.3302H165.481L158.966 49.3113L165.481 37.2924H178.404ZM138.794 37.2924L145.308 49.3113L138.794 61.3302H125.87L119.356 49.3113L125.87 37.2924H138.794ZM99.2884 37.2924L105.803 49.3113L99.2884 61.3302H86.3651L79.851 49.3113L86.3651 37.2924H99.2884ZM59.6781 37.2924L66.1922 49.3113L59.6781 61.3302H46.7548L40.2407 49.3113L46.7548 37.2924H59.6781ZM46.7548 330.015L40.2407 317.996L46.7548 305.977H59.6781L66.1922 317.996L59.6781 330.015H46.7548ZM86.2601 330.015L79.7459 317.996L86.2601 305.977H99.1833L105.697 317.996L99.1833 330.015H86.2601ZM125.87 330.015L119.356 317.996L125.87 305.977H138.794L145.308 317.996L138.794 330.015H125.87ZM165.481 330.015L158.966 317.996L165.481 305.977H178.404L184.918 317.996L178.404 330.015H165.481ZM205.091 330.015L198.577 317.996L205.091 305.977H218.014L224.528 317.996L218.014 330.015H205.091ZM244.701 330.015L238.187 317.996L244.701 305.977H257.624L264.139 317.996L257.624 330.015H244.701ZM284.206 330.015L277.692 317.996L284.206 305.977H297.13L303.644 317.996L297.13 330.015H284.206ZM323.817 330.015L317.302 317.996L323.817 305.977H336.74L343.254 317.996L336.74 330.015H323.817ZM363.427 330.015L356.913 317.996L363.427 305.977H376.35L382.864 317.996L376.35 330.015H363.427ZM382.759 24.8241L376.245 36.8431H363.322L356.808 24.8241L363.322 12.8052H376.35L382.759 24.8241ZM343.254 24.8241L336.74 36.8431H323.817L317.302 24.8241L323.817 12.8052H336.74L343.254 24.8241ZM303.644 24.8241L297.13 36.8431H284.206L277.692 24.8241L284.206 12.8052H297.13L303.644 24.8241ZM264.033 24.8241L257.519 36.8431H244.596L238.082 24.8241L244.596 12.8052H257.519L264.033 24.8241ZM224.423 24.8241L217.909 36.8431H205.091L198.577 24.8241L205.091 12.8052H218.014L224.423 24.8241ZM184.813 24.8241L178.299 36.8431H165.376L158.861 24.8241L165.376 12.8052H178.299L184.813 24.8241ZM145.308 24.8241L138.794 36.8431H125.87L119.356 24.8241L125.87 12.8052H138.794L145.308 24.8241ZM105.697 24.8241L99.1833 36.8431H86.2601L79.7459 24.8241L86.2601 12.8052H99.1833L105.697 24.8241ZM66.0872 24.8241L59.573 36.8431H46.6498L40.1356 24.8241L46.6498 12.8052H59.573L66.0872 24.8241ZM60.0984 354.727L66.6125 342.708H79.5358L86.0499 354.727L79.5358 366.746H66.6125L60.0984 354.727ZM99.6036 354.727L106.118 342.708H119.041L125.555 354.727L119.041 366.746H106.118L99.6036 354.727ZM139.214 354.727L145.728 342.708H158.651L165.165 354.727L158.651 366.746H145.728L139.214 354.727ZM178.824 354.727L185.338 342.708H198.262L204.776 354.727L198.262 366.746H185.338L178.824 354.727ZM218.434 354.727L224.949 342.708H237.872L244.386 354.727L237.872 366.746H224.949L218.434 354.727ZM258.045 354.727L264.559 342.708H277.482L283.996 354.727L277.482 366.746H264.559L258.045 354.727ZM297.55 354.727L304.064 342.708H316.987L323.501 354.727L316.987 366.746H304.064L297.55 354.727ZM337.16 354.727L343.674 342.708H356.598L363.112 354.727L356.598 366.746H343.674L337.16 354.727ZM415.96 85.705H403.037L396.523 73.6861L403.037 61.6672H415.96L422.475 73.6861L415.96 85.705ZM422.475 49.3113L415.96 61.3302H403.037L396.523 49.3113L403.037 37.2924H415.96L422.475 49.3113ZM396.103 49.0866H383.18L376.665 37.0677L383.074 25.1611H395.998L402.512 37.18L396.103 49.0866ZM383.18 0.673965H396.103L402.617 12.6929L396.103 24.7118H383.18L376.665 12.6929L383.18 0.673965ZM343.674 0.673965H356.598L363.007 12.5806L356.492 24.5995H343.569L337.055 12.5806L343.674 0.673965ZM304.064 0.673965H316.987L323.396 12.5806L316.882 24.5995H303.959L297.445 12.5806L304.064 0.673965ZM264.454 0.673965H277.377L283.786 12.5806L277.272 24.5995H264.349L257.835 12.5806L264.454 0.673965ZM224.843 0.673965H237.767L244.176 12.5806L237.662 24.5995H224.738L218.224 12.5806L224.843 0.673965ZM185.233 0.673965H198.156L204.566 12.5806L198.051 24.5995H185.128L178.614 12.5806L185.233 0.673965ZM145.728 0.673965H158.651L165.06 12.5806L158.546 24.5995H145.623L139.109 12.5806L145.728 0.673965ZM106.118 0.673965H119.041L125.45 12.5806L118.936 24.5995H106.013L99.4985 12.5806L106.118 0.673965ZM66.5075 0.673965H79.4307L85.8398 12.5806L79.3256 24.5995H66.4024L59.8882 12.5806L66.5075 0.673965ZM26.8972 0.673965H39.8204L46.2295 12.5806L39.7154 24.5995H26.7921L20.278 12.5806L26.8972 0.673965ZM0.630409 24.8241L7.14458 12.8052H20.0678L26.582 24.8241L20.0678 36.8431H7.14458L0.630409 24.8241ZM26.8972 25.0488H39.8204L46.3346 37.0677L39.9255 48.9743H27.0022L20.4881 36.9554L26.8972 25.0488ZM26.8972 49.5359H39.8204L46.3346 61.5549L39.8204 73.5738H26.8972L20.383 61.5549L26.8972 49.5359ZM26.8972 73.9108H39.8204L46.2295 85.8173L39.7154 97.8362H26.7921L20.278 85.8173L26.8972 73.9108ZM0.630409 98.1732L7.14458 86.1543H20.0678L26.582 98.1732L20.0678 110.192H7.14458L0.630409 98.1732ZM26.8972 98.3979H39.8204L46.3346 110.417L39.9255 122.323H27.0022L20.4881 110.304L26.8972 98.3979ZM26.8972 122.773H39.8204L46.3346 134.792L39.8204 146.811H26.8972L20.383 134.792L26.8972 122.773ZM26.8972 147.26H39.8204L46.2295 159.166L39.7154 171.185H26.7921L20.278 159.166L26.8972 147.26ZM0.630409 171.41L7.14458 159.391H20.0678L26.4769 171.41L19.9627 183.429H7.03951L0.630409 171.41ZM26.8972 171.747H39.8204L46.3346 183.766L39.9255 195.672H27.0022L20.4881 183.654L26.8972 171.747ZM26.8972 196.122H39.8204L46.3346 208.141L39.8204 220.16H26.8972L20.383 208.141L26.8972 196.122ZM26.8972 220.609H39.8204L46.2295 232.516L39.7154 244.534H26.7921L20.278 232.516L26.8972 220.609ZM0.630409 244.759L7.14458 232.74H20.0678L26.582 244.759L20.0678 256.778H7.14458L0.630409 244.759ZM26.8972 244.984H39.8204L46.3346 257.003L39.9255 268.909H27.0022L20.4881 256.89L26.8972 244.984ZM26.8972 269.471H39.8204L46.3346 281.49L39.8204 293.509H26.8972L20.383 281.49L26.8972 269.471ZM26.8972 293.846H39.8204L46.2295 305.752L39.7154 317.771H26.7921L20.278 305.752L26.8972 293.846ZM0.630409 318.108L7.14458 306.089H20.0678L26.582 318.108L20.0678 330.127H7.14458L0.630409 318.108ZM26.8972 318.333H39.8204L46.3346 330.352L39.9255 342.258H27.0022L20.4881 330.239L26.8972 318.333ZM20.4881 354.727L27.0022 342.708H39.9255L46.4396 354.727L39.9255 366.746H27.0022L20.4881 354.727ZM59.6781 378.877H46.7548L40.2407 366.858L46.7548 354.839H59.6781L66.1922 366.858L59.6781 378.877ZM99.2884 378.877H86.3651L79.851 366.858L86.3651 354.839H99.2884L105.803 366.858L99.2884 378.877ZM138.899 378.877H125.975L119.461 366.858L125.975 354.839H138.899L145.413 366.858L138.899 378.877ZM178.404 378.877H165.481L158.966 366.858L165.481 354.839H178.404L184.918 366.858L178.404 378.877ZM218.014 378.877H205.091L198.577 366.858L205.091 354.839H218.014L224.528 366.858L218.014 378.877ZM257.624 378.877H244.701L238.187 366.858L244.701 354.839H257.624L264.139 366.858L257.624 378.877ZM297.235 378.877H284.311L277.797 366.858L284.311 354.839H297.235L303.749 366.858L297.235 378.877ZM336.74 378.877H323.817L317.302 366.858L323.817 354.839H336.74L343.254 366.858L336.74 378.877ZM376.35 378.877H363.427L356.913 366.858L363.427 354.839H376.35L382.864 366.858L376.35 378.877ZM415.96 378.877H403.037L396.523 366.858L403.037 354.839H415.96L422.475 366.858L415.96 378.877ZM422.475 342.483L415.96 354.502H403.037L396.523 342.483L403.037 330.464H415.96L422.475 342.483ZM396.103 342.258H383.18L376.665 330.239L383.074 318.333H395.998L402.512 330.352L396.103 342.258ZM396.103 317.771H383.18L376.77 305.865L383.285 293.846H396.208L402.722 305.865L396.103 317.771ZM415.96 305.64H403.037L396.523 293.621L403.037 281.602H415.96L422.475 293.621L415.96 305.64ZM422.475 269.246L415.96 281.265H403.037L396.523 269.246L403.037 257.227H415.96L422.475 269.246ZM396.103 268.909H383.18L376.665 256.89L383.074 244.984H395.998L402.512 257.003L396.103 268.909ZM396.103 244.534H383.18L376.77 232.628L383.285 220.609H396.208L402.722 232.628L396.103 244.534ZM415.96 232.291H403.037L396.523 220.272L403.037 208.253H415.96L422.475 220.272L415.96 232.291ZM422.475 195.897L415.96 207.916H403.037L396.523 195.897L403.037 183.878H415.96L422.475 195.897ZM396.103 195.672H383.18L376.665 183.654L383.074 171.747H395.998L402.512 183.766L396.103 195.672ZM396.103 171.185H383.18L376.77 159.279L383.285 147.26H396.208L402.722 159.279L396.103 171.185ZM415.96 158.942H403.037L396.523 146.923L403.037 134.904H415.96L422.475 146.923L415.96 158.942ZM422.475 122.548L415.96 134.567H403.037L396.523 122.548L403.037 110.529H415.96L422.475 122.548ZM396.103 122.323H383.18L376.665 110.304L383.074 98.3979H395.998L402.512 110.417L396.103 122.323Z" fill="url(#paint0_radial)"/>
<defs>
<radialGradient id="paint0_radial" cx="0" cy="0" r="1" gradientUnits="userSpaceOnUse" gradientTransform="translate(211.5 190) rotate(90) scale(190 211.5)">
<stop stop-color="#FFFEFE"/>
<stop offset="1" stop-color="#FFFEFE" stop-opacity="0"/>
</radialGradient>
</defs>
</svg>
