<svg width="401" height="350" viewBox="0 0 401 350" fill="none" xmlns="http://www.w3.org/2000/svg">
<mask id="mask0" style="mask-type:alpha" maskUnits="userSpaceOnUse" x="0" y="0" width="401" height="350">
<rect width="401" height="350" fill="#C4C4C4"/>
</mask>
<g mask="url(#mask0)">
<path opacity="0.19" d="M728.258 -90.3902H749.879L760.862 -110.739L750.051 -130.722L760.862 -150.704L749.879 -171.053H728.258L717.618 -190.669L728.429 -210.651L717.447 -231H695.482L684.671 -211.018H663.564L652.754 -231H630.789L619.978 -211.018H598.871L588.06 -231H566.096L555.285 -211.018H534.178L523.367 -231H501.402L490.592 -211.018H469.485L458.674 -231H436.709L425.898 -211.018H404.963L394.152 -231H372.188L361.377 -211.018H340.27L329.459 -231H307.494L296.684 -211.018H275.577L264.766 -231H242.801L231.99 -211.018H210.884L200.073 -231H178.108L167.297 -211.018H146.19L135.38 -231H113.415L102.604 -211.018H80.9824L70 -190.669L80.9824 -170.32H102.604L113.243 -150.704L102.432 -130.722L113.243 -110.739L102.604 -91.1235H80.9824L70 -70.7745L80.9824 -50.4255H102.604L113.243 -30.8098L102.432 -10.8274L113.243 9.15491L102.604 28.7706H80.9824L70 49.1197L80.9824 69.4686H102.604L113.243 89.0843L102.432 109.067L113.243 129.049L102.604 148.665H80.9824L70 169.014L80.9824 189.363H102.604L113.243 208.978L102.432 228.961L113.243 248.943L102.604 268.559H80.9824L70 288.908L80.9824 309.257H102.604L113.243 328.873L102.432 348.855L113.415 369.204H135.036L145.847 389.186H167.812L178.623 369.204H199.73L210.54 389.186H232.505L243.316 369.204H264.423L275.234 389.186H297.198L308.009 369.204H329.116L339.927 389.186H361.892L372.702 369.204H393.809L404.62 389.186H426.585L437.396 369.204H458.502L469.313 389.186H491.278L502.089 369.204H523.196L534.006 389.186H555.971L566.782 369.204H587.889L598.7 389.186H620.664L631.475 369.204H652.582L663.393 389.186H685.358L696.168 369.204H717.275L728.086 389.186H749.879L760.862 368.837L750.051 348.855L760.862 328.873L749.879 308.524H728.258L717.618 288.908L728.258 269.292H749.879L760.862 248.943L750.051 228.961L760.862 208.978L749.879 188.08H728.258L717.618 168.464L728.258 148.848H749.879L760.862 128.499L750.051 108.517L760.862 88.5344L749.879 68.1854H728.258L717.618 48.5697L728.258 28.954H749.879L760.862 8.60496L750.051 -11.3774L760.862 -31.3598L749.879 -51.7087H728.258L717.618 -71.3245L728.258 -90.3902ZM716.932 -71.1411H695.825L685.358 -90.5735L695.997 -110.189H717.104L727.743 -90.5735L716.932 -71.1411ZM716.932 -30.6264L727.571 -11.0108L716.932 8.60496H695.825L685.186 -11.0108L695.825 -30.6264H716.932ZM716.932 89.0843L727.571 108.7L716.932 128.316H695.825L685.186 108.7L695.825 89.0843H716.932ZM716.932 208.795L727.571 228.411L716.932 248.027H695.825L685.186 228.411L695.825 208.795H716.932ZM716.932 328.323L727.571 347.938L716.932 367.554H695.825L685.186 347.938L695.825 328.323H716.932ZM663.564 347.572L652.925 327.956L663.564 308.34H684.671L695.31 327.956L684.671 347.572H663.564ZM598.871 347.572L588.232 327.956L598.871 308.34H619.978L630.617 327.956L619.978 347.572H598.871ZM534.35 347.572L523.71 327.956L534.35 308.34H555.456L566.096 327.956L555.456 347.572H534.35ZM469.656 347.572L459.017 327.956L469.656 308.34H490.763L501.402 327.956L490.763 347.572H469.656ZM404.963 347.572L394.324 327.956L404.963 308.34H426.07L436.709 327.956L426.07 347.572H404.963ZM340.27 347.572L329.631 327.956L340.27 308.34H361.377L372.016 327.956L361.377 347.572H340.27ZM275.577 347.572L264.938 327.956L275.577 308.34H296.684L307.323 327.956L296.684 347.572H275.577ZM211.055 347.572L200.416 327.956L211.055 308.34H232.162L242.801 327.956L232.162 347.572H211.055ZM146.362 347.572L135.723 327.956L146.362 308.34H167.469L178.108 327.956L167.469 347.572H146.362ZM199.73 -190.119L210.369 -170.503L199.901 -151.071H178.794L168.155 -170.686L178.623 -190.119H199.73ZM264.423 -190.119L275.062 -170.503L264.594 -151.071H243.488L232.848 -170.686L243.316 -190.119H264.423ZM328.944 -190.119L339.584 -170.503L329.116 -151.071H308.009L297.37 -170.686L307.838 -190.119H328.944ZM393.638 -190.119L404.277 -170.503L393.809 -151.071H372.702L362.063 -170.686L372.531 -190.119H393.638ZM458.331 -190.119L468.97 -170.503L458.502 -151.071H437.396L426.756 -170.686L437.224 -190.119H458.331ZM523.024 -190.119L533.663 -170.503L523.196 -151.071H502.089L491.45 -170.686L501.917 -190.119H523.024ZM587.717 -190.119L598.356 -170.503L587.889 -151.071H566.782L556.143 -170.686L566.61 -190.119H587.717ZM652.239 -190.119L662.878 -170.503L652.41 -151.071H631.304L620.664 -170.686L631.132 -190.119H652.239ZM716.932 -150.154L727.571 -130.538L716.932 -110.923H695.825L685.186 -130.538L695.825 -150.154H716.932ZM631.304 327.589L620.664 307.974L631.132 288.541H652.239L662.878 308.157L652.41 327.589H631.304ZM566.61 327.589L555.971 307.974L566.439 288.541H587.546L598.185 308.157L587.717 327.589H566.61ZM501.917 327.589L491.278 307.974L501.746 288.541H522.852L533.492 308.157L523.024 327.589H501.917ZM437.224 327.589L426.585 307.974L437.052 288.541H458.159L468.798 308.157L458.331 327.589H437.224ZM372.702 327.589L362.063 307.974L372.531 288.541H393.638L404.277 308.157L393.809 327.589H372.702ZM308.009 327.589L297.37 307.974L307.838 288.541H328.944L339.584 308.157L329.116 327.589H308.009ZM243.316 327.589L232.677 307.974L243.144 288.541H264.251L274.89 308.157L264.423 327.589H243.316ZM178.623 327.589L167.984 307.974L178.451 288.541H199.558L210.197 308.157L199.73 327.589H178.623ZM199.73 -150.154L210.369 -130.538L199.73 -110.923H178.623L167.984 -130.538L178.623 -150.154H199.73ZM264.423 -150.154L275.062 -130.538L264.423 -110.923H243.316L232.677 -130.538L243.316 -150.154H264.423ZM329.116 -150.154L339.755 -130.538L329.116 -110.923H308.009L297.37 -130.538L308.009 -150.154H329.116ZM393.638 -150.154L404.277 -130.538L393.638 -110.923H372.531L361.892 -130.538L372.531 -150.154H393.638ZM458.331 -150.154L468.97 -130.538L458.331 -110.923H437.224L426.585 -130.538L437.224 -150.154H458.331ZM523.024 -150.154L533.663 -130.538L523.024 -110.923H501.917L491.278 -130.538L501.917 -150.154H523.024ZM587.717 -150.154L598.356 -130.538L587.717 -110.923H566.61L555.971 -130.538L566.61 -150.154H587.717ZM652.41 -150.154L663.05 -130.538L652.41 -110.923H631.304L620.664 -130.538L631.304 -150.154H652.41ZM663.564 267.826L652.925 248.21L663.564 228.594H684.671L695.31 248.21L684.671 267.826H663.564ZM631.304 287.625L620.836 268.192L631.475 248.577H652.582L663.05 268.009L652.41 287.625H631.304ZM566.61 287.625L556.143 268.192L566.782 248.577H587.889L598.356 268.009L587.717 287.625H566.61ZM501.917 287.625L491.45 268.192L502.089 248.577H523.196L533.663 268.009L523.024 287.625H501.917ZM437.224 287.625L426.756 268.192L437.396 248.577H458.502L468.97 268.009L458.331 287.625H437.224ZM372.531 287.625L362.063 268.192L372.702 248.577H393.809L404.277 268.009L393.638 287.625H372.531ZM308.009 287.625L297.542 268.192L308.181 248.577H329.288L339.755 268.009L329.116 287.625H308.009ZM243.316 287.625L232.848 268.192L243.488 248.577H264.594L275.062 268.009L264.423 287.625H243.316ZM178.623 287.625L168.155 268.192L178.794 248.577H199.901L210.369 268.009L199.73 287.625H178.623ZM146.362 267.826L135.723 248.21L146.362 228.594H167.469L178.108 248.21L167.469 267.826H146.362ZM167.469 -130.172L178.108 -110.556L167.469 -90.9402H146.362L135.723 -110.556L146.362 -130.172H167.469ZM199.73 -110.373L210.197 -90.9402L199.558 -71.3245H178.451L167.984 -90.7569L178.623 -110.373H199.73ZM232.162 -130.172L242.801 -110.556L232.162 -90.9402H211.055L200.416 -110.556L211.055 -130.172H232.162ZM264.423 -110.373L274.89 -90.9402L264.251 -71.3245H243.144L232.677 -90.7569L243.316 -110.373H264.423ZM296.684 -130.172L307.323 -110.556L296.684 -90.9402H275.577L264.938 -110.556L275.577 -130.172H296.684ZM329.116 -110.373L339.584 -90.9402L328.944 -71.3245H307.838L297.37 -90.7569L308.009 -110.373H329.116ZM361.377 -130.172L372.016 -110.556L361.377 -90.9402H340.27L329.631 -110.556L340.27 -130.172H361.377ZM393.638 -110.373L404.105 -90.9402L393.466 -71.3245H372.359L361.892 -90.7569L372.531 -110.373H393.638ZM426.07 -130.172L436.709 -110.556L426.07 -90.9402H404.963L394.324 -110.556L404.963 -130.172H426.07ZM458.331 -110.373L468.798 -90.9402L458.159 -71.3245H437.052L426.585 -90.7569L437.224 -110.373H458.331ZM490.763 -130.172L501.402 -110.556L490.763 -90.9402H469.656L459.017 -110.556L469.656 -130.172H490.763ZM523.024 -110.373L533.492 -90.9402L522.852 -71.3245H501.746L491.278 -90.7569L501.917 -110.373H523.024ZM555.285 -130.172L565.924 -110.556L555.285 -90.9402H534.178L523.539 -110.556L534.178 -130.172H555.285ZM587.717 -110.373L598.185 -90.9402L587.546 -71.3245H566.439L555.971 -90.7569L566.61 -110.373H587.717ZM619.978 -130.172L630.617 -110.556L619.978 -90.9402H598.871L588.232 -110.556L598.871 -130.172H619.978ZM652.41 -110.373L662.878 -90.9402L652.239 -71.3245H631.132L620.664 -90.7569L631.304 -110.373H652.41ZM684.671 -130.172L695.31 -110.556L684.671 -90.9402H663.564L652.925 -110.556L663.564 -130.172H684.671ZM631.304 247.843L620.664 228.228L631.304 208.612H652.41L663.05 228.228L652.41 247.843H631.304ZM598.871 227.861L588.232 208.245L598.871 188.629H619.978L630.617 208.245L619.978 227.861H598.871ZM566.61 247.843L555.971 228.228L566.61 208.612H587.717L598.356 228.228L587.717 247.843H566.61ZM534.35 227.861L523.71 208.245L534.35 188.629H555.456L566.096 208.245L555.456 227.861H534.35ZM501.917 247.843L491.278 228.228L501.917 208.612H523.024L533.663 228.228L523.024 247.843H501.917ZM469.656 227.861L459.017 208.245L469.656 188.629H490.763L501.402 208.245L490.763 227.861H469.656ZM437.224 247.843L426.585 228.228L437.224 208.612H458.331L468.97 228.228L458.331 247.843H437.224ZM404.963 227.861L394.324 208.245L404.963 188.629H426.07L436.709 208.245L426.07 227.861H404.963ZM372.702 247.843L362.063 228.228L372.702 208.612H393.809L404.448 228.228L393.809 247.843H372.702ZM340.27 227.861L329.631 208.245L340.27 188.629H361.377L372.016 208.245L361.377 227.861H340.27ZM308.009 247.843L297.37 228.228L308.009 208.612H329.116L339.755 228.228L329.116 247.843H308.009ZM275.577 227.861L264.938 208.245L275.577 188.629H296.684L307.323 208.245L296.684 227.861H275.577ZM243.316 247.843L232.677 228.228L243.316 208.612H264.423L275.062 228.228L264.423 247.843H243.316ZM211.055 227.861L200.416 208.245L211.055 188.629H232.162L242.801 208.245L232.162 227.861H211.055ZM178.623 247.843L167.984 228.228L178.623 208.612H199.73L210.369 228.228L199.73 247.843H178.623ZM199.73 -70.4078L210.369 -50.7921L199.901 -31.3598H178.794L168.155 -50.9755L178.623 -70.4078H199.73ZM264.423 -70.4078L275.062 -50.7921L264.594 -31.3598H243.488L232.848 -50.9755L243.316 -70.4078H264.423ZM328.944 -70.4078L339.584 -50.7921L329.116 -31.3598H308.009L297.37 -50.9755L307.838 -70.4078H328.944ZM393.638 -70.4078L404.277 -50.7921L393.809 -31.3598H372.702L362.063 -50.9755L372.531 -70.4078H393.638ZM458.331 -70.4078L468.97 -50.7921L458.502 -31.3598H437.396L426.756 -50.9755L437.224 -70.4078H458.331ZM523.024 -70.4078L533.663 -50.7921L523.196 -31.3598H502.089L491.45 -50.9755L501.917 -70.4078H523.024ZM587.717 -70.4078L598.356 -50.7921L587.889 -31.3598H566.782L556.143 -50.9755L566.61 -70.4078H587.717ZM652.239 -70.4078L662.878 -50.7921L652.41 -31.3598H631.304L620.664 -50.9755L631.132 -70.4078H652.239ZM652.41 207.879H631.304L620.664 188.263L631.132 168.83H652.239L662.878 188.446L652.41 207.879ZM566.61 207.879L555.971 188.263L566.439 168.83H587.546L598.185 188.446L587.717 207.879H566.61ZM501.917 207.879L491.278 188.263L501.746 168.83H522.852L533.492 188.446L523.024 207.879H501.917ZM437.224 207.879L426.585 188.263L437.052 168.83H458.159L468.798 188.446L458.331 207.879H437.224ZM372.702 207.879L362.063 188.263L372.531 168.83H393.638L404.277 188.446L393.809 207.879H372.702ZM308.009 207.879L297.37 188.263L307.838 168.83H328.944L339.584 188.446L329.116 207.879H308.009ZM243.316 207.879L232.677 188.263L243.144 168.83H264.251L274.89 188.446L264.423 207.879H243.316ZM178.623 207.879L167.984 188.263L178.451 168.83H199.558L210.197 188.446L199.73 207.879H178.623ZM199.73 -30.6264L210.369 -11.0108L199.73 8.60496H178.623L167.984 -11.0108L178.623 -30.6264H199.73ZM264.423 -30.6264L275.062 -11.0108L264.423 8.60496H243.316L232.677 -11.0108L243.316 -30.6264H264.423ZM329.116 -30.6264L339.755 -11.0108L329.116 8.60496H308.009L297.37 -11.0108L308.009 -30.6264H329.116ZM393.638 -30.6264L404.277 -11.0108L393.638 8.60496H372.531L361.892 -11.0108L372.531 -30.6264H393.638ZM458.331 -30.6264L468.97 -11.0108L458.331 8.60496H437.224L426.585 -11.0108L437.224 -30.6264H458.331ZM523.024 -30.6264L533.663 -11.0108L523.024 8.60496H501.917L491.278 -11.0108L501.917 -30.6264H523.024ZM587.717 -30.6264L598.356 -11.0108L587.717 8.60496H566.61L555.971 -11.0108L566.61 -30.6264H587.717ZM652.41 -30.6264L663.05 -11.0108L652.41 8.60496H631.304L620.664 -11.0108L631.304 -30.6264H652.41ZM652.41 89.0843L663.05 108.7L652.41 128.316H631.304L620.664 108.7L631.304 89.0843H652.41ZM566.61 168.097L556.143 148.665L566.782 129.049H587.889L598.356 148.481L587.717 168.097H566.61ZM501.917 168.097L491.45 148.665L502.089 129.049H523.196L533.663 148.481L523.024 168.097H501.917ZM437.224 168.097L426.756 148.665L437.396 129.049H458.502L468.97 148.481L458.331 168.097H437.224ZM372.531 168.097L362.063 148.665L372.702 129.049H393.809L404.277 148.481L393.638 168.097H372.531ZM308.009 168.097L297.542 148.665L308.181 129.049H329.288L339.755 148.481L329.116 168.097H308.009ZM243.316 168.097L232.848 148.665L243.488 129.049H264.594L275.062 148.481L264.423 168.097H243.316ZM178.623 128.132L167.984 108.517L178.623 88.901H199.73L210.369 108.517L199.73 128.132H178.623ZM232.162 -10.6441L242.801 8.97158L232.162 28.5873H211.055L200.416 8.97158L211.055 -10.6441H232.162ZM264.423 9.33825L274.89 28.7706L264.251 48.3863H243.144L232.677 28.954L243.316 9.33825H264.423ZM296.684 -10.6441L307.323 8.97158L296.684 28.5873H275.577L264.938 8.97158L275.577 -10.6441H296.684ZM329.116 9.33825L339.584 28.7706L328.944 48.3863H307.838L297.37 28.954L308.009 9.33825H329.116ZM361.377 -10.6441L372.016 8.97158L361.377 28.5873H340.27L329.631 8.97158L340.27 -10.6441H361.377ZM393.638 9.33825L404.105 28.7706L393.466 48.3863H372.359L361.892 28.954L372.531 9.33825H393.638ZM426.07 -10.6441L436.709 8.97158L426.07 28.5873H404.963L394.324 8.97158L404.963 -10.6441H426.07ZM458.331 9.33825L468.798 28.7706L458.159 48.3863H437.052L426.585 28.954L437.224 9.33825H458.331ZM490.763 -10.6441L501.402 8.97158L490.763 28.5873H469.656L459.017 8.97158L469.656 -10.6441H490.763ZM523.024 9.33825L533.492 28.7706L522.852 48.3863H501.746L491.278 28.954L501.917 9.33825H523.024ZM555.285 -10.6441L565.924 8.97158L555.285 28.5873H534.178L523.539 8.97158L534.178 -10.6441H555.285ZM587.717 9.33825L598.185 28.7706L587.546 48.3863H566.439L555.971 28.954L566.61 9.33825H587.717ZM619.978 -10.6441L630.617 8.97158L619.978 28.5873H598.871L588.232 8.97158L598.871 -10.6441H619.978ZM598.871 108.333L588.232 88.7177L598.871 69.102H619.978L630.617 88.7177L619.978 108.333H598.871ZM566.61 128.132L555.971 108.517L566.61 88.901H587.717L598.356 108.517L587.717 128.132H566.61ZM534.35 108.333L523.71 88.7177L534.35 69.102H555.456L566.096 88.7177L555.456 108.333H534.35ZM501.917 128.132L491.278 108.517L501.917 88.901H523.024L533.663 108.517L523.024 128.132H501.917ZM469.656 108.333L459.017 88.7177L469.656 69.102H490.763L501.402 88.7177L490.763 108.333H469.656ZM437.224 128.132L426.585 108.517L437.224 88.901H458.331L468.97 108.517L458.331 128.132H437.224ZM404.963 108.333L394.324 88.7177L404.963 69.102H426.07L436.709 88.7177L426.07 108.333H404.963ZM372.702 128.132L362.063 108.517L372.702 88.901H393.809L404.448 108.517L393.809 128.132H372.702ZM340.27 108.333L329.631 88.7177L340.27 69.102H361.377L372.016 88.7177L361.377 108.333H340.27ZM308.009 128.132L297.37 108.517L308.009 88.901H329.116L339.755 108.517L329.116 128.132H308.009ZM275.577 108.333L264.938 88.7177L275.577 69.102H296.684L307.323 88.7177L296.684 108.333H275.577ZM243.316 128.132L232.677 108.517L243.316 88.901H264.423L275.062 108.517L264.423 128.132H243.316ZM211.055 108.333L200.416 88.7177L211.055 69.102H232.162L242.801 88.7177L232.162 108.333H211.055ZM264.423 49.3029L275.062 68.9187L264.594 88.3511H243.488L232.848 68.7353L243.316 49.3029H264.423ZM328.944 49.3029L339.584 68.9187L329.116 88.3511H308.009L297.37 68.7353L307.838 49.3029H328.944ZM393.638 49.3029L404.277 68.9187L393.809 88.3511H372.702L362.063 68.7353L372.531 49.3029H393.638ZM458.331 49.3029L468.97 68.9187L458.502 88.3511H437.396L426.756 68.7353L437.224 49.3029H458.331ZM523.024 49.3029L533.663 68.9187L523.196 88.3511H502.089L491.45 68.7353L501.917 49.3029H523.024ZM587.717 49.3029L598.356 68.9187L587.889 88.3511H566.782L556.143 68.7353L566.61 49.3029H587.717ZM619.978 29.3206L630.617 48.9363L619.978 68.552H598.871L588.232 48.9363L598.871 29.3206H619.978ZM555.285 29.3206L565.924 48.9363L555.285 68.552H534.178L523.539 48.9363L534.178 29.3206H555.285ZM490.592 29.3206L501.231 48.9363L490.592 68.552H469.485L458.846 48.9363L469.485 29.3206H490.592ZM426.07 29.3206L436.709 48.9363L426.07 68.552H404.963L394.324 48.9363L404.963 29.3206H426.07ZM361.377 29.3206L372.016 48.9363L361.377 68.552H340.27L329.631 48.9363L340.27 29.3206H361.377ZM296.684 29.3206L307.323 48.9363L296.684 68.552H275.577L264.938 48.9363L275.577 29.3206H296.684ZM231.99 29.3206L242.63 48.9363L231.99 68.552H210.884L200.244 48.9363L210.884 29.3206H231.99ZM211.055 148.115L200.416 128.499L211.055 108.883H232.162L242.801 128.499L232.162 148.115H211.055ZM275.577 148.115L264.938 128.499L275.577 108.883H296.684L307.323 128.499L296.684 148.115H275.577ZM340.27 148.115L329.631 128.499L340.27 108.883H361.377L372.016 128.499L361.377 148.115H340.27ZM404.963 148.115L394.324 128.499L404.963 108.883H426.07L436.709 128.499L426.07 148.115H404.963ZM469.656 148.115L459.017 128.499L469.656 108.883H490.763L501.402 128.499L490.763 148.115H469.656ZM534.35 148.115L523.71 128.499L534.35 108.883H555.456L566.096 128.499L555.456 148.115H534.35ZM598.871 148.115L588.232 128.499L598.871 108.883H619.978L630.617 128.499L619.978 148.115H598.871ZM619.978 -50.4255L630.617 -30.8098L619.978 -11.1941H598.871L588.232 -30.8098L598.871 -50.4255H619.978ZM555.285 -50.4255L565.924 -30.8098L555.285 -11.1941H534.178L523.539 -30.8098L534.178 -50.4255H555.285ZM490.763 -50.4255L501.402 -30.8098L490.763 -11.1941H469.656L459.017 -30.8098L469.656 -50.4255H490.763ZM426.07 -50.4255L436.709 -30.8098L426.07 -11.1941H404.963L394.324 -30.8098L404.963 -50.4255H426.07ZM361.377 -50.4255L372.016 -30.8098L361.377 -11.1941H340.27L329.631 -30.8098L340.27 -50.4255H361.377ZM296.684 -50.4255L307.323 -30.8098L296.684 -11.1941H275.577L264.938 -30.8098L275.577 -50.4255H296.684ZM232.162 -50.4255L242.801 -30.8098L232.162 -11.1941H211.055L200.416 -30.8098L211.055 -50.4255H232.162ZM178.623 9.33825H199.73L210.197 28.7706L199.558 48.3863H178.451L167.984 28.954L178.623 9.33825ZM178.623 49.3029H199.73L210.369 68.9187L199.901 88.3511H178.794L168.155 68.7353L178.623 49.3029ZM178.623 129.049H199.73L210.197 148.481L199.558 168.097H178.451L167.984 148.665L178.623 129.049ZM210.884 188.08L200.244 168.464L210.884 148.848H231.99L242.63 168.464L231.99 188.08H210.884ZM275.577 188.08L264.938 168.464L275.577 148.848H296.684L307.323 168.464L296.684 188.08H275.577ZM340.27 188.08L329.631 168.464L340.27 148.848H361.377L372.016 168.464L361.377 188.08H340.27ZM404.963 188.08L394.324 168.464L404.963 148.848H426.07L436.709 168.464L426.07 188.08H404.963ZM469.656 188.08L459.017 168.464L469.656 148.848H490.763L501.402 168.464L490.763 188.08H469.656ZM534.178 188.08L523.539 168.464L534.178 148.848H555.285L565.924 168.464L555.285 188.08H534.178ZM598.871 188.08L588.232 168.464L598.871 148.848H619.978L630.617 168.464L619.978 188.08H598.871ZM652.239 168.097H631.132L620.664 148.665L631.304 129.049H652.41L662.878 148.481L652.239 168.097ZM652.41 88.3511H631.304L620.664 68.7353L631.132 49.3029H652.239L662.878 68.9187L652.41 88.3511ZM652.239 48.3863H631.132L620.664 28.954L631.304 9.33825H652.41L662.878 28.7706L652.239 48.3863ZM619.978 -90.3902L630.617 -70.7745L619.978 -51.1588H598.871L588.232 -70.7745L598.871 -90.3902H619.978ZM555.285 -90.3902L565.924 -70.7745L555.285 -51.1588H534.178L523.539 -70.7745L534.178 -90.3902H555.285ZM490.592 -90.3902L501.231 -70.7745L490.592 -51.1588H469.485L458.846 -70.7745L469.485 -90.3902H490.592ZM426.07 -90.3902L436.709 -70.7745L426.07 -51.1588H404.963L394.324 -70.7745L404.963 -90.3902H426.07ZM361.377 -90.3902L372.016 -70.7745L361.377 -51.1588H340.27L329.631 -70.7745L340.27 -90.3902H361.377ZM296.684 -90.3902L307.323 -70.7745L296.684 -51.1588H275.577L264.938 -70.7745L275.577 -90.3902H296.684ZM231.99 -90.3902L242.63 -70.7745L231.99 -51.1588H210.884L200.244 -70.7745L210.884 -90.3902H231.99ZM167.469 -90.3902L178.108 -70.7745L167.469 -51.1588H146.362L135.723 -70.7745L146.362 -90.3902H167.469ZM167.469 -50.4255L178.108 -30.8098L167.469 -11.1941H146.362L135.723 -30.8098L146.362 -50.4255H167.469ZM167.469 -10.6441L178.108 8.97158L167.469 28.5873H146.362L135.723 8.97158L146.362 -10.6441H167.469ZM167.469 29.3206L178.108 48.9363L167.469 68.552H146.362L135.723 48.9363L146.362 29.3206H167.469ZM167.469 69.102L178.108 88.7177L167.469 108.333H146.362L135.723 88.7177L146.362 69.102H167.469ZM167.469 109.067L178.108 128.682L167.469 148.298H146.362L135.723 128.682L146.362 109.067H167.469ZM167.469 148.848L178.108 168.464L167.469 188.08H146.362L135.723 168.464L146.362 148.848H167.469ZM167.469 188.813L178.108 208.429L167.469 228.044H146.362L135.723 208.429L146.362 188.813H167.469ZM211.055 267.826L200.416 248.21L211.055 228.594H232.162L242.801 248.21L232.162 267.826H211.055ZM275.577 267.826L264.938 248.21L275.577 228.594H296.684L307.323 248.21L296.684 267.826H275.577ZM340.27 267.826L329.631 248.21L340.27 228.594H361.377L372.016 248.21L361.377 267.826H340.27ZM404.963 267.826L394.324 248.21L404.963 228.594H426.07L436.709 248.21L426.07 267.826H404.963ZM469.656 267.826L459.017 248.21L469.656 228.594H490.763L501.402 248.21L490.763 267.826H469.656ZM534.35 267.826L523.71 248.21L534.35 228.594H555.456L566.096 248.21L555.456 267.826H534.35ZM598.871 267.826L588.232 248.21L598.871 228.594H619.978L630.617 248.21L619.978 267.826H598.871ZM684.671 227.861H663.564L652.925 208.245L663.564 188.629H684.671L695.31 208.245L684.671 227.861ZM663.564 188.08L652.925 168.464L663.564 148.848H684.671L695.31 168.464L684.671 188.08H663.564ZM663.564 148.115L652.925 128.499L663.564 108.883H684.671L695.31 128.499L684.671 148.115H663.564ZM684.671 108.333H663.564L652.925 88.7177L663.564 69.102H684.671L695.31 88.7177L684.671 108.333ZM663.564 68.3687L652.925 48.753L663.564 29.1373H684.671L695.31 48.753L684.671 68.3687H663.564ZM663.564 28.404L652.925 8.7883L663.564 -10.8274H684.671L695.31 8.7883L684.671 28.404H663.564ZM684.671 -11.3774H663.564L652.925 -30.9931L663.564 -50.6088H684.671L695.31 -30.9931L684.671 -11.3774ZM663.564 -51.3421L652.925 -70.9578L663.564 -90.5735H684.671L695.31 -70.9578L684.671 -51.3421H663.564ZM684.671 -170.136L695.31 -150.521L684.671 -130.905H663.564L652.925 -150.521L663.564 -170.136H684.671ZM619.978 -170.136L630.617 -150.521L619.978 -130.905H598.871L588.232 -150.521L598.871 -170.136H619.978ZM555.285 -170.136L565.924 -150.521L555.285 -130.905H534.178L523.539 -150.521L534.178 -170.136H555.285ZM490.763 -170.136L501.402 -150.521L490.763 -130.905H469.656L459.017 -150.521L469.656 -170.136H490.763ZM426.07 -170.136L436.709 -150.521L426.07 -130.905H404.963L394.324 -150.521L404.963 -170.136H426.07ZM361.377 -170.136L372.016 -150.521L361.377 -130.905H340.27L329.631 -150.521L340.27 -170.136H361.377ZM296.684 -170.136L307.323 -150.521L296.684 -130.905H275.577L264.938 -150.521L275.577 -170.136H296.684ZM232.162 -170.136L242.801 -150.521L232.162 -130.905H211.055L200.416 -150.521L211.055 -170.136H232.162ZM167.469 -170.136L178.108 -150.521L167.469 -130.905H146.362L135.723 -150.521L146.362 -170.136H167.469ZM146.362 307.607L135.723 287.991L146.362 268.376H167.469L178.108 287.991L167.469 307.607H146.362ZM210.884 307.607L200.244 287.991L210.884 268.376H231.99L242.63 287.991L231.99 307.607H210.884ZM275.577 307.607L264.938 287.991L275.577 268.376H296.684L307.323 287.991L296.684 307.607H275.577ZM340.27 307.607L329.631 287.991L340.27 268.376H361.377L372.016 287.991L361.377 307.607H340.27ZM404.963 307.607L394.324 287.991L404.963 268.376H426.07L436.709 287.991L426.07 307.607H404.963ZM469.656 307.607L459.017 287.991L469.656 268.376H490.763L501.402 287.991L490.763 307.607H469.656ZM534.178 307.607L523.539 287.991L534.178 268.376H555.285L565.924 287.991L555.285 307.607H534.178ZM598.871 307.607L588.232 287.991L598.871 268.376H619.978L630.617 287.991L619.978 307.607H598.871ZM663.564 307.607L652.925 287.991L663.564 268.376H684.671L695.31 287.991L684.671 307.607H663.564ZM695.139 -190.485L684.5 -170.87H663.393L652.754 -190.485L663.393 -210.101H684.671L695.139 -190.485ZM630.617 -190.485L619.978 -170.87H598.871L588.232 -190.485L598.871 -210.101H619.978L630.617 -190.485ZM565.924 -190.485L555.285 -170.87H534.178L523.539 -190.485L534.178 -210.101H555.285L565.924 -190.485ZM501.231 -190.485L490.592 -170.87H469.485L458.846 -190.485L469.485 -210.101H490.592L501.231 -190.485ZM436.538 -190.485L425.898 -170.87H404.963L394.324 -190.485L404.963 -210.101H426.07L436.538 -190.485ZM371.844 -190.485L361.205 -170.87H340.098L329.459 -190.485L340.098 -210.101H361.205L371.844 -190.485ZM307.323 -190.485L296.684 -170.87H275.577L264.938 -190.485L275.577 -210.101H296.684L307.323 -190.485ZM242.63 -190.485L231.99 -170.87H210.884L200.244 -190.485L210.884 -210.101H231.99L242.63 -190.485ZM177.936 -190.485L167.297 -170.87H146.19L135.551 -190.485L146.19 -210.101H167.297L177.936 -190.485ZM168.155 347.938L178.794 328.323H199.901L210.54 347.938L199.901 367.554H178.794L168.155 347.938ZM232.677 347.938L243.316 328.323H264.423L275.062 347.938L264.423 367.554H243.316L232.677 347.938ZM297.37 347.938L308.009 328.323H329.116L339.755 347.938L329.116 367.554H308.009L297.37 347.938ZM362.063 347.938L372.702 328.323H393.809L404.448 347.938L393.809 367.554H372.702L362.063 347.938ZM426.756 347.938L437.396 328.323H458.502L469.142 347.938L458.502 367.554H437.396L426.756 347.938ZM491.45 347.938L502.089 328.323H523.196L533.835 347.938L523.196 367.554H502.089L491.45 347.938ZM555.971 347.938L566.61 328.323H587.717L598.356 347.938L587.717 367.554H566.61L555.971 347.938ZM620.664 347.938L631.304 328.323H652.41L663.05 347.938L652.41 367.554H631.304L620.664 347.938ZM749.364 -91.1235H728.258L717.618 -110.739L728.258 -130.355H749.364L760.004 -110.739L749.364 -91.1235ZM760.004 -150.521L749.364 -130.905H728.258L717.618 -150.521L728.258 -170.136H749.364L760.004 -150.521ZM716.932 -150.887H695.825L685.186 -170.503L695.654 -189.935H716.76L727.4 -170.32L716.932 -150.887ZM695.825 -229.9H716.932L727.571 -210.284L716.932 -190.669H695.825L685.186 -210.284L695.825 -229.9ZM631.304 -229.9H652.41L662.878 -210.468L652.239 -190.852H631.132L620.493 -210.468L631.304 -229.9ZM566.61 -229.9H587.717L598.185 -210.468L587.546 -190.852H566.439L555.8 -210.468L566.61 -229.9ZM501.917 -229.9H523.024L533.492 -210.468L522.852 -190.852H501.746L491.106 -210.468L501.917 -229.9ZM437.224 -229.9H458.331L468.798 -210.468L458.159 -190.852H437.052L426.413 -210.468L437.224 -229.9ZM372.531 -229.9H393.638L404.105 -210.468L393.466 -190.852H372.359L361.72 -210.468L372.531 -229.9ZM308.009 -229.9H329.116L339.584 -210.468L328.944 -190.852H307.838L297.198 -210.468L308.009 -229.9ZM243.316 -229.9H264.423L274.89 -210.468L264.251 -190.852H243.144L232.505 -210.468L243.316 -229.9ZM178.623 -229.9H199.73L210.197 -210.468L199.558 -190.852H178.451L167.812 -210.468L178.623 -229.9ZM113.93 -229.9H135.036L145.504 -210.468L134.865 -190.852H113.758L103.119 -210.468L113.93 -229.9ZM71.0296 -190.485L81.6688 -210.101H102.776L113.415 -190.485L102.776 -170.87H81.6688L71.0296 -190.485ZM113.93 -190.119H135.036L145.676 -170.503L135.208 -151.071H114.101L103.462 -170.686L113.93 -190.119ZM113.93 -150.154H135.036L145.676 -130.538L135.036 -110.923H113.93L103.29 -130.538L113.93 -150.154ZM113.93 -110.373H135.036L145.504 -90.9402L134.865 -71.3245H113.758L103.119 -90.9402L113.93 -110.373ZM71.0296 -70.7745L81.6688 -90.3902H102.776L113.415 -70.7745L102.776 -51.1588H81.6688L71.0296 -70.7745ZM113.93 -70.4078H135.036L145.676 -50.7921L135.208 -31.3598H114.101L103.462 -50.9755L113.93 -70.4078ZM113.93 -30.6264H135.036L145.676 -11.0108L135.036 8.60496H113.93L103.29 -11.0108L113.93 -30.6264ZM113.93 9.33825H135.036L145.504 28.7706L134.865 48.3863H113.758L103.119 28.7706L113.93 9.33825ZM71.0296 48.753L81.6688 29.1373H102.776L113.243 48.753L102.604 68.3687H81.4972L71.0296 48.753ZM113.93 49.3029H135.036L145.676 68.9187L135.208 88.3511H114.101L103.462 68.7353L113.93 49.3029ZM113.93 89.0843H135.036L145.676 108.7L135.036 128.316H113.93L103.29 108.7L113.93 89.0843ZM113.93 129.049H135.036L145.504 148.481L134.865 168.097H113.758L103.119 148.481L113.93 129.049ZM71.0296 168.464L81.6688 148.848H102.776L113.415 168.464L102.776 188.08H81.6688L71.0296 168.464ZM113.93 168.83H135.036L145.676 188.446L135.208 207.879H114.101L103.462 188.263L113.93 168.83ZM113.93 208.795H135.036L145.676 228.411L135.036 248.027H113.93L103.29 228.411L113.93 208.795ZM113.93 248.577H135.036L145.504 268.009L134.865 287.625H113.758L103.119 268.009L113.93 248.577ZM71.0296 288.175L81.6688 268.559H102.776L113.415 288.175L102.776 307.79H81.6688L71.0296 288.175ZM113.93 288.541H135.036L145.676 308.157L135.208 327.589H114.101L103.462 307.974L113.93 288.541ZM103.462 347.938L114.101 328.323H135.208L145.847 347.938L135.208 367.554H114.101L103.462 347.938ZM167.469 387.353H146.362L135.723 367.737L146.362 348.122H167.469L178.108 367.737L167.469 387.353ZM232.162 387.353H211.055L200.416 367.737L211.055 348.122H232.162L242.801 367.737L232.162 387.353ZM296.855 387.353H275.748L265.109 367.737L275.748 348.122H296.855L307.494 367.737L296.855 387.353ZM361.377 387.353H340.27L329.631 367.737L340.27 348.122H361.377L372.016 367.737L361.377 387.353ZM426.07 387.353H404.963L394.324 367.737L404.963 348.122H426.07L436.709 367.737L426.07 387.353ZM490.763 387.353H469.656L459.017 367.737L469.656 348.122H490.763L501.402 367.737L490.763 387.353ZM555.456 387.353H534.35L523.71 367.737L534.35 348.122H555.456L566.096 367.737L555.456 387.353ZM619.978 387.353H598.871L588.232 367.737L598.871 348.122H619.978L630.617 367.737L619.978 387.353ZM684.671 387.353H663.564L652.925 367.737L663.564 348.122H684.671L695.31 367.737L684.671 387.353ZM749.364 387.353H728.258L717.618 367.737L728.258 348.122H749.364L760.004 367.737L749.364 387.353ZM760.004 327.956L749.364 347.572H728.258L717.618 327.956L728.258 308.34H749.364L760.004 327.956ZM716.932 327.589H695.825L685.186 307.974L695.654 288.541H716.76L727.4 308.157L716.932 327.589ZM716.932 287.625H695.825L685.358 268.192L695.997 248.577H717.104L727.743 268.192L716.932 287.625ZM749.364 267.826H728.258L717.618 248.21L728.258 228.594H749.364L760.004 248.21L749.364 267.826ZM760.004 208.429L749.364 228.044H728.258L717.618 208.429L728.258 188.813H749.364L760.004 208.429ZM716.932 207.879H695.825L685.186 188.263L695.654 168.83H716.76L727.4 188.446L716.932 207.879ZM716.932 168.097H695.825L685.358 148.665L695.997 129.049H717.104L727.743 148.665L716.932 168.097ZM749.364 148.115H728.258L717.618 128.499L728.258 108.883H749.364L760.004 128.499L749.364 148.115ZM760.004 88.7177L749.364 108.333H728.258L717.618 88.7177L728.258 69.102H749.364L760.004 88.7177ZM716.932 88.3511H695.825L685.186 68.7353L695.654 49.3029H716.76L727.4 68.9187L716.932 88.3511ZM716.932 48.3863H695.825L685.358 28.954L695.997 9.33825H717.104L727.743 28.954L716.932 48.3863ZM749.364 28.404H728.258L717.618 8.7883L728.258 -10.8274H749.364L760.004 8.7883L749.364 28.404ZM760.004 -30.9931L749.364 -11.3774H728.258L717.618 -30.9931L728.258 -50.6088H749.364L760.004 -30.9931ZM716.932 -31.3598H695.825L685.186 -50.9755L695.654 -70.4078H716.76L727.4 -50.7921L716.932 -31.3598Z" fill="url(#paint0_radial)"/>
</g>
<defs>
<radialGradient id="paint0_radial" cx="0" cy="0" r="1" gradientUnits="userSpaceOnUse" gradientTransform="translate(415.431 79.0932) rotate(90) scale(310.093 345.431)">
<stop stop-color="#FFFEFE"/>
<stop offset="1" stop-color="#FFFEFE" stop-opacity="0"/>
</radialGradient>
</defs>
</svg>
