<svg width="15" height="19" viewBox="0 0 15 19" fill="none" xmlns="http://www.w3.org/2000/svg">
<path d="M7.12 1C3.74125 1 1 3.50885 1 6.59884C1 10.1543 5.08 15.7887 6.57813 17.7348C6.64031 17.8169 6.72182 17.8838 6.81599 17.9299C6.91016 17.976 7.01433 18 7.12 18C7.22567 18 7.32984 17.976 7.42401 17.9299C7.51818 17.8838 7.59969 17.8169 7.66188 17.7348C9.16 15.7895 13.24 10.1572 13.24 6.59884C13.24 3.50885 10.4988 1 7.12 1Z" stroke="#F7F2F2" stroke-width="2" stroke-linecap="round" stroke-linejoin="round"/>
<path d="M7.12 9.16008C8.24666 9.16008 9.16 8.24674 9.16 7.12008C9.16 5.99342 8.24666 5.08008 7.12 5.08008C5.99334 5.08008 5.08 5.99342 5.08 7.12008C5.08 8.24674 5.99334 9.16008 7.12 9.16008Z" stroke="#F7F2F2" stroke-width="2" stroke-linecap="round" stroke-linejoin="round"/>
</svg>
