<svg width="19" height="20" viewBox="0 0 19 20" fill="none" xmlns="http://www.w3.org/2000/svg">
<path d="M17.3333 14.0999V16.5999C17.3343 16.832 17.2867 17.0617 17.1938 17.2744C17.1008 17.487 16.9644 17.6779 16.7934 17.8348C16.6224 17.9917 16.4205 18.1112 16.2006 18.1855C15.9808 18.2599 15.7478 18.2875 15.5167 18.2666C12.9524 17.988 10.4892 17.1117 8.325 15.7083C6.31152 14.4288 4.60445 12.7217 3.325 10.7083C1.91665 8.53425 1.0402 6.05908 0.766667 3.48325C0.745842 3.25281 0.773229 3.02055 0.847084 2.80127C0.920938 2.58199 1.03964 2.38049 1.19564 2.2096C1.35163 2.03871 1.5415 1.90218 1.75316 1.80869C1.96481 1.7152 2.19362 1.6668 2.425 1.66658H4.925C5.32942 1.6626 5.72149 1.80582 6.02813 2.06953C6.33478 2.33324 6.53506 2.69946 6.59167 3.09992C6.69719 3.89997 6.89288 4.68552 7.175 5.44158C7.28712 5.73985 7.31139 6.06401 7.24492 6.37565C7.17846 6.68729 7.02405 6.97334 6.8 7.19992L5.74167 8.25825C6.92796 10.3445 8.65538 12.072 10.7417 13.2583L11.8 12.1999C12.0266 11.9759 12.3126 11.8215 12.6243 11.755C12.9359 11.6885 13.2601 11.7128 13.5583 11.8249C14.3144 12.107 15.0999 12.3027 15.9 12.4083C16.3048 12.4654 16.6745 12.6693 16.9388 12.9812C17.2031 13.2931 17.3435 13.6912 17.3333 14.0999Z" stroke="white" stroke-width="1.5" stroke-linecap="round" stroke-linejoin="round"/>
</svg>
