<svg width="131" height="32" viewBox="0 0 131 32" fill="none" xmlns="http://www.w3.org/2000/svg">
<path d="M17.2688 25.198H22.08L3.6084 6.79938V28.6742H0V2.56006H4.29572L30.7574 28.6742H17.2688V25.198Z" fill="#15AB89"/>
<path d="M40.2078 2.56006V28.6742H35.8262L9.27856 2.56006H22.853V6.12108H17.9559L36.5993 24.4349V2.56006H40.2078Z" fill="#15AB89"/>
<path d="M59.5106 18.0762C59.5106 20.1087 58.9824 21.6949 57.926 22.8349C56.8697 23.975 55.3991 24.545 53.5144 24.545C52.3365 24.545 51.2952 24.2824 50.3909 23.7574C49.4865 23.2324 48.7912 22.4786 48.3048 21.4961C47.8184 20.5137 47.5752 19.3736 47.5752 18.0762C47.5752 16.0587 48.0996 14.4836 49.1484 13.3512C50.1971 12.2187 51.6752 11.6524 53.5828 11.6524C55.4068 11.6524 56.8506 12.2337 57.9147 13.3962C58.9787 14.5512 59.5106 16.1112 59.5106 18.0762ZM50.3338 18.0762C50.3338 20.9487 51.4092 22.385 53.56 22.385C55.688 22.385 56.7519 20.9487 56.7519 18.0762C56.7519 15.2337 55.6803 13.8124 53.5373 13.8124C52.4125 13.8124 51.5955 14.1799 51.0863 14.9149C50.5847 15.65 50.3338 16.7037 50.3338 18.0762ZM65.4727 24.3199L60.6848 11.8774H63.5119L66.0768 19.1112C66.5177 20.3262 66.7836 21.3087 66.8749 22.0587H66.9661C67.0344 21.5186 67.3004 20.5361 67.764 19.1112L70.3289 11.8774H73.1788L68.3681 24.3199H65.4727ZM77.7729 24.3199H75.094V11.8774H77.7729V24.3199ZM74.9344 8.58118C74.9344 8.10868 75.0635 7.74493 75.322 7.48992C75.5879 7.23492 75.9642 7.10742 76.4506 7.10742C76.9218 7.10742 77.2865 7.23492 77.5449 7.48992C77.8109 7.74493 77.9439 8.10868 77.9439 8.58118C77.9439 9.03117 77.8109 9.38742 77.5449 9.64992C77.2865 9.90493 76.9218 10.0324 76.4506 10.0324C75.9642 10.0324 75.5879 9.90493 75.322 9.64992C75.0635 9.38742 74.9344 9.03117 74.9344 8.58118ZM92.7065 24.3199H90.0162V16.6699C90.0162 15.7099 89.8186 14.9937 89.4234 14.5211C89.0358 14.0487 88.4165 13.8124 87.5652 13.8124C86.4329 13.8124 85.6045 14.1424 85.0801 14.8025C84.5557 15.4625 84.2935 16.5686 84.2935 18.1211V24.3199H81.6146V11.8774H83.7121L84.0883 13.5087H84.2251C84.6051 12.9162 85.1447 12.4587 85.8439 12.1362C86.543 11.8137 87.3183 11.6524 88.1694 11.6524C91.1942 11.6524 92.7065 13.1711 92.7065 16.2087V24.3199ZM101.131 22.4075C101.784 22.4075 102.438 22.3062 103.092 22.1037V24.0949C102.795 24.2224 102.411 24.3275 101.94 24.4099C101.477 24.4999 100.994 24.545 100.492 24.545C97.9542 24.545 96.685 23.2249 96.685 20.5849V13.88H94.9636V12.7099L96.8103 11.7424L97.7224 9.10993H99.3753V11.8774H102.966V13.88H99.3753V20.54C99.3753 21.1774 99.5349 21.65 99.8541 21.9574C100.181 22.2575 100.606 22.4075 101.131 22.4075ZM111.128 24.545C109.168 24.545 107.632 23.9824 106.523 22.8574C105.421 21.725 104.87 20.1686 104.87 18.1887C104.87 16.1562 105.383 14.5586 106.409 13.3962C107.435 12.2337 108.845 11.6524 110.638 11.6524C112.303 11.6524 113.617 12.1512 114.582 13.1487C115.548 14.1462 116.03 15.5186 116.03 17.2662V18.695H107.629C107.667 19.9024 107.997 20.8324 108.62 21.485C109.244 22.13 110.121 22.4524 111.254 22.4524C111.999 22.4524 112.69 22.3849 113.329 22.2499C113.974 22.1074 114.666 21.8749 115.403 21.5524V23.7012C114.75 24.0086 114.088 24.2262 113.42 24.3537C112.751 24.4812 111.987 24.545 111.128 24.545ZM110.638 13.655C109.787 13.655 109.103 13.9212 108.586 14.4537C108.077 14.9862 107.773 15.7625 107.674 16.7824H113.397C113.382 15.7549 113.131 14.9786 112.644 14.4537C112.158 13.9212 111.489 13.655 110.638 13.655ZM121.878 17.9637L117.649 11.8774H120.704L123.577 16.2312L126.472 11.8774H129.505L125.264 17.9637L129.721 24.3199H126.689L123.577 19.6624L120.476 24.3199H117.444L121.878 17.9637Z" fill="white"/>
</svg>
