<svg width="383" height="203" viewBox="0 0 383 203" fill="none" xmlns="http://www.w3.org/2000/svg">
<path fill-rule="evenodd" clip-rule="evenodd" d="M24.6901 197.993H379.93C380.556 197.993 381.156 198.242 381.599 198.685C382.041 199.127 382.29 199.728 382.29 200.353C382.29 200.979 382.041 201.58 381.599 202.022C381.156 202.465 380.556 202.713 379.93 202.713H24.6901C24.0642 202.713 23.4639 202.465 23.0213 202.022C22.5787 201.58 22.3301 200.979 22.3301 200.353C22.3301 199.728 22.5787 199.127 23.0213 198.685C23.4639 198.242 24.0642 197.993 24.6901 197.993Z" fill="#404141"/>
<path fill-rule="evenodd" clip-rule="evenodd" d="M2.36 197.993H17.13C17.7559 197.993 18.3562 198.242 18.7988 198.685C19.2414 199.127 19.49 199.728 19.49 200.353C19.49 200.979 19.2414 201.58 18.7988 202.022C18.3562 202.465 17.7559 202.713 17.13 202.713H2.36C1.73409 202.713 1.13381 202.465 0.691228 202.022C0.248642 201.58 0 200.979 0 200.353C0 199.728 0.248642 199.127 0.691228 198.685C1.13381 198.242 1.73409 197.993 2.36 197.993Z" fill="#404141"/>
<path fill-rule="evenodd" clip-rule="evenodd" d="M271.54 196.233C283.227 196.233 294.651 192.768 304.369 186.275C314.086 179.782 321.66 170.554 326.132 159.756C330.604 148.959 331.775 137.078 329.495 125.616C327.215 114.153 321.587 103.624 313.323 95.3605C305.059 87.0966 294.53 81.4689 283.068 79.1889C271.606 76.9089 259.724 78.079 248.927 82.5514C238.13 87.0238 228.901 94.5975 222.408 104.315C215.916 114.032 212.45 125.457 212.45 137.143C212.482 152.805 218.717 167.817 229.792 178.891C240.867 189.966 255.878 196.202 271.54 196.233Z" fill="#B1AAA5"/>
<path fill-rule="evenodd" clip-rule="evenodd" d="M271.54 78.0535C281.995 78.026 292.268 80.7876 301.3 86.0535C312.318 95.7529 319.332 109.206 320.975 123.794C322.618 138.381 318.772 153.057 310.187 164.965C301.602 176.872 288.892 185.157 274.533 188.207C260.174 191.257 245.194 188.853 232.51 181.463C223.498 173.533 217.115 163.045 214.211 151.397C211.307 139.749 212.02 127.492 216.255 116.259C220.49 105.026 228.045 95.349 237.916 88.5168C247.787 81.6845 259.505 78.0208 271.51 78.0135" fill="white"/>
<path d="M310.88 89.6635C290.8 73.1235 261.78 70.7935 239.5 84.4235C228.717 91.0856 220.22 100.874 215.139 112.486C210.058 124.098 208.636 136.983 211.06 149.423C216.01 174.223 236.84 194.223 261.85 198.073C265.056 198.573 268.295 198.834 271.54 198.853C284.2 198.728 296.523 194.762 306.88 187.48C317.236 180.198 325.138 169.944 329.54 158.073C338.42 133.993 330.68 105.993 310.88 89.6635ZM326.88 148.263C324.332 161.063 317.419 172.581 307.322 180.851C297.226 189.12 284.571 193.628 271.52 193.603C248.21 193.503 226.61 178.663 218.52 156.683C214.478 145.707 213.946 133.746 216.998 122.454C220.049 111.162 226.532 101.097 235.552 93.6492C244.571 86.2018 255.682 81.7402 267.347 80.881C279.013 80.0219 290.657 82.8078 300.67 88.8535C320.81 100.993 331.62 125.183 326.9 148.263H326.88Z" fill="#404141"/>
<path fill-rule="evenodd" clip-rule="evenodd" d="M271.54 78.0535C287.211 78.0561 302.239 84.2825 313.32 95.3634C324.401 106.444 330.627 121.473 330.63 137.143H271.54V78.0535Z" fill="#255F78"/>
<path fill-rule="evenodd" clip-rule="evenodd" d="M271.54 78.0534C281.995 78.026 292.268 80.7876 301.3 86.0534C308.463 92.3475 313.996 100.282 317.426 109.178C320.857 118.075 322.083 127.67 321 137.143H271.54V78.0534Z" fill="#3DA5FA"/>
<path d="M292.86 79.2135C286.031 76.7092 278.814 75.4264 271.54 75.4235C270.842 75.4235 270.173 75.7005 269.68 76.1938C269.187 76.687 268.91 77.3559 268.91 78.0535V137.143C268.92 137.838 269.201 138.501 269.692 138.992C270.183 139.483 270.846 139.763 271.54 139.773H330.63C331.325 139.766 331.989 139.486 332.481 138.995C332.973 138.503 333.252 137.839 333.26 137.143C333.165 124.537 329.254 112.255 322.043 101.914C314.831 91.5734 304.657 83.6592 292.86 79.2135ZM278.94 134.513H274.17V80.7635C296.51 81.9135 316.84 96.4235 324.55 117.663C326.518 123.078 327.658 128.759 327.93 134.513H278.94Z" fill="#404141"/>
<path fill-rule="evenodd" clip-rule="evenodd" d="M181.92 196.083C134.65 196.083 105.92 176.843 106.21 140.083C106.46 104.593 136.74 86.1834 149.14 57.4935C156.54 40.3535 119.36 23.7934 137.08 5.23345C144.75 -2.76655 154.74 9.67345 166.64 10.4235C176.19 11.0235 174.64 1.42345 192.99 11.1135C204.74 17.2835 218.17 -3.76655 226.76 5.23345C244.48 23.7934 207.3 40.3535 214.76 57.4935C227.15 86.1834 257.43 104.593 257.68 140.083C257.94 176.863 229.25 196.083 181.97 196.083" fill="white"/>
<path fill-rule="evenodd" clip-rule="evenodd" d="M148.27 3.68346C156.16 7.49346 158.97 8.92346 164.46 10.1335C167.81 20.7335 167.52 30.4235 166.76 41.3535C163.12 25.2935 158.93 13.5335 148.27 3.68346Z" fill="#B1AAA5"/>
<path fill-rule="evenodd" clip-rule="evenodd" d="M181.92 196.083C179.92 196.083 177.86 196.083 175.92 195.973C219.59 194.383 245.85 175.253 245.6 140.063C245.35 104.573 215.07 86.1635 202.67 57.4735C204.6 36.8535 232.78 27.6035 226.8 5.21346C244.52 23.7735 207.34 40.3335 214.8 57.4735C227.19 86.1635 257.47 104.573 257.72 140.063C257.98 176.843 229.29 196.063 182.01 196.063" fill="#B1AAA5"/>
<path fill-rule="evenodd" clip-rule="evenodd" d="M222.74 53.8435C222.74 53.5249 222.693 53.2082 222.6 52.9035C222.399 52.2895 222.009 51.7544 221.487 51.374C220.965 50.9935 220.336 50.7869 219.69 50.7835H144.15C143.34 50.7861 142.565 51.1097 141.993 51.6832C141.421 52.2568 141.1 53.0336 141.1 53.8435V62.9935C141.103 63.8016 141.425 64.5758 141.996 65.1472C142.568 65.7186 143.342 66.0408 144.15 66.0435H219.69C220.498 66.0408 221.272 65.7186 221.844 65.1472C222.415 64.5758 222.737 63.8016 222.74 62.9935V57.5935V53.8435Z" fill="#404141"/>
<path d="M181.92 193.453C161.16 193.453 137.14 190.103 121.8 174.643C107.34 160.073 105.8 137.063 113.1 118.643C121.65 97.0835 140.63 81.8035 150.45 60.9235C152.38 56.8035 153.36 52.9235 152.17 48.4235C151.17 44.4235 148.87 40.8135 146.53 37.4235C144.03 33.8335 141.29 30.4235 138.94 26.7135C136.94 23.5835 135.04 19.9735 134.89 16.5035C134.861 14.5083 135.298 12.5339 136.166 10.7372C137.034 8.94049 138.309 7.371 139.89 6.15345C143.55 3.42345 148.79 6.62345 152.23 8.28345C157.23 10.6835 162.73 13.3935 168.43 12.9735C170.216 12.8359 171.962 12.3716 173.58 11.6035C174.17 11.3435 174.73 11.0435 175.3 10.7435L176.15 10.3135C176.32 10.2335 177.25 9.81345 176.69 10.0435C177.32 9.78348 177.973 9.58261 178.64 9.44345C179.337 9.32115 180.046 9.29423 180.75 9.36345C183.155 9.64234 185.497 10.3182 187.68 11.3635C190.43 12.5635 192.95 14.2735 195.97 14.6735C198.269 14.954 200.602 14.7217 202.8 13.9935C207.34 12.5335 211.3 9.81345 215.49 7.61345C217.161 6.64703 218.983 5.97078 220.88 5.61345C221.507 5.51142 222.149 5.54808 222.761 5.72085C223.373 5.89362 223.939 6.1983 224.42 6.61345C225.903 7.86606 227.081 9.44025 227.864 11.2164C228.647 12.9925 229.015 14.9238 228.94 16.8635C228.76 20.2835 226.71 23.9835 224.72 27.0735C220.24 34.0735 213.61 40.4635 211.6 48.7235C210.48 53.3335 211.6 57.2035 213.6 61.3635C216.132 66.5309 219.085 71.481 222.43 76.1635C229.06 85.6335 236.65 94.3934 242.96 104.083C249.27 113.773 254.08 124.653 254.87 136.403C255.51 146.013 254.08 155.983 249.51 164.543C240 182.353 219.64 189.893 200.67 192.333C194.451 193.109 188.188 193.487 181.92 193.463C178.54 193.463 178.53 198.733 181.92 198.733C204.01 198.733 229.13 194.883 245.51 178.633C260.9 163.363 263.71 139.103 256.56 119.243C248.36 96.4635 228.78 80.6435 218.35 59.1335C217.47 57.3335 216.44 55.1335 216.35 53.4535C216.26 51.6808 216.557 49.9099 217.22 48.2635C218.54 44.6135 221.22 40.9635 223.59 37.6935C228.44 31.0335 235.05 23.2935 234.13 14.4535C233.856 12.0251 233.095 9.67695 231.892 7.5497C230.69 5.42245 229.07 3.55985 227.13 2.07345C223.32 -0.696546 218.72 0.363455 214.76 2.17345C210.5 4.11345 206.69 7.04345 202.28 8.66345C200.47 9.43091 198.498 9.73674 196.54 9.55345C195.339 9.29107 194.188 8.83871 193.13 8.21345C191.45 7.36345 189.73 6.59345 187.99 5.90345C183.99 4.33345 179.46 3.38345 175.31 5.02345C173.9 5.58345 172.6 6.33345 171.24 7.02345C171.11 7.08345 170.98 7.15345 170.84 7.20345C171.35 6.98345 170.84 7.20345 170.75 7.20345C170.42 7.32345 170.1 7.43345 169.75 7.52345C169.054 7.76456 168.316 7.86318 167.58 7.81345C161.86 7.81345 156.66 4.51345 151.58 2.26345C146.5 0.0134544 141.13 -1.43655 136.46 2.26345C134.53 3.8072 132.931 5.72372 131.757 7.89876C130.584 10.0738 129.861 12.4628 129.63 14.9235C129.3 19.1535 130.88 23.3235 132.89 26.9235C135.202 30.8053 137.754 34.5392 140.53 38.1035C142.9 41.3735 145.53 44.9935 146.73 48.6735C147.348 50.2633 147.588 51.9751 147.43 53.6735C147.336 54.4159 147.165 55.1465 146.92 55.8535C146.444 57.099 145.893 58.3146 145.27 59.4935C142.602 64.7655 139.516 69.8151 136.04 74.5935C129.12 84.3135 121.24 93.3635 114.95 103.533C108.39 114.123 103.95 125.883 103.59 138.423C103.26 148.543 105.17 158.863 110.11 167.773C120.62 186.773 142.26 194.773 162.67 197.483C169.048 198.29 175.471 198.687 181.9 198.673C185.29 198.673 185.29 193.413 181.9 193.403L181.92 193.453Z" fill="#404141"/>
<path fill-rule="evenodd" clip-rule="evenodd" d="M193.26 98.8835L182.5 122.603L170.84 98.8835H159.3L173.03 125.253H163.57H162.11V126.713V131.453V132.913H163.57H176.71V138.013H162.11V139.523V144.213V145.683H163.56H163.57H176.71V147.673V159.463V160.923H178.17H186.02H187.48V159.463V147.673V145.683H200.71H202.16V144.213V139.523V138.013H187.48V132.913H200.71H200.73H202.16V131.453V126.713V125.253H191.2L204.55 98.8835H193.26Z" fill="#DFEEFA"/>
<path fill-rule="evenodd" clip-rule="evenodd" d="M75.1601 38.8835C77.765 38.8835 80.3113 39.6566 82.4766 41.1048C84.6418 42.5531 86.3285 44.6114 87.3231 47.019C88.3176 49.4265 88.5753 52.0751 88.0634 54.6293C87.5516 57.1834 86.2933 59.5282 84.4478 61.3667C82.6023 63.2051 80.2528 64.4545 77.6967 64.9567C75.1406 65.4588 72.493 65.191 70.0892 64.1873C67.6855 63.1836 65.6336 61.4891 64.1936 59.3183C62.7536 57.1476 61.9902 54.5984 62.0001 51.9935C62.0133 48.5119 63.4057 45.1774 65.8722 42.7202C68.3387 40.2631 71.6785 38.8834 75.1601 38.8835Z" fill="white"/>
<path fill-rule="evenodd" clip-rule="evenodd" d="M83.0499 41.5035C84.2783 44.1651 84.5821 47.1608 83.9131 50.0148C83.2441 52.8688 81.6406 55.4174 79.3575 57.2559C77.0743 59.0944 74.2423 60.1173 71.3113 60.1622C68.3803 60.207 65.5183 59.2712 63.1799 57.5035C64.0141 59.3254 65.2534 60.9329 66.8032 62.2031C68.353 63.4734 70.1724 64.373 72.1227 64.8332C74.073 65.2935 76.1027 65.3023 78.0569 64.859C80.0111 64.4156 81.8383 63.5319 83.3991 62.2751C84.9598 61.0183 86.213 59.4217 87.063 57.607C87.9129 55.7923 88.3372 53.8075 88.3036 51.8039C88.2699 49.8003 87.7791 47.8309 86.8686 46.0458C85.9582 44.2607 84.6521 42.7071 83.0499 41.5035Z" fill="#B1AAA5"/>
<path d="M90.6301 48.9235C89.8969 45.4204 88.0055 42.2663 85.2607 39.9695C82.5158 37.6728 79.0776 36.3673 75.5001 36.2635C75.387 36.2533 75.2732 36.2533 75.1601 36.2635C75.0537 36.2533 74.9465 36.2533 74.8401 36.2635C71.5969 36.3277 68.4523 37.3892 65.8337 39.3037C63.2151 41.2181 61.2496 43.8926 60.2046 46.9635C59.1596 50.0343 59.0857 53.3525 59.993 56.4668C60.9003 59.5812 62.7448 62.3405 65.2755 64.3696C67.8063 66.3987 70.9006 67.5992 74.1377 67.8077C77.3748 68.0162 80.5976 67.2227 83.3678 65.5351C86.138 63.8475 88.3212 61.3476 89.6206 58.3754C90.92 55.4032 91.2725 52.103 90.6301 48.9235ZM81.9301 60.1035C74.5801 66.3635 62.9301 59.5635 64.8201 50.1035C65.1288 48.4426 65.8325 46.8803 66.8719 45.5486C67.9114 44.2169 69.2559 43.1548 70.7921 42.452C72.3283 41.7493 74.0111 41.4264 75.6983 41.5107C77.3855 41.595 79.0277 42.084 80.4862 42.9364C81.9447 43.7888 83.1766 44.9796 84.0781 46.4083C84.9796 47.837 85.5242 49.4616 85.6658 51.145C85.8073 52.8284 85.5418 54.5211 84.8917 56.0803C84.2415 57.6395 83.2257 59.0194 81.9301 60.1035Z" fill="#404141"/>
<path fill-rule="evenodd" clip-rule="evenodd" d="M77.64 45.2635L75.29 50.4435L72.74 45.2635H70.22L73.22 51.0235H71.16H70.84V51.3435V52.3735V52.6935H71.16H74.03V53.8035H70.84V54.1335V55.1635V55.4835H71.15H71.16H74.03V55.9135V58.4935V58.8135H74.34H76.06H76.38V58.4935V55.9135V55.4835H79.27H79.58V55.1635V54.1335V53.8035H76.38V52.6935H79.27H79.58V52.3735V51.3435V51.0235H77.19L80.1 45.2635H77.64Z" fill="#3DA5FA"/>
<path fill-rule="evenodd" clip-rule="evenodd" d="M26.2899 110.123C28.8931 110.121 31.4385 110.892 33.6039 112.336C35.7694 113.781 37.4577 115.836 38.4553 118.24C39.4529 120.645 39.7149 123.291 39.2082 125.845C38.7016 128.398 37.449 130.744 35.609 132.585C33.7689 134.427 31.424 135.681 28.871 136.19C26.3179 136.698 23.6713 136.438 21.2661 135.443C18.8608 134.447 16.8049 132.76 15.3584 130.596C13.912 128.431 13.1399 125.887 13.1399 123.283C13.1399 119.795 14.525 116.449 16.9908 113.981C19.4566 111.514 22.8014 110.126 26.2899 110.123Z" fill="white"/>
<path fill-rule="evenodd" clip-rule="evenodd" d="M34.1801 112.753C35.4084 115.415 35.7122 118.411 35.0432 121.265C34.3742 124.119 32.7708 126.667 30.4876 128.506C28.2044 130.344 25.3724 131.367 22.4414 131.412C19.5104 131.457 16.6484 130.521 14.3101 128.753C15.1443 130.575 16.3835 132.183 17.9333 133.453C19.4831 134.723 21.3026 135.623 23.2529 136.083C25.2032 136.543 27.2328 136.552 29.187 136.109C31.1413 135.666 32.9684 134.782 34.5292 133.525C36.09 132.268 37.3431 130.672 38.1931 128.857C39.043 127.042 39.4674 125.057 39.4337 123.054C39.4 121.05 38.9092 119.081 37.9988 117.296C37.0883 115.511 35.7822 113.957 34.1801 112.753Z" fill="#B1AAA5"/>
<path d="M41.76 120.163C41.0249 116.662 39.1326 113.51 36.3879 111.216C33.6433 108.921 30.2061 107.617 26.63 107.513H26.29H26C23.5855 107.567 21.2155 108.174 19.0726 109.287C16.9296 110.401 15.0708 111.992 13.6394 113.937C12.208 115.882 11.2422 118.13 10.8164 120.507C10.3905 122.884 10.516 125.327 11.1831 127.649C11.8502 129.97 13.0412 132.107 14.6643 133.895C16.2874 135.683 18.2994 137.075 20.5451 137.963C22.7909 138.852 25.2106 139.213 27.6178 139.019C30.0251 138.824 32.3556 138.08 34.43 136.843C37.2036 135.139 39.3913 132.629 40.7011 129.649C42.0108 126.668 42.3802 123.359 41.76 120.163ZM33.06 131.343C25.71 137.603 14.06 130.803 15.94 121.343C16.2501 119.684 16.9546 118.123 17.9943 116.793C19.0339 115.463 20.3781 114.402 21.9136 113.7C23.449 112.999 25.1307 112.676 26.8169 112.761C28.503 112.845 30.1441 113.333 31.6019 114.185C33.0597 115.036 34.2914 116.226 35.1931 117.653C36.0948 119.081 36.6401 120.704 36.7831 122.386C36.926 124.068 36.6624 125.76 36.0144 127.319C35.3665 128.878 34.3532 130.258 33.06 131.343Z" fill="#404141"/>
<path fill-rule="evenodd" clip-rule="evenodd" d="M28.7701 116.513L26.4201 121.683L23.8701 116.513H21.3501L24.3501 122.263H22.2901H21.9701V122.583V123.623V123.943H22.2901H25.1501V125.053H21.9701V125.383V126.413V126.723H22.2801H22.2901H25.1501V127.163V129.733V130.053H25.4701H27.1901H27.5001V129.733V127.163V126.723H30.3901H30.7101V126.413V125.383V125.053H27.5001V123.943H30.3901H30.4001H30.7101V123.623V122.583V122.263H28.3201L31.2301 116.513H28.7701Z" fill="#3DA5FA"/>
<path fill-rule="evenodd" clip-rule="evenodd" d="M271.55 57.8135C274.152 57.8115 276.697 58.5811 278.862 60.0251C281.027 61.469 282.715 63.5225 283.713 65.9258C284.712 68.3291 284.975 70.9745 284.47 73.5274C283.965 76.0803 282.714 78.4261 280.876 80.2684C279.038 82.1106 276.695 83.3666 274.143 83.8774C271.591 84.3883 268.946 84.1311 266.54 83.1384C264.134 82.1457 262.077 80.4621 260.628 78.3003C259.179 76.1386 258.404 73.5958 258.4 70.9935C258.403 67.5067 259.789 64.1635 262.254 61.6979C264.72 59.2324 268.063 57.8461 271.55 57.8435" fill="white"/>
<path fill-rule="evenodd" clip-rule="evenodd" d="M279.44 60.4335C280.668 63.0951 280.972 66.0908 280.303 68.9448C279.634 71.7988 278.031 74.3474 275.748 76.1859C273.464 78.0244 270.632 79.0473 267.701 79.0922C264.77 79.137 261.908 78.2012 259.57 76.4335C260.404 78.2554 261.644 79.8629 263.193 81.1331C264.743 82.4034 266.563 83.303 268.513 83.7632C270.463 84.2235 272.493 84.2323 274.447 83.789C276.401 83.3456 278.228 82.4619 279.789 81.2051C281.35 79.9483 282.603 78.3517 283.453 76.537C284.303 74.7223 284.727 72.7375 284.694 70.7339C284.66 68.7303 284.169 66.7609 283.259 64.9758C282.348 63.1907 281.042 61.6371 279.44 60.4335Z" fill="#B1AAA5"/>
<path d="M287 67.8535C286.268 64.3536 284.379 61.202 281.638 58.9056C278.898 56.6092 275.464 55.3017 271.89 55.1935H271.55H271.22C267.979 55.2573 264.837 56.3177 262.22 58.2304C259.603 60.143 257.638 62.8152 256.593 65.8837C255.548 68.9521 255.474 72.2679 256.38 75.3802C257.286 78.4925 259.128 81.2504 261.656 83.2788C264.185 85.3072 267.276 86.5078 270.511 86.7174C273.746 86.9269 276.966 86.1353 279.735 84.45C282.504 82.7647 284.687 80.2676 285.987 77.2982C287.287 74.3287 287.64 71.031 287 67.8535ZM278.32 78.9935C270.97 85.2535 259.32 78.4435 261.2 68.9935C261.51 67.3339 262.215 65.7733 263.254 64.4431C264.294 63.1129 265.638 62.0522 267.174 61.3504C268.709 60.6486 270.391 60.3263 272.077 60.4106C273.763 60.495 275.404 60.9835 276.862 61.835C278.32 62.6865 279.551 63.876 280.453 65.3033C281.355 66.7306 281.9 68.3537 282.043 70.0359C282.186 71.7181 281.922 73.41 281.275 74.9689C280.627 76.5279 279.613 77.9082 278.32 78.9935Z" fill="#404141"/>
<path fill-rule="evenodd" clip-rule="evenodd" d="M274.03 64.1935L271.68 69.3735L269.13 64.1935H266.61L269.61 69.9535H267.55H267.23V70.2635V71.3035V71.6235H267.55H270.41V72.7335H267.23V73.0635V74.0935V74.4135H267.54H267.55H270.41V74.8435V77.4235V77.7435H270.73H272.45H272.76V77.4235V74.8435V74.4135H275.65H275.97V74.0935V73.0635V72.7335H272.76V71.6235H275.65H275.66H275.97V71.3035V70.2635V69.9535H273.58L276.49 64.1935H274.03Z" fill="#3DA5FA"/>
<path d="M273.41 16.9935C273.453 15.5959 273.215 14.204 272.71 12.9001C272.205 11.5963 271.444 10.4072 270.47 9.40331C269.497 8.39946 268.332 7.60133 267.045 7.05628C265.757 6.51124 264.373 6.23038 262.975 6.23038C261.577 6.23038 260.193 6.51124 258.905 7.05628C257.618 7.60133 256.453 8.39946 255.479 9.40331C254.506 10.4072 253.744 11.5963 253.239 12.9001C252.735 14.204 252.497 15.5959 252.54 16.9935C252.588 19.6694 253.645 22.2285 255.499 24.1586C257.354 26.0887 259.868 27.2476 262.54 27.4035C262.703 27.4191 262.867 27.4191 263.03 27.4035C263.193 27.4186 263.357 27.4186 263.52 27.4035C266.162 27.1925 268.632 26.0132 270.458 24.0918C272.283 22.1705 273.335 19.6426 273.41 16.9935ZM263 22.1235C261.638 22.1058 260.336 21.5619 259.367 20.6055C258.398 19.6492 257.836 18.3547 257.8 16.9935C257.767 15.6223 258.28 14.2941 259.226 13.3011C260.172 12.3081 261.474 11.7316 262.845 11.6985C264.216 11.6653 265.544 12.1782 266.537 13.1243C267.53 14.0704 268.107 15.3723 268.14 16.7435C268.144 18.1304 267.611 19.4651 266.653 20.468C265.695 21.4708 264.386 22.0641 263 22.1235Z" fill="#404141"/>
<path d="M81.36 99.3535C81.3637 97.3083 80.7666 95.307 79.6429 93.5982C78.5191 91.8894 76.9182 90.5483 75.0389 89.7414C73.1596 88.9345 71.0847 88.6973 69.0718 89.0594C67.0589 89.4214 65.1967 90.3668 63.7164 91.778C62.236 93.1892 61.2028 95.0041 60.7449 96.9974C60.2871 98.9907 60.4248 101.075 61.141 102.99C61.8571 104.906 63.1202 106.569 64.7734 107.773C66.4265 108.977 68.3969 109.669 70.44 109.763C70.6031 109.774 70.7668 109.774 70.93 109.763C71.0931 109.774 71.2568 109.774 71.42 109.763C74.0707 109.564 76.5536 108.39 78.3893 106.468C80.225 104.545 81.2834 102.011 81.36 99.3535ZM70.93 104.533C69.9155 104.536 68.9226 104.241 68.0744 103.684C67.2262 103.128 66.5601 102.335 66.1587 101.403C65.7573 100.471 65.6384 99.4423 65.8165 98.4437C65.9947 97.445 66.4622 96.5206 67.161 95.7852C67.8598 95.0498 68.7592 94.5358 69.7475 94.307C70.7358 94.0782 71.7696 94.1445 72.7205 94.4979C73.6714 94.8513 74.4976 95.4761 75.0966 96.2949C75.6956 97.1136 76.041 98.0902 76.09 99.1035C76.1041 100.502 75.5734 101.85 74.6102 102.864C73.647 103.878 72.327 104.476 70.93 104.533Z" fill="#404141"/>
<path d="M350 177.863C350.006 175.818 349.41 173.817 348.288 172.107C347.166 170.397 345.566 169.054 343.688 168.246C341.809 167.437 339.735 167.198 337.722 167.558C335.708 167.918 333.845 168.862 332.364 170.272C330.882 171.681 329.847 173.495 329.387 175.488C328.928 177.481 329.063 179.565 329.778 181.481C330.492 183.398 331.753 185.062 333.405 186.268C335.057 187.474 337.027 188.167 339.07 188.263C339.233 188.284 339.397 188.284 339.56 188.263C339.723 188.284 339.887 188.284 340.05 188.263C342.702 188.069 345.187 186.898 347.025 184.977C348.863 183.056 349.923 180.521 350 177.863ZM339.6 182.993C338.586 182.994 337.593 182.697 336.746 182.139C335.899 181.581 335.234 180.787 334.835 179.854C334.435 178.922 334.318 177.892 334.498 176.894C334.678 175.896 335.147 174.972 335.847 174.238C336.548 173.504 337.448 172.992 338.437 172.765C339.425 172.538 340.459 172.606 341.409 172.961C342.36 173.317 343.185 173.943 343.782 174.763C344.38 175.583 344.723 176.56 344.77 177.573C344.784 178.972 344.252 180.321 343.286 181.334C342.32 182.346 340.998 182.941 339.6 182.993Z" fill="#404141"/>
<path fill-rule="evenodd" clip-rule="evenodd" d="M310.18 49.3035C310.185 51.7215 311.148 54.0392 312.856 55.75C314.565 57.4608 316.882 58.4255 319.3 58.4335C316.882 58.4414 314.565 59.4061 312.856 61.1169C311.148 62.8277 310.185 65.1454 310.18 67.5635C310.172 65.1445 309.208 62.8268 307.497 61.1163C305.787 59.4058 303.469 58.4414 301.05 58.4335C303.469 58.4255 305.787 57.4611 307.497 55.7506C309.208 54.0401 310.172 51.7224 310.18 49.3035Z" fill="#404141"/>
<path fill-rule="evenodd" clip-rule="evenodd" d="M100.77 7.82346C100.767 10.2494 101.727 12.5773 103.439 14.2964C105.15 16.0156 107.474 16.9855 109.9 16.9935C107.482 16.9987 105.164 17.961 103.453 19.6699C101.743 21.3788 100.778 23.6954 100.77 26.1135C100.765 23.6963 99.8021 21.3797 98.0929 19.6705C96.3837 17.9613 94.0671 16.9987 91.6499 16.9935C94.068 16.9855 96.3846 16.0208 98.0935 14.31C99.8024 12.5992 100.765 10.2815 100.77 7.86346" fill="#404141"/>
<path fill-rule="evenodd" clip-rule="evenodd" d="M120.92 196.193H67.9199C67.1243 196.193 66.3612 195.877 65.7986 195.315C65.236 194.752 64.9199 193.989 64.9199 193.193V121.043C64.9199 120.248 65.236 119.485 65.7986 118.922C66.3612 118.36 67.1243 118.043 67.9199 118.043H120.92C121.716 118.043 122.479 118.36 123.041 118.922C123.604 119.485 123.92 120.248 123.92 121.043V193.163C123.886 193.948 123.559 194.691 123.003 195.247C122.448 195.802 121.705 196.129 120.92 196.163" fill="#B1AAA5"/>
<path fill-rule="evenodd" clip-rule="evenodd" d="M65.1499 194.443C64.9634 194.043 64.8678 193.606 64.8699 193.163V121.043C64.8678 120.601 64.9634 120.164 65.1499 119.763H110.23C111.009 119.763 111.757 120.065 112.317 120.606C112.876 121.148 113.204 121.885 113.23 122.663V191.543C113.185 192.315 112.852 193.042 112.296 193.579C111.74 194.116 111.003 194.425 110.23 194.443H65.1499Z" fill="white"/>
<path fill-rule="evenodd" clip-rule="evenodd" d="M120.92 197.993H67.9199C67.2922 197.993 66.6706 197.87 66.0906 197.63C65.5107 197.389 64.9838 197.037 64.5399 196.593C64.0945 196.152 63.7407 195.627 63.4987 195.049C63.2568 194.471 63.1314 193.85 63.1299 193.223V121.043C63.1352 119.776 63.6418 118.561 64.5393 117.666C65.4367 116.77 66.652 116.266 67.9199 116.263H120.92C122.187 116.269 123.401 116.774 124.298 117.669C125.194 118.564 125.702 119.776 125.71 121.043V193.163V193.323C125.611 194.546 125.088 195.696 124.23 196.573C123.801 197.01 123.289 197.356 122.724 197.592C122.159 197.827 121.552 197.947 120.94 197.943L120.92 197.993ZM67.9399 194.443H120.94C121.09 194.445 121.239 194.417 121.378 194.36C121.517 194.303 121.644 194.22 121.75 194.113C122.013 193.841 122.178 193.49 122.22 193.113V121.043C122.223 120.875 122.191 120.707 122.128 120.55C122.065 120.394 121.97 120.252 121.851 120.132C121.732 120.013 121.589 119.919 121.433 119.855C121.276 119.792 121.109 119.761 120.94 119.763H67.9399C67.5988 119.768 67.2727 119.904 67.0299 120.143C66.9121 120.262 66.8188 120.402 66.7553 120.557C66.6918 120.711 66.6594 120.876 66.6599 121.043V193.163C66.6605 193.503 66.7932 193.83 67.0299 194.073C67.2727 194.313 67.5988 194.449 67.9399 194.453" fill="#404141"/>
<path fill-rule="evenodd" clip-rule="evenodd" d="M77 153.313H74C73.2044 153.313 72.4413 152.997 71.8787 152.435C71.3161 151.872 71 151.109 71 150.313V147.313C71 146.518 71.3161 145.755 71.8787 145.192C72.4413 144.63 73.2044 144.313 74 144.313H77C77.7956 144.313 78.5587 144.63 79.1213 145.192C79.6839 145.755 80 146.518 80 147.313V150.313C80 151.109 79.6839 151.872 79.1213 152.435C78.5587 152.997 77.7956 153.313 77 153.313Z" fill="#3DA5FA"/>
<path fill-rule="evenodd" clip-rule="evenodd" d="M89.5601 153.313H86.5601C85.7644 153.313 85.0014 152.997 84.4387 152.435C83.8761 151.872 83.5601 151.109 83.5601 150.313V147.313C83.5601 146.518 83.8761 145.755 84.4387 145.192C85.0014 144.63 85.7644 144.313 86.5601 144.313H89.5601C90.3557 144.313 91.1188 144.63 91.6814 145.192C92.244 145.755 92.5601 146.518 92.5601 147.313V150.313C92.5601 151.109 92.244 151.872 91.6814 152.435C91.1188 152.997 90.3557 153.313 89.5601 153.313Z" fill="#3DA5FA"/>
<path fill-rule="evenodd" clip-rule="evenodd" d="M102.29 153.313H99.29C98.4944 153.313 97.7313 152.997 97.1687 152.435C96.6061 151.872 96.29 151.109 96.29 150.313V147.313C96.29 146.518 96.6061 145.755 97.1687 145.192C97.7313 144.63 98.4944 144.313 99.29 144.313H102.29C103.086 144.313 103.849 144.63 104.411 145.192C104.974 145.755 105.29 146.518 105.29 147.313V150.313C105.29 151.109 104.974 151.872 104.411 152.435C103.849 152.997 103.086 153.313 102.29 153.313Z" fill="#3DA5FA"/>
<path fill-rule="evenodd" clip-rule="evenodd" d="M114.86 153.313H111.86C111.064 153.313 110.301 152.997 109.739 152.435C109.176 151.872 108.86 151.109 108.86 150.313V147.313C108.86 146.518 109.176 145.755 109.739 145.192C110.301 144.63 111.064 144.313 111.86 144.313H114.86C115.656 144.313 116.419 144.63 116.981 145.192C117.544 145.755 117.86 146.518 117.86 147.313V150.313C117.88 150.713 117.816 151.112 117.673 151.485C117.529 151.858 117.309 152.197 117.026 152.479C116.743 152.762 116.405 152.982 116.031 153.126C115.658 153.27 115.259 153.334 114.86 153.313Z" fill="#404141"/>
<path fill-rule="evenodd" clip-rule="evenodd" d="M77 165.583H74C73.2044 165.583 72.4413 165.267 71.8787 164.705C71.3161 164.142 71 163.379 71 162.583V159.583C71 158.788 71.3161 158.025 71.8787 157.462C72.4413 156.9 73.2044 156.583 74 156.583H77C77.7956 156.583 78.5587 156.9 79.1213 157.462C79.6839 158.025 80 158.788 80 159.583V162.583C80 163.379 79.6839 164.142 79.1213 164.705C78.5587 165.267 77.7956 165.583 77 165.583Z" fill="#404141"/>
<path fill-rule="evenodd" clip-rule="evenodd" d="M89.5601 165.583H86.5601C85.7644 165.583 85.0014 165.267 84.4387 164.705C83.8761 164.142 83.5601 163.379 83.5601 162.583V159.583C83.5601 158.788 83.8761 158.025 84.4387 157.462C85.0014 156.9 85.7644 156.583 86.5601 156.583H89.5601C90.3557 156.583 91.1188 156.9 91.6814 157.462C92.244 158.025 92.5601 158.788 92.5601 159.583V162.583C92.5601 163.379 92.244 164.142 91.6814 164.705C91.1188 165.267 90.3557 165.583 89.5601 165.583Z" fill="#404141"/>
<path fill-rule="evenodd" clip-rule="evenodd" d="M102.29 165.583H99.29C98.4944 165.583 97.7313 165.267 97.1687 164.705C96.6061 164.142 96.29 163.379 96.29 162.583V159.583C96.29 158.788 96.6061 158.025 97.1687 157.462C97.7313 156.9 98.4944 156.583 99.29 156.583H102.29C103.086 156.583 103.849 156.9 104.411 157.462C104.974 158.025 105.29 158.788 105.29 159.583V162.583C105.29 163.379 104.974 164.142 104.411 164.705C103.849 165.267 103.086 165.583 102.29 165.583Z" fill="#404141"/>
<path fill-rule="evenodd" clip-rule="evenodd" d="M114.86 165.583H111.86C111.064 165.583 110.301 165.267 109.739 164.705C109.176 164.142 108.86 163.379 108.86 162.583V159.583C108.86 158.788 109.176 158.025 109.739 157.462C110.301 156.9 111.064 156.583 111.86 156.583H114.86C115.656 156.583 116.419 156.9 116.981 157.462C117.544 158.025 117.86 158.788 117.86 159.583V162.583C117.88 162.983 117.816 163.382 117.673 163.755C117.529 164.128 117.309 164.467 117.026 164.749C116.743 165.032 116.405 165.252 116.031 165.396C115.658 165.54 115.259 165.604 114.86 165.583Z" fill="#3DA5FA"/>
<path fill-rule="evenodd" clip-rule="evenodd" d="M77 177.863H74C73.2044 177.863 72.4413 177.547 71.8787 176.985C71.3161 176.422 71 175.659 71 174.863V171.863C71 171.068 71.3161 170.305 71.8787 169.742C72.4413 169.18 73.2044 168.863 74 168.863H77C77.7956 168.863 78.5587 169.18 79.1213 169.742C79.6839 170.305 80 171.068 80 171.863V174.863C80 175.659 79.6839 176.422 79.1213 176.985C78.5587 177.547 77.7956 177.863 77 177.863Z" fill="#404141"/>
<path fill-rule="evenodd" clip-rule="evenodd" d="M89.5601 177.863H86.5601C85.7644 177.863 85.0014 177.547 84.4387 176.985C83.8761 176.422 83.5601 175.659 83.5601 174.863V171.863C83.5601 171.068 83.8761 170.305 84.4387 169.742C85.0014 169.18 85.7644 168.863 86.5601 168.863H89.5601C90.3557 168.863 91.1188 169.18 91.6814 169.742C92.244 170.305 92.5601 171.068 92.5601 171.863V174.863C92.5601 175.659 92.244 176.422 91.6814 176.985C91.1188 177.547 90.3557 177.863 89.5601 177.863Z" fill="#404141"/>
<path fill-rule="evenodd" clip-rule="evenodd" d="M102.29 177.863H99.29C98.4944 177.863 97.7313 177.547 97.1687 176.985C96.6061 176.422 96.29 175.659 96.29 174.863V171.863C96.29 171.068 96.6061 170.305 97.1687 169.742C97.7313 169.18 98.4944 168.863 99.29 168.863H102.29C103.086 168.863 103.849 169.18 104.411 169.742C104.974 170.305 105.29 171.068 105.29 171.863V174.863C105.29 175.659 104.974 176.422 104.411 176.985C103.849 177.547 103.086 177.863 102.29 177.863Z" fill="#404141"/>
<path fill-rule="evenodd" clip-rule="evenodd" d="M114.86 177.863H111.86C111.064 177.863 110.301 177.547 109.739 176.985C109.176 176.422 108.86 175.659 108.86 174.863V171.863C108.86 171.068 109.176 170.305 109.739 169.742C110.301 169.18 111.064 168.863 111.86 168.863H114.86C115.656 168.863 116.419 169.18 116.981 169.742C117.544 170.305 117.86 171.068 117.86 171.863V174.863C117.88 175.263 117.816 175.662 117.673 176.035C117.529 176.408 117.309 176.747 117.026 177.029C116.743 177.312 116.405 177.532 116.031 177.676C115.658 177.82 115.259 177.884 114.86 177.863Z" fill="#3DA5FA"/>
<path fill-rule="evenodd" clip-rule="evenodd" d="M77 190.133H74C73.2044 190.133 72.4413 189.817 71.8787 189.255C71.3161 188.692 71 187.929 71 187.133V184.133C71 183.338 71.3161 182.575 71.8787 182.012C72.4413 181.45 73.2044 181.133 74 181.133H77C77.7956 181.133 78.5587 181.45 79.1213 182.012C79.6839 182.575 80 183.338 80 184.133V187.133C80 187.929 79.6839 188.692 79.1213 189.255C78.5587 189.817 77.7956 190.133 77 190.133Z" fill="#404141"/>
<path fill-rule="evenodd" clip-rule="evenodd" d="M89.5601 190.133H86.5601C85.7644 190.133 85.0014 189.817 84.4387 189.255C83.8761 188.692 83.5601 187.929 83.5601 187.133V184.133C83.5601 183.338 83.8761 182.575 84.4387 182.012C85.0014 181.45 85.7644 181.133 86.5601 181.133H89.5601C90.3557 181.133 91.1188 181.45 91.6814 182.012C92.244 182.575 92.5601 183.338 92.5601 184.133V187.133C92.5601 187.929 92.244 188.692 91.6814 189.255C91.1188 189.817 90.3557 190.133 89.5601 190.133Z" fill="#404141"/>
<path fill-rule="evenodd" clip-rule="evenodd" d="M102.29 190.133H99.29C98.4944 190.133 97.7313 189.817 97.1687 189.255C96.6061 188.692 96.29 187.929 96.29 187.133V184.133C96.29 183.338 96.6061 182.575 97.1687 182.012C97.7313 181.45 98.4944 181.133 99.29 181.133H102.29C103.086 181.133 103.849 181.45 104.411 182.012C104.974 182.575 105.29 183.338 105.29 184.133V187.133C105.29 187.929 104.974 188.692 104.411 189.255C103.849 189.817 103.086 190.133 102.29 190.133Z" fill="#404141"/>
<path fill-rule="evenodd" clip-rule="evenodd" d="M114.86 190.133H111.86C111.064 190.133 110.301 189.817 109.739 189.255C109.176 188.692 108.86 187.929 108.86 187.133V184.133C108.86 183.338 109.176 182.575 109.739 182.012C110.301 181.45 111.064 181.133 111.86 181.133H114.86C115.656 181.133 116.419 181.45 116.981 182.012C117.544 182.575 117.86 183.338 117.86 184.133V187.133C117.88 187.533 117.816 187.932 117.673 188.305C117.529 188.678 117.309 189.017 117.026 189.299C116.743 189.582 116.405 189.802 116.031 189.946C115.658 190.09 115.259 190.154 114.86 190.133Z" fill="#3DA5FA"/>
<path fill-rule="evenodd" clip-rule="evenodd" d="M73.0999 125.643H115.72C116.295 125.643 116.847 125.872 117.254 126.279C117.661 126.686 117.89 127.238 117.89 127.813V136.743C117.89 137.319 117.661 137.871 117.254 138.278C116.847 138.685 116.295 138.913 115.72 138.913H73.0999C72.5244 138.913 71.9725 138.685 71.5655 138.278C71.1586 137.871 70.9299 137.319 70.9299 136.743V127.813C70.9299 127.238 71.1586 126.686 71.5655 126.279C71.9725 125.872 72.5244 125.643 73.0999 125.643Z" fill="#404141"/>
<path fill-rule="evenodd" clip-rule="evenodd" d="M73.0999 124.773H115.72C116.119 124.771 116.516 124.849 116.885 125.002C117.254 125.154 117.589 125.379 117.87 125.663C118.156 125.944 118.383 126.278 118.537 126.647C118.692 127.017 118.771 127.413 118.77 127.813V136.743C118.765 137.542 118.449 138.308 117.889 138.877C117.329 139.447 116.568 139.775 115.77 139.793H73.0999C72.3005 139.778 71.539 139.45 70.9783 138.88C70.4177 138.31 70.1024 137.543 70.0999 136.743V127.813C70.0976 127.414 70.1751 127.018 70.328 126.649C70.4808 126.279 70.7058 125.944 70.9899 125.663C71.5645 125.094 72.3408 124.774 73.1499 124.773H73.0999ZM115.77 126.523H73.0999C72.9289 126.522 72.7595 126.555 72.6015 126.62C72.4434 126.686 72.3001 126.782 72.1799 126.903C71.9386 127.145 71.8021 127.472 71.7999 127.813V136.743C71.7999 137.088 71.9369 137.419 72.1807 137.663C72.4245 137.906 72.7551 138.043 73.0999 138.043H115.72C116.065 138.043 116.395 137.906 116.639 137.663C116.883 137.419 117.02 137.088 117.02 136.743V127.813C117.018 127.472 116.881 127.145 116.64 126.903C116.52 126.782 116.376 126.686 116.218 126.62C116.06 126.555 115.891 126.522 115.72 126.523" fill="#404141"/>
<path fill-rule="evenodd" clip-rule="evenodd" d="M37.85 156.383C37.8553 158.806 38.822 161.127 40.5376 162.837C42.2533 164.547 44.5777 165.506 47 165.503C44.5819 165.511 42.2653 166.476 40.5564 168.187C38.8475 169.898 37.8853 172.215 37.88 174.633C37.8721 172.214 36.9076 169.897 35.1971 168.186C33.4867 166.476 31.169 165.511 28.75 165.503C31.1681 165.498 33.4858 164.536 35.1965 162.827C36.9073 161.118 37.8721 158.802 37.88 156.383" fill="#404141"/>
<path fill-rule="evenodd" clip-rule="evenodd" d="M356.38 111.833C357.237 111.826 358.072 111.564 358.78 111.083C359.489 110.601 360.039 109.92 360.361 109.127C360.683 108.333 360.764 107.462 360.592 106.623C360.42 105.783 360.003 105.014 359.395 104.411C358.786 103.808 358.013 103.398 357.172 103.234C356.331 103.07 355.461 103.158 354.67 103.488C353.879 103.817 353.204 104.374 352.729 105.086C352.254 105.799 352 106.637 352 107.493C352.003 108.644 352.461 109.746 353.274 110.559C354.087 111.373 355.19 111.831 356.34 111.833" fill="#404141"/>
<path fill-rule="evenodd" clip-rule="evenodd" d="M117 77.3334C117.859 77.3374 118.7 77.0862 119.417 76.6118C120.133 76.1373 120.692 75.4609 121.024 74.6682C121.355 73.8755 121.444 73.0023 121.279 72.1591C121.114 71.3159 120.702 70.5407 120.096 69.9318C119.49 69.3228 118.716 68.9075 117.874 68.7384C117.032 68.5693 116.158 68.6541 115.364 68.9819C114.57 69.3098 113.891 69.8661 113.413 70.5802C112.935 71.2944 112.68 72.1342 112.68 72.9935C112.683 74.1402 113.138 75.2396 113.947 76.0524C114.756 76.8651 115.853 77.3255 117 77.3334Z" fill="#404141"/>
</svg>
